<?xml version="1.0" encoding="utf-8"?>
<!-- Generator: Adobe Illustrator 18.0.0, SVG Export Plug-In . SVG Version: 6.00 Build 0)  -->
<!DOCTYPE svg PUBLIC "-//W3C//DTD SVG 1.1//EN" "http://www.w3.org/Graphics/SVG/1.1/DTD/svg11.dtd">
<svg version="1.1" id="svgwrapper_svg" xmlns="http://www.w3.org/2000/svg" xmlns:xlink="http://www.w3.org/1999/xlink" x="0px"
	 y="0px" width="830px" height="192px" viewBox="0 0 830 192" enable-background="new 0 0 830 192" xml:space="preserve">
<path display="none" fill="none" stroke="#999999" d="M583,454.3l70-62"/>
<g id="bottomgroup" transform="translate(0,0)">
</g>
<g id="assistantgroup" transform="translate(0,0)">
</g>
<g>
	<g id="ShadowBasicRect1_1_" transform="translate(518.8076858520508,344)">
		<rect x="81.6" y="-272" opacity="0.6" fill="#BBBBBB" enable-background="new    " width="142.2" height="50"/>
		<rect x="79.6" y="-274" fill="#FFFFFF" stroke="#E5E5E5" width="142.2" height="50"/>
		<g transform="translate(20 9)">
			<g>
				<path fill="#00A4FF" d="M95.6-245c-7.2,0-13-5.8-13-13c0-7.2,5.8-13,13-13c6.4,0,11.9,4.7,12.9,11h2c-1.1-8.2-8.7-14-16.9-12.9
					c-8.2,1.1-14,8.7-12.9,16.9s8.7,14,16.9,12.9c6.7-0.9,12-6.2,12.9-12.9h-2C107.4-249.7,102-245,95.6-245z M102.6-262l-7-4l-7,4
					v8l3.2,1.8c0.2-0.6,0.5-1.2,1-1.7l-2.2-1.3v-3.7l5,2.9l5-2.9v3.7l-4.1,2.4c-1-0.5-2.2-0.1-2.7,0.9c-0.5,1-0.1,2.2,0.9,2.7
					c1,0.5,2.2,0.1,2.7-0.9c0.1-0.3,0.2-0.6,0.2-0.9v-0.1l5-2.9V-262z M95.6-258.3l-4.7-2.7l4.7-2.7l4.7,2.7L95.6-258.3z"/>
			</g>
			<g>
				<path fill="#444444" d="M114.5-260.3h1.2l1.8,5.9l1.7-5.9h1l1.7,5.9l1.8-5.9h1.2l-2.5,7.2h-1.1l-1.7-5.8l-1.7,5.8h-1
					L114.5-260.3z"/>
				<path fill="#444444" d="M131.5-259.3c0.5,0.7,0.8,1.7,0.8,3h-5.7c0.1,0.8,0.3,1.5,0.7,1.9c0.4,0.4,0.9,0.7,1.6,0.7
					c0.6,0,1.1-0.1,1.4-0.4c0.3-0.2,0.5-0.6,0.7-1.1h1.1c-0.2,0.7-0.5,1.3-1,1.7c-0.6,0.5-1.4,0.8-2.3,0.8c-1,0-1.9-0.3-2.5-1
					c-0.6-0.7-1-1.6-1-2.8c0-1.1,0.3-2,0.9-2.7c0.6-0.8,1.4-1.1,2.5-1.1C130-260.5,130.9-260.1,131.5-259.3z M127.3-258.9
					c-0.4,0.4-0.6,1-0.7,1.7h4.5c-0.1-1.5-0.9-2.3-2.3-2.3C128.2-259.6,127.7-259.3,127.3-258.9z"/>
				<path fill="#444444" d="M133.6-263.2h1.1v4.3c0.6-1,1.4-1.5,2.4-1.5s1.8,0.4,2.4,1.2c0.5,0.7,0.8,1.6,0.8,2.6
					c0,1.1-0.3,2-0.8,2.7c-0.6,0.8-1.4,1.1-2.5,1.1c-1.1,0-1.9-0.5-2.4-1.4v1.2h-1V-263.2z M135.3-258.8c-0.4,0.5-0.6,1.2-0.6,2v0.1
					c0,0.8,0.2,1.5,0.5,2c0.4,0.6,1,0.8,1.7,0.8c0.8,0,1.4-0.3,1.8-0.9c0.3-0.5,0.5-1.2,0.5-2.1c0-0.9-0.2-1.5-0.5-2
					c-0.4-0.6-1-0.8-1.8-0.8C136.3-259.6,135.7-259.3,135.3-258.8z"/>
				<path fill="#444444" d="M143.5-256.5c-0.1,2-0.4,3.6-1,4.8l-0.8-0.7c0.6-1.3,0.8-2.9,0.9-4.8v-6.7h4.1v10.9
					c0,0.9-0.4,1.3-1.2,1.3h-1.1l-0.2-0.9c0.5,0,0.9,0.1,1.1,0.1c0.4,0,0.5-0.3,0.5-0.8v-3.2H143.5z M145.8-260.6v-2.4h-2.3v2.4
					H145.8z M143.5-259.7v2.3h2.3v-2.3H143.5z M148.8-257.8v6.2h-1v-12.3h5.7c0,1.7-0.1,2.9-0.3,3.4c-0.2,0.6-0.7,0.9-1.6,0.9h-1.1
					l-0.3-0.9l0.9,0c0.3,0,0.6,0,0.7-0.1c0.2-0.1,0.3-0.2,0.4-0.4c0.1-0.3,0.2-1,0.2-2.1h-3.7v4.2h4.8v0.9c-0.3,1.4-0.7,2.7-1.4,3.7
					c0.6,0.6,1.4,1.2,2.2,1.7l-0.5,0.9c-0.9-0.5-1.6-1.1-2.3-1.7c-0.6,0.7-1.3,1.3-2.2,1.7l-0.5-0.8c0.8-0.4,1.5-1,2-1.7
					c-0.9-1.1-1.5-2.3-1.8-3.7H148.8z M150-257.8c0.3,1.1,0.8,2,1.5,2.9c0.5-0.8,0.9-1.8,1.1-2.9H150z"/>
				<path fill="#444444" d="M160.8-264.4c-0.1,0.3-0.3,0.7-0.5,1.1h6.1v0.8c-0.9,1-2,1.9-3.3,2.6c1.6,0.7,3.4,1.1,5.3,1.3l-0.5,0.9
					c-2.2-0.3-4.2-0.8-5.9-1.7c-1.7,0.8-3.7,1.4-6,1.7l-0.5-1c2-0.3,3.8-0.7,5.3-1.3c-0.8-0.4-1.5-1-2.2-1.6
					c-0.6,0.5-1.1,0.9-1.8,1.3l-0.6-0.8c1.7-1,2.8-2.2,3.4-3.5L160.8-264.4z M162.2-258.3c0,0.5,0,1-0.1,1.6h4.9
					c0,2.4-0.2,3.8-0.6,4.2c-0.4,0.5-1.1,0.7-2.1,0.7c-0.2,0-0.8,0-1.6-0.1l-0.3-0.9l1.7,0.1c0.8,0,1.4-0.2,1.6-0.5
					c0.2-0.3,0.3-1.2,0.4-2.6h-4.1c-0.1,0.3-0.3,0.7-0.4,1c-0.7,1.3-2.4,2.3-4.9,3.1l-0.7-0.8c2.3-0.7,3.8-1.5,4.5-2.5
					c0.2-0.3,0.3-0.6,0.4-0.8h-4.2v-0.9h4.5c0.1-0.5,0.2-1,0.2-1.6H162.2z M165-262.4h-5.3l-0.2,0.2c0.8,0.7,1.6,1.3,2.6,1.8
					C163.1-260.9,164.1-261.6,165-262.4z"/>
				<path fill="#444444" d="M169.8-259.2h4.7c0.3-0.3,0.5-0.7,0.6-1.1l1,0.1c-0.1,0.3-0.3,0.6-0.5,1h3.6c-0.2-0.4-0.4-0.7-0.6-1
					l0.9-0.3c0.3,0.4,0.5,0.8,0.8,1.2h1.9v0.9h-3.8c0.9,0.9,2.3,1.5,4.1,2l-0.4,0.9c-0.2-0.1-0.5-0.2-1-0.3v4.1h-0.9v-0.6h-2.6v0.6
					h-0.9v-4.4h3.7c-1.3-0.6-2.3-1.3-3-2.2h-2.4c-0.8,0.9-1.8,1.6-3.1,2.2h3.5v4.4h-0.9v-0.6H172v0.6h-0.9v-4.1l-1.1,0.4l-0.5-0.8
					c1.8-0.5,3.2-1.2,4.1-2.1h-3.9V-259.2z M170.9-264h4.3v3.4h-4.3V-264z M174.3-261.4v-1.7h-2.4v1.7H174.3z M172-253.1h2.4v-2.1
					H172V-253.1z M176.8-264h4.4v3.4h-4.4V-264z M177.6-253.1h2.6v-2.1h-2.6V-253.1z M180.2-261.4v-1.7h-2.5v1.7H180.2z"/>
			</g>
		</g>
	</g>
	<g id="RectEndPoint2_1_" transform="translate(314,408)">
		<rect x="81.6" y="-274" opacity="0.6" fill="#BBBBBB" enable-background="new    " width="138" height="50"/>
		<rect x="79.6" y="-276" fill="#FFFFFF" stroke="#E5E5E5" width="138" height="50"/>
		<g transform="translate(20 9)">
			<g>
				<g>
					<path fill="#878787" d="M91.6-270.9c2.2,0,4,1.8,4,4c0,2.2-1.8,4-4,4s-4-1.8-4-4C87.6-269.1,89.4-270.9,91.6-270.9 M91.6-272.9
						c-3.3,0-6,2.7-6,6s2.7,6,6,6s6-2.7,6-6S94.9-272.9,91.6-272.9z"/>
					<path fill="#878787" d="M95.6-256.9c3.3,0,6,2.7,6,6v1h-20v-1c0-3.3,2.7-6,6-6H95.6 M95.6-258.9h-8c-4.4,0-8,3.6-8,8v3h24v-3
						C103.6-255.3,100-258.9,95.6-258.9z"/>
					<path fill="#878787" d="M104.6-258.9h-3c0.8,0.6,1.4,1.2,2,2h1c2.2,0,4,1.8,4,4v1h-3c0,0.3,0,0.7,0,1v1h5v-3
						C110.6-256.2,107.9-258.9,104.6-258.9z"/>
					<path fill="#878787" d="M100.6-271.9c-0.8,0-1.6,0.2-2.3,0.6c0.4,0.6,0.7,1.2,0.9,1.8c1.4-0.8,3.3-0.3,4.1,1.1
						c0.8,1.4,0.3,3.3-1.1,4.1c-0.9,0.5-2,0.5-3,0c-0.2,0.6-0.5,1.2-0.9,1.8c0.7,0.4,1.5,0.6,2.3,0.6c2.8,0,5-2.2,5-5
						C105.6-269.6,103.3-271.9,100.6-271.9z"/>
				</g>
			</g>
			<g enable-background="new    ">
				<path fill="#444444" d="M125.5-266.1c-0.7,1.8-1.4,3.2-2.1,4.2c0.5-0.1,1.1-0.2,1.8-0.3c0.2-0.3,0.5-0.9,0.9-1.8l0.9,0.3
					c-1.3,2.6-2.3,4.4-3.1,5.4c0.8-0.2,1.6-0.5,2.4-0.8v0.9c-1.3,0.5-2.4,0.8-3.5,1l-0.3-0.9c0.2-0.1,0.3-0.2,0.4-0.3
					c0.5-0.6,1.1-1.5,1.9-2.9c-1,0.2-1.8,0.3-2.3,0.4l-0.2-0.9c0.2-0.1,0.3-0.2,0.4-0.4c0.7-1.2,1.4-2.7,2-4.3L125.5-266.1z
					 M126.8-255.4c-1.3,0.5-2.7,0.9-4.4,1.2l-0.1-1.1c1.7-0.3,3.2-0.7,4.5-1.1L126.8-255.4L126.8-255.4z M130.3-266.4
					c-0.1,0.4-0.3,0.9-0.4,1.2h4v0.8c-0.6,1.1-1.3,2.1-2.2,3c1,0.7,2.1,1.3,3.3,1.8l-0.5,0.9c-1.3-0.6-2.4-1.2-3.5-2.1
					c-1.2,1-2.5,1.7-4,2.2l-0.5-0.9c1.4-0.4,2.7-1.1,3.8-2c-0.6-0.5-1.1-1-1.7-1.7c-0.3,0.4-0.7,0.9-1.2,1.3l-0.6-0.8
					c1.2-1.1,2-2.4,2.5-4L130.3-266.4z M128-256.6c2.3,0.6,4.3,1.3,6.1,2.1l-0.5,0.8c-2-0.9-4.1-1.6-6.2-2.1L128-256.6z
					 M129.6-258.9c1.4,0.4,2.7,1,3.8,1.6l-0.5,0.8c-1.2-0.7-2.5-1.2-3.9-1.6L129.6-258.9z M132.8-264.1h-3.3l-0.3,0.5
					c0.5,0.6,1.1,1.2,1.8,1.8C131.6-262.5,132.2-263.3,132.8-264.1z"/>
				<path fill="#444444" d="M140.6-255.7c-1.2,0.5-2.6,0.9-4.2,1.2l-0.3-1c0.8-0.1,1.6-0.3,2.4-0.5c0.3-2,0.6-4.2,0.7-6.5l0.9,0.1
					c-0.2,2.1-0.4,4.1-0.8,6.1c0.9-0.3,1.2-0.4,1.1-0.4L140.6-255.7L140.6-255.7z M136.2-264.1h1.8c-0.2-0.8-0.4-1.5-0.6-2l1-0.2
					c0.2,0.6,0.4,1.3,0.6,2.2h1.6v1h-4.4V-264.1z M137.3-262.3c0.3,1.6,0.6,3.4,0.8,5.5l-0.8,0.2c-0.2-1.9-0.5-3.7-0.8-5.5
					L137.3-262.3z M140.9-261.7h8v0.9h-3.7c-0.1,0.4-0.2,0.9-0.4,1.3h3.7v4.7c0,0.7-0.3,1-0.9,1H147l-0.2-0.9l0.6,0
					c0.2,0,0.3-0.1,0.3-0.4v-3.6h-1.3v4.6h-0.9v-4.6h-1.1v4.6h-0.9v-4.6h-1.2v4.8h-0.9v-5.7h2.5c0.2-0.5,0.3-0.9,0.4-1.3h-3.3
					V-261.7z M147.2-263.7v-2.1h1v3h-6.7v-3h1v2.1h1.9v-2.7h1v2.7C145.3-263.7,147.2-263.7,147.2-263.7z"/>
				<path fill="#444444" d="M152.5-258.2c-0.2,1.8-0.7,3.3-1.6,4.5l-0.8-0.7c0.9-1.3,1.4-2.8,1.4-4.7v-6.7H162v10.5
					c0,1-0.5,1.5-1.5,1.5h-1.6l-0.3-1c0.7,0,1.3,0.1,1.6,0.1c0.5,0,0.8-0.3,0.8-0.9v-2.4h-3.8v4.1h-1v-4.1L152.5-258.2L152.5-258.2z
					 M156.1-264.9h-3.6v2.4h3.6V-264.9z M152.6-261.6v2.5h3.6v-2.5H152.6z M161-262.5v-2.4h-3.8v2.4H161z M161-259.1v-2.5h-3.8v2.5
					H161z"/>
				<path fill="#444444" d="M166.8-260c-0.1,2.5-0.7,4.7-2,6.5l-0.7-0.7c1.1-1.6,1.7-3.6,1.7-6.1v-4.4h4.6c-0.3-0.6-0.5-1.2-0.8-1.6
					l1.1-0.2c0.3,0.5,0.5,1.1,0.8,1.8h4.4v4.7C175.8-260,166.8-260,166.8-260z M174.8-263.7h-8v2.7h8V-263.7z"/>
			</g>
		</g>
	</g>
	<g id="RectEndPoint3_1_" transform="translate(314,344)">
		<rect x="81.6" y="-272" opacity="0.6" fill="#BBBBBB" enable-background="new    " width="138" height="50"/>
		<rect x="79.6" y="-274" fill="#FFFFFF" stroke="#E5E5E5" width="138" height="50"/>
		<g transform="translate(20 9)">
			<g>
				<g>
					<path fill="#878787" d="M91.6-268.9c2.2,0,4,1.8,4,4c0,2.2-1.8,4-4,4s-4-1.8-4-4C87.6-267.1,89.4-268.9,91.6-268.9 M91.6-270.9
						c-3.3,0-6,2.7-6,6s2.7,6,6,6s6-2.7,6-6S94.9-270.9,91.6-270.9z"/>
					<path fill="#878787" d="M95.6-254.9c3.3,0,6,2.7,6,6v1h-20v-1c0-3.3,2.7-6,6-6H95.6 M95.6-256.9h-8c-4.4,0-8,3.6-8,8v3h24v-3
						C103.6-253.3,100-256.9,95.6-256.9z"/>
					<path fill="#878787" d="M104.6-256.9h-3c0.8,0.6,1.4,1.2,2,2h1c2.2,0,4,1.8,4,4v1h-3c0,0.3,0,0.7,0,1v1h5v-3
						C110.6-254.2,107.9-256.9,104.6-256.9z"/>
					<path fill="#878787" d="M100.6-269.9c-0.8,0-1.6,0.2-2.3,0.6c0.4,0.6,0.7,1.2,0.9,1.8c1.4-0.8,3.3-0.3,4.1,1.1
						c0.8,1.4,0.3,3.3-1.1,4.1c-0.9,0.5-2,0.5-3,0c-0.2,0.6-0.5,1.2-0.9,1.8c0.7,0.4,1.5,0.6,2.3,0.6c2.8,0,5-2.2,5-5
						C105.6-267.6,103.3-269.9,100.6-269.9z"/>
				</g>
			</g>
			<g enable-background="new    ">
				<path fill="#444444" d="M125.5-264.1c-0.7,1.8-1.4,3.2-2.1,4.2c0.5-0.1,1.1-0.2,1.8-0.3c0.2-0.3,0.5-0.9,0.9-1.8l0.9,0.3
					c-1.3,2.6-2.3,4.4-3.1,5.4c0.8-0.2,1.6-0.5,2.4-0.8v0.9c-1.3,0.5-2.4,0.8-3.5,1l-0.3-0.9c0.2-0.1,0.3-0.2,0.4-0.3
					c0.5-0.6,1.1-1.5,1.9-2.9c-1,0.2-1.8,0.3-2.3,0.4l-0.2-0.9c0.2-0.1,0.3-0.2,0.4-0.4c0.7-1.2,1.4-2.7,2-4.3L125.5-264.1z
					 M126.8-253.4c-1.3,0.5-2.7,0.9-4.4,1.2l-0.1-1.1c1.7-0.3,3.2-0.7,4.5-1.1L126.8-253.4L126.8-253.4z M130.3-264.4
					c-0.1,0.4-0.3,0.9-0.4,1.2h4v0.8c-0.6,1.1-1.3,2.1-2.2,3c1,0.7,2.1,1.3,3.3,1.8l-0.5,0.9c-1.3-0.6-2.4-1.2-3.5-2.1
					c-1.2,1-2.5,1.7-4,2.2l-0.5-0.9c1.4-0.4,2.7-1.1,3.8-2c-0.6-0.5-1.1-1-1.7-1.7c-0.3,0.4-0.7,0.9-1.2,1.3l-0.6-0.8
					c1.2-1.1,2-2.4,2.5-4L130.3-264.4z M128-254.6c2.3,0.6,4.3,1.3,6.1,2.1l-0.5,0.8c-2-0.9-4.1-1.6-6.2-2.1L128-254.6z
					 M129.6-256.9c1.4,0.4,2.7,1,3.8,1.6l-0.5,0.8c-1.2-0.7-2.5-1.2-3.9-1.6L129.6-256.9z M132.8-262.1h-3.3l-0.3,0.5
					c0.5,0.6,1.1,1.2,1.8,1.8C131.6-260.5,132.2-261.3,132.8-262.1z"/>
				<path fill="#444444" d="M140.6-253.7c-1.2,0.5-2.6,0.9-4.2,1.2l-0.3-1c0.8-0.1,1.6-0.3,2.4-0.5c0.3-2,0.6-4.2,0.7-6.5l0.9,0.1
					c-0.2,2.1-0.4,4.1-0.8,6.1c0.9-0.3,1.2-0.4,1.1-0.4L140.6-253.7L140.6-253.7z M136.2-262.1h1.8c-0.2-0.8-0.4-1.5-0.6-2l1-0.2
					c0.2,0.6,0.4,1.3,0.6,2.2h1.6v1h-4.4V-262.1z M137.3-260.3c0.3,1.6,0.6,3.4,0.8,5.5l-0.8,0.2c-0.2-1.9-0.5-3.7-0.8-5.5
					L137.3-260.3z M140.9-259.7h8v0.9h-3.7c-0.1,0.4-0.2,0.9-0.4,1.3h3.7v4.7c0,0.7-0.3,1-0.9,1H147l-0.2-0.9l0.6,0
					c0.2,0,0.3-0.1,0.3-0.4v-3.6h-1.3v4.6h-0.9v-4.6h-1.1v4.6h-0.9v-4.6h-1.2v4.8h-0.9v-5.7h2.5c0.2-0.5,0.3-0.9,0.4-1.3h-3.3
					V-259.7z M147.2-261.7v-2.1h1v3h-6.7v-3h1v2.1h1.9v-2.7h1v2.7H147.2z"/>
				<path fill="#444444" d="M152.5-256.2c-0.2,1.8-0.7,3.3-1.6,4.5l-0.8-0.7c0.9-1.3,1.4-2.8,1.4-4.7v-6.7H162v10.5
					c0,1-0.5,1.5-1.5,1.5h-1.6l-0.3-1c0.7,0,1.3,0.1,1.6,0.1c0.5,0,0.8-0.3,0.8-0.9v-2.4h-3.8v4.1h-1v-4.1L152.5-256.2L152.5-256.2z
					 M156.1-262.9h-3.6v2.4h3.6V-262.9z M152.6-259.6v2.5h3.6v-2.5H152.6z M161-260.5v-2.4h-3.8v2.4H161z M161-257.1v-2.5h-3.8v2.5
					H161z"/>
				<path fill="#444444" d="M166.8-258c-0.1,2.5-0.7,4.7-2,6.5l-0.7-0.7c1.1-1.6,1.7-3.6,1.7-6.1v-4.4h4.6c-0.3-0.6-0.5-1.2-0.8-1.6
					l1.1-0.2c0.3,0.5,0.5,1.1,0.8,1.8h4.4v4.7C175.8-258,166.8-258,166.8-258z M174.8-261.7h-8v2.7h8V-261.7z"/>
			</g>
		</g>
	</g>
	<g id="RectEndPoint4_1_" transform="translate(314,278)">
		<rect x="81.6" y="-268" opacity="0.6" fill="#BBBBBB" enable-background="new    " width="138" height="50"/>
		<rect x="79.6" y="-270" fill="#FFFFFF" stroke="#E5E5E5" width="138" height="50"/>
		<g transform="translate(20 9)">
			<g>
				<g>
					<path fill="#878787" d="M91.6-264.9c2.2,0,4,1.8,4,4c0,2.2-1.8,4-4,4s-4-1.8-4-4C87.6-263.1,89.4-264.9,91.6-264.9 M91.6-266.9
						c-3.3,0-6,2.7-6,6s2.7,6,6,6s6-2.7,6-6S94.9-266.9,91.6-266.9z"/>
					<path fill="#878787" d="M95.6-250.9c3.3,0,6,2.7,6,6v1h-20v-1c0-3.3,2.7-6,6-6H95.6 M95.6-252.9h-8c-4.4,0-8,3.6-8,8v3h24v-3
						C103.6-249.3,100-252.9,95.6-252.9z"/>
					<path fill="#878787" d="M104.6-252.9h-3c0.8,0.6,1.4,1.2,2,2h1c2.2,0,4,1.8,4,4v1h-3c0,0.3,0,0.7,0,1v1h5v-3
						C110.6-250.2,107.9-252.9,104.6-252.9z"/>
					<path fill="#878787" d="M100.6-265.9c-0.8,0-1.6,0.2-2.3,0.6c0.4,0.6,0.7,1.2,0.9,1.8c1.4-0.8,3.3-0.3,4.1,1.1
						c0.8,1.4,0.3,3.3-1.1,4.1c-0.9,0.5-2,0.5-3,0c-0.2,0.6-0.5,1.2-0.9,1.8c0.7,0.4,1.5,0.6,2.3,0.6c2.8,0,5-2.2,5-5
						C105.6-263.6,103.3-265.9,100.6-265.9z"/>
				</g>
			</g>
			<g enable-background="new    ">
				<path fill="#444444" d="M125.5-260.1c-0.7,1.8-1.4,3.2-2.1,4.2c0.5-0.1,1.1-0.2,1.8-0.3c0.2-0.3,0.5-0.9,0.9-1.8l0.9,0.3
					c-1.3,2.6-2.3,4.4-3.1,5.4c0.8-0.2,1.6-0.5,2.4-0.8v0.9c-1.3,0.5-2.4,0.8-3.5,1l-0.3-0.9c0.2-0.1,0.3-0.2,0.4-0.3
					c0.5-0.6,1.1-1.5,1.9-2.9c-1,0.2-1.8,0.3-2.3,0.4l-0.2-0.9c0.2-0.1,0.3-0.2,0.4-0.4c0.7-1.2,1.4-2.7,2-4.3L125.5-260.1z
					 M126.8-249.4c-1.3,0.5-2.7,0.9-4.4,1.2l-0.1-1.1c1.7-0.3,3.2-0.7,4.5-1.1L126.8-249.4L126.8-249.4z M130.3-260.4
					c-0.1,0.4-0.3,0.9-0.4,1.2h4v0.8c-0.6,1.1-1.3,2.1-2.2,3c1,0.7,2.1,1.3,3.3,1.8l-0.5,0.9c-1.3-0.6-2.4-1.2-3.5-2.1
					c-1.2,1-2.5,1.7-4,2.2l-0.5-0.9c1.4-0.4,2.7-1.1,3.8-2c-0.6-0.5-1.1-1-1.7-1.7c-0.3,0.4-0.7,0.9-1.2,1.3l-0.6-0.8
					c1.2-1.1,2-2.4,2.5-4L130.3-260.4z M128-250.6c2.3,0.6,4.3,1.3,6.1,2.1l-0.5,0.8c-2-0.9-4.1-1.6-6.2-2.1L128-250.6z
					 M129.6-252.9c1.4,0.4,2.7,1,3.8,1.6l-0.5,0.8c-1.2-0.7-2.5-1.2-3.9-1.6L129.6-252.9z M132.8-258.1h-3.3l-0.3,0.5
					c0.5,0.6,1.1,1.2,1.8,1.8C131.6-256.5,132.2-257.3,132.8-258.1z"/>
				<path fill="#444444" d="M140.6-249.7c-1.2,0.5-2.6,0.9-4.2,1.2l-0.3-1c0.8-0.1,1.6-0.3,2.4-0.5c0.3-2,0.6-4.2,0.7-6.5l0.9,0.1
					c-0.2,2.1-0.4,4.1-0.8,6.1c0.9-0.3,1.2-0.4,1.1-0.4L140.6-249.7L140.6-249.7z M136.2-258.1h1.8c-0.2-0.8-0.4-1.5-0.6-2l1-0.2
					c0.2,0.6,0.4,1.3,0.6,2.2h1.6v1h-4.4V-258.1z M137.3-256.3c0.3,1.6,0.6,3.4,0.8,5.5l-0.8,0.2c-0.2-1.9-0.5-3.7-0.8-5.5
					L137.3-256.3z M140.9-255.7h8v0.9h-3.7c-0.1,0.4-0.2,0.9-0.4,1.3h3.7v4.7c0,0.7-0.3,1-0.9,1H147l-0.2-0.9l0.6,0
					c0.2,0,0.3-0.1,0.3-0.4v-3.6h-1.3v4.6h-0.9v-4.6h-1.1v4.6h-0.9v-4.6h-1.2v4.8h-0.9v-5.7h2.5c0.2-0.5,0.3-0.9,0.4-1.3h-3.3
					V-255.7z M147.2-257.7v-2.1h1v3h-6.7v-3h1v2.1h1.9v-2.7h1v2.7H147.2z"/>
				<path fill="#444444" d="M152.5-252.2c-0.2,1.8-0.7,3.3-1.6,4.5l-0.8-0.7c0.9-1.3,1.4-2.8,1.4-4.7v-6.7H162v10.5
					c0,1-0.5,1.5-1.5,1.5h-1.6l-0.3-1c0.7,0,1.3,0.1,1.6,0.1c0.5,0,0.8-0.3,0.8-0.9v-2.4h-3.8v4.1h-1v-4.1L152.5-252.2L152.5-252.2z
					 M156.1-258.9h-3.6v2.4h3.6V-258.9z M152.6-255.6v2.4h3.6v-2.4H152.6z M161-256.5v-2.4h-3.8v2.4H161z M161-253.1v-2.4h-3.8v2.4
					H161z"/>
				<path fill="#444444" d="M166.8-254c-0.1,2.5-0.7,4.7-2,6.5l-0.7-0.7c1.1-1.6,1.7-3.6,1.7-6.1v-4.4h4.6c-0.3-0.6-0.5-1.2-0.8-1.6
					l1.1-0.2c0.3,0.5,0.5,1.1,0.8,1.8h4.4v4.7C175.8-254,166.8-254,166.8-254z M174.8-257.7h-8v2.7h8V-257.7z"/>
			</g>
		</g>
	</g>
	<g transform="translate(0 0)">
		<g enable-background="new    ">
			<path fill="#878787" d="M272,88.6l-0.2-1c0.5,0,0.9,0.1,1.1,0.1c0.3,0,0.5-0.1,0.5-0.4v-3.5c-0.6,0.2-1.1,0.4-1.6,0.6l-0.2-1
				c0.6-0.1,1.2-0.3,1.9-0.6v-3.2h-1.7v-1h1.7v-2.6h1v2.6h1.4v1h-1.4v2.7c0.5-0.3,0.9-0.5,1.2-0.6v1c-0.3,0.1-0.7,0.3-1.2,0.6v4.2
				c0,0.7-0.4,1.1-1.2,1.1H272z M276,82.2h8v0.9h-3.5v1.6h2.9v0.9h-2.9v1.8c0.6,0.1,1.2,0.1,2,0.1c0.7,0,1.3,0,1.9-0.1l-0.3,1
				l-1.5,0c-1.8,0-3.1-0.2-3.8-0.5c-0.5-0.3-1-0.8-1.4-1.6c-0.3,0.9-0.8,1.7-1.4,2.4l-0.7-0.6c1.1-1.3,1.7-2.7,1.8-4.3l0.9,0.1
				c0,0.5-0.1,1-0.2,1.5c0.4,0.9,1,1.5,1.6,1.8l0.3,0.1v-4.1H276L276,82.2L276,82.2z M277,76.4h6.1v4.9H277V76.4z M278,78.4h4.1
				v-1.2H278V78.4z M282.1,80.4v-1.2H278v1.2H282.1z"/>
			<path fill="#878787" d="M292.7,76.8c-0.8,0.3-1.6,0.6-2.5,0.9v3.5h3.8V76h1v5.2h3.2v1h-3.2v6.5h-1v-6.5h-3.8
				c-0.2,3-1.3,5.1-3.5,6.5l-0.8-0.7c2-1.3,3.1-3.2,3.2-5.9h-3.4v-1h3.4V78c-0.8,0.2-1.8,0.3-2.8,0.4l-0.3-0.9
				c2.5-0.2,4.5-0.7,6.2-1.5L292.7,76.8z"/>
			<path fill="#878787" d="M300.2,79.4c0.9,0.7,1.6,1.5,2.2,2.2l-0.7,0.7c-0.5-0.7-1.3-1.4-2.2-2.2L300.2,79.4z M300.5,76.1
				c0.9,0.7,1.6,1.5,2.3,2.2L302,79c-0.5-0.7-1.3-1.5-2.3-2.3L300.5,76.1z M302.8,83.6c-0.6,1.8-1.3,3.5-2.1,5l-0.9-0.4
				c0.8-1.6,1.5-3.3,2.1-5L302.8,83.6z M303.1,78.2h2c-0.3-0.8-0.5-1.5-0.7-2.1l1-0.2c0.2,0.5,0.4,1.3,0.7,2.3h1.8v1h-0.6
				c-0.2,1.8-0.6,3.4-1,4.6c0.7,1.2,1.3,2.3,1.7,3.2l-0.8,0.6c-0.4-0.9-0.9-1.8-1.3-2.6c-0.7,1.4-1.6,2.7-2.9,3.8l-0.6-0.8
				c1.2-1.1,2.1-2.3,2.7-3.6c0.1-0.3,0.2-0.4,0.2-0.5c-0.5-0.9-1.1-1.9-1.9-3l0.8-0.5c0.5,0.8,1,1.5,1.5,2.3c0.3-1,0.5-2.2,0.7-3.5
				h-3.1L303.1,78.2L303.1,78.2z M308.7,88.6l-0.2-1c0.8,0,1.4,0.1,1.7,0.1c0.4,0,0.6-0.2,0.6-0.7V75.9h1v11.4
				c0,0.9-0.4,1.3-1.2,1.3L308.7,88.6L308.7,88.6z M308.6,77.1h0.9v8.8h-0.9V77.1z"/>
			<path fill="#878787" d="M319.2,82.9h1v1c-0.1,1.4-0.5,2.4-1.4,3.3c-0.9,0.7-2.3,1.3-4.3,1.8l-0.6-0.9c2-0.4,3.4-0.9,4.2-1.5
				c0.7-0.7,1.1-1.5,1.2-2.6L319.2,82.9L319.2,82.9z M314.6,76.5h1v3.6h-1V76.5z M323.6,81v5h-1V82h-5.5V86h-1v-5L323.6,81L323.6,81
				z M317.4,75.9h1v4.6h-1V75.9z M321.5,77.9c-0.4,0.9-1,1.6-1.6,2.1l-0.8-0.7c1-0.9,1.7-2.1,2.1-3.5l1,0.3l-0.3,0.9h4.1v0.9H321.5z
				 M321.7,88.5c-0.9,0-1.3-0.4-1.3-1.3v-2.7h1V87c0,0.4,0.2,0.6,0.6,0.6h2.2c0.3,0,0.5-0.1,0.6-0.2c0.2-0.2,0.3-0.8,0.3-1.7
				l0.9,0.3c-0.1,1.2-0.3,1.9-0.6,2.2c-0.3,0.2-0.6,0.3-1.2,0.3L321.7,88.5L321.7,88.5z M322.7,78.3c0.8,0.5,1.6,1,2.3,1.7l-0.6,0.7
				c-0.7-0.7-1.5-1.3-2.3-1.8L322.7,78.3z"/>
			<path fill="#878787" d="M336.9,88.5c-0.5,0-1.3,0-2.5,0c-0.9,0-1.6-0.1-2.2-0.3c-0.5-0.2-1-0.5-1.5-1c-0.2-0.2-0.4-0.4-0.5-0.4
				c-0.3,0-0.9,0.6-1.6,1.9l-0.8-0.7c0.7-1.2,1.4-1.9,1.9-2.1v-4.3h-2v-0.9h2.9V86c0.1,0.1,0.2,0.2,0.4,0.3c0.3,0.4,0.7,0.7,1.1,0.9
				c0.4,0.2,1.1,0.3,1.9,0.3c1,0,1.9,0,2.8,0c0.4,0,1.1,0,2,0c0.8,0,1.3,0,1.6-0.1l-0.2,1L336.9,88.5L336.9,88.5z M328.7,76.1
				c1,0.7,1.8,1.5,2.4,2.2l-0.7,0.7c-0.6-0.7-1.4-1.5-2.4-2.2L328.7,76.1z M331.9,77h3.6v-1.1h0.9V77h3.5V78h-3.5v1.2h3v3.6h-3V87
				h-0.9v-3.9c-0.7,1.3-1.8,2.3-3.3,3.2l-0.6-0.8c1.5-0.8,2.6-1.7,3.3-2.8h-2.4v-3.6h3V78h-3.6L331.9,77L331.9,77z M335.5,81.8V80
				h-2.1v1.8H335.5z M338.5,81.8V80h-2.1v1.8H338.5z M337.5,83.1c1,0.8,1.8,1.5,2.5,2.4l-0.7,0.7c-0.6-0.7-1.4-1.5-2.5-2.4
				L337.5,83.1z"/>
			<path fill="#878787" d="M343.8,80.5v1.1c-0.1,3-0.6,5.3-1.5,7.1l-0.8-0.7c0.8-1.6,1.2-3.7,1.3-6.5V77h5.4c-0.2-0.4-0.4-0.7-0.5-1
				l1.1-0.2c0.2,0.4,0.3,0.8,0.5,1.2h4.8v1h-10.2v1.6h2.4v-1.1h1v1.1h3.7v-1.1h1v1.1h2.2v0.9h-2.2v2.2h-5.7v-2.2L343.8,80.5
				L343.8,80.5z M344.6,83.6h8.2v0.7c-0.8,1-1.8,1.8-2.9,2.5c1.3,0.5,2.7,0.9,4.4,1.1l-0.4,0.9c-2-0.3-3.6-0.8-4.9-1.5
				c-1.4,0.7-3.1,1.2-4.9,1.5l-0.4-0.9c1.7-0.2,3.1-0.6,4.3-1.1c-1-0.7-1.9-1.4-2.5-2.3h-0.9L344.6,83.6L344.6,83.6z M346.5,84.5
				c0.6,0.7,1.4,1.3,2.4,1.8c1-0.5,1.8-1.1,2.6-1.8H346.5z M347.1,80.5v1.3h3.7v-1.3H347.1z"/>
		</g>
	</g>
	<g>
		<rect x="89.4" y="72" opacity="0.6" fill="#BBBBBB" enable-background="new    " width="179" height="50"/>
		<rect x="87.4" y="70" fill="#FFFFFF" stroke="#E5E5E5" width="179" height="50"/>
		<g enable-background="new    ">
			<path fill="#444444" d="M150.5,101.2l-0.2-1c0.4,0,0.8,0.1,1.1,0.1c0.4,0,0.7-0.2,0.7-0.7v-3.2c-0.6,0.2-1.2,0.4-1.8,0.6l-0.3-1
				c0.7-0.2,1.4-0.4,2.1-0.6v-3.3h-1.8v-1h1.8v-2.6h1v2.6h1.7v1H153V95c0.6-0.3,1.2-0.5,1.8-0.8v1c-0.7,0.3-1.3,0.6-1.8,0.8v3.9
				c0,0.9-0.4,1.3-1.3,1.3L150.5,101.2L150.5,101.2z M154.2,100.8c0.7-0.6,1.3-1.3,1.6-2.1c0.3-0.6,0.4-1.6,0.4-2.8V93h4.4v6.9
				c0,0.3,0.1,0.4,0.4,0.4h0.4c0.1,0,0.2,0,0.3-0.1c0.1,0,0.1-0.1,0.2-0.1c0.1-0.1,0.1-0.8,0.1-1.9l0.9,0.3c0,0.7,0,1.3-0.1,1.8
				c-0.1,0.4-0.2,0.6-0.4,0.8c-0.2,0.1-0.5,0.2-0.9,0.2H161c-0.9,0-1.3-0.4-1.3-1.2v-6.1h-2.5v2c0,1.2-0.2,2.3-0.5,3.1
				c-0.3,0.8-0.9,1.7-1.7,2.5L154.2,100.8z M155.1,90.4h3.1c-0.3-0.7-0.5-1.3-0.8-1.8l1-0.2c0.3,0.5,0.5,1.2,0.8,1.9h3v1h-7.1
				L155.1,90.4L155.1,90.4z"/>
			<path fill="#444444" d="M164.1,93h12.5v0.8h-12.5V93z M165.6,94.4h9.7V98h-4.4v0.8h4.7v0.7h-4.7v0.8h5.8v0.8h-12.5v-0.8h5.7v-0.8
				h-4.7v-0.7h4.7V98h-4.3V94.4z M165.9,88.8h9.1v3.5h-9.1V88.8z M166.5,95.9h3.4v-0.9h-3.4V95.9z M169.9,97.4v-0.9h-3.4v0.9H169.9z
				 M166.8,90.2h7.2v-0.8h-7.2V90.2z M174,91.6v-0.8h-7.2v0.8H174z M170.9,95.1v0.9h3.4v-0.9H170.9z M174.3,97.4v-0.9h-3.4v0.9
				H174.3z"/>
			<path fill="#444444" d="M178.3,94.6h5.9v-2c1.2-0.7,2.3-1.5,3.4-2.5h-7.9v-1h9.2v1c-1.1,1.1-2.4,2.1-3.8,3v1.5h5.3v1h-5.3v4.4
				c0,0.9-0.4,1.3-1.3,1.3h-2.4l-0.3-1c0.7,0,1.5,0,2.3,0c0.4,0,0.7-0.2,0.7-0.7v-4.1h-5.9V94.6z"/>
			<path fill="#444444" d="M198.7,92c1.7,1.3,3.8,2.3,6,3l-0.5,0.9c-2.3-0.8-4.3-1.8-5.9-3.1c-1.5,1.2-3.4,2.2-5.9,3l-0.5-0.9
				c2.4-0.8,4.4-1.8,6-3H198.7z M194.2,90.7c-0.4,0.7-0.8,1.4-1.2,1.9l-0.9-0.5c0.9-1.1,1.5-2.2,1.9-3.5l1,0.2
				c-0.1,0.2-0.2,0.6-0.4,1h3.7v0.9h-2c0.3,0.6,0.4,1,0.6,1.4l-0.9,0.3c-0.2-0.6-0.4-1.2-0.6-1.7H194.2z M202.7,96.8
				c-0.4,1.2-0.8,2.2-1.3,3.1h3v0.9h-11.8V100h7.7c0.5-0.9,1-2.1,1.4-3.4L202.7,96.8z M195,96.8c0.4,0.7,0.8,1.6,1.1,2.6l-0.9,0.2
				c-0.3-0.9-0.6-1.8-1.1-2.6L195,96.8z M194.8,95.1h7.3V96h-7.3V95.1z M198.2,96.5c0.3,0.9,0.6,1.8,0.9,2.8l-0.9,0.2
				c-0.2-1-0.5-1.9-0.9-2.7L198.2,96.5z M200.1,90.7c-0.3,0.5-0.5,1-0.8,1.4l-0.9-0.5c0.7-0.9,1.1-1.9,1.4-3l1,0.2
				c-0.1,0.2-0.2,0.6-0.3,1h4.1v0.9h-2.2c0.3,0.5,0.6,1,0.7,1.5l-0.9,0.3c-0.3-0.7-0.5-1.3-0.8-1.8L200.1,90.7L200.1,90.7z"/>
			<path fill="#444444" d="M210.4,100.5v0.8h-1v-4.9c-0.8,0.3-1.8,0.5-2.8,0.8l-0.5-1c2.5-0.5,4.5-1.2,6-2c-0.6-0.5-1.5-1.1-2.5-1.7
				l0.9-0.5c1.1,0.7,1.9,1.3,2.5,1.8c1.4-0.8,2.5-1.8,3.1-3h-5.2c-1,0.9-2.2,1.7-3.6,2.4l-0.7-0.9c2.4-1,4-2.3,4.8-3.8l1.1,0.1
				c-0.2,0.4-0.5,0.8-0.8,1.2h5.5v0.9c-1,1.9-2.8,3.5-5.4,4.7h5.8v5.9h-1v-0.8L210.4,100.5L210.4,100.5z M216.6,99.6v-3.2h-6.3v3.2
				H216.6z"/>
			<path fill="#444444" d="M222,96.6c-0.1,2-0.4,3.6-1,4.8l-0.8-0.7c0.5-1.3,0.8-2.9,0.9-4.8v-6.7h4.1v10.9c0,0.9-0.4,1.3-1.2,1.3
				h-1.1l-0.2-0.9c0.5,0,0.9,0.1,1.1,0.1c0.4,0,0.5-0.3,0.5-0.8v-3.1H222z M224.2,92.4v-2.4H222v2.4H224.2z M222,93.3v2.3h2.3v-2.3
				H222z M227.3,95.2v6.2h-1V89.1h5.7c0,1.7-0.1,2.9-0.3,3.4c-0.2,0.6-0.7,0.9-1.6,0.9H229l-0.3-0.9l0.9,0c0.3,0,0.6,0,0.7-0.1
				c0.2-0.1,0.3-0.2,0.4-0.4c0.1-0.3,0.2-1,0.2-2.1h-3.7v4.2h4.8v0.9c-0.3,1.4-0.7,2.7-1.4,3.7c0.6,0.6,1.4,1.2,2.2,1.7l-0.5,0.9
				c-0.9-0.5-1.6-1.1-2.3-1.7c-0.6,0.7-1.3,1.3-2.2,1.7l-0.5-0.8c0.8-0.4,1.5-1,2-1.7c-0.9-1.1-1.5-2.3-1.8-3.7L227.3,95.2
				L227.3,95.2z M228.5,95.2c0.3,1.1,0.8,2,1.5,2.9c0.5-0.8,0.9-1.8,1.1-2.9H228.5z"/>
			<path fill="#444444" d="M239.3,88.7c-0.1,0.3-0.3,0.7-0.5,1.1h6.1v0.8c-0.9,1-2,1.9-3.3,2.6c1.6,0.7,3.4,1.1,5.3,1.3l-0.5,0.9
				c-2.2-0.3-4.2-0.8-5.9-1.7c-1.7,0.8-3.7,1.4-6,1.7l-0.5-1c2-0.3,3.8-0.7,5.3-1.3c-0.8-0.4-1.5-1-2.2-1.6
				c-0.6,0.5-1.1,0.9-1.8,1.3l-0.6-0.8c1.7-1,2.8-2.1,3.4-3.5L239.3,88.7z M240.6,94.7c0,0.5,0,1-0.1,1.6h4.9c0,2.4-0.2,3.8-0.6,4.2
				c-0.4,0.5-1.1,0.7-2.1,0.7c-0.2,0-0.8,0-1.6-0.1l-0.3-0.9l1.7,0.1c0.8,0,1.4-0.2,1.6-0.5c0.2-0.3,0.3-1.2,0.4-2.6h-4.1
				c-0.1,0.3-0.3,0.7-0.4,1c-0.7,1.3-2.4,2.3-4.9,3.1l-0.7-0.8c2.3-0.7,3.8-1.5,4.5-2.5c0.2-0.3,0.3-0.6,0.4-0.8H235v-0.9h4.5
				c0.1-0.5,0.2-1,0.2-1.6H240.6z M243.4,90.7H238l-0.2,0.2c0.8,0.7,1.6,1.3,2.6,1.8C241.6,92.1,242.5,91.5,243.4,90.7z"/>
		</g>
		<g>
			<g>
				<path fill="#00A4FF" d="M140.4,95.8l-8-14h-13v2h12l6.7,12l-5.6,10c0,0-0.1,0-0.1,0c-1.1,0-2,0.9-2,2s0.9,2,2,2s2-0.9,2-2
					c0-0.4-0.1-0.8-0.3-1.1L140.4,95.8z M110.7,95.8l5.1-9.2c0.2,0.1,0.4,0.2,0.6,0.2c1.1,0,2-1.9,2-3s-0.9-2-2-2s-2,0.9-2,2
					c0,0.4,0.1,0.8,0.3,1.2l-6.3,10.8l8,14h13v-2h-12L110.7,95.8z M118.4,97.2c0,0,0,5.2,6,6.6c6-1.4,6-6.6,6-6.6v-2.4h-2v2.3
					c0,0,0,3.7-4,4.8c-4-1-4-4.8-4-4.8v-5.3h4v-2h-6L118.4,97.2L118.4,97.2z M124.6,97.1l6.1-6.1l-1.4-1.4l-6.1,6.1L124.6,97.1z"/>
			</g>
		</g>
	</g>
	<g id="Link11" transform="translate(0,0)">
		<path fill="none" stroke="#888888" d="M267,94.5h91.1l0,0h29"/>
		<g transform="translate(0.5, 0)">
			<polygon fill="#888888" points="382.1,99 388.1,94.5 382.1,90 			"/>
		</g>
		<path fill="none" stroke="#FF0000" stroke-width="15" stroke-opacity="0" d="M358.1,94.5L358.1,94.5"/>
		<path fill="none" stroke="#FF0000" stroke-width="15" stroke-opacity="0" d="M358.1,94.5h29"/>
	</g>
	<g id="Link12" transform="translate(0,0)">
		<path fill="none" stroke="#888888" d="M267,94.5h91.1v-61h29"/>
		<g transform="translate(0.5, 0)">
			<polygon fill="#888888" points="382.1,38 388.1,33.5 382.1,29 			"/>
		</g>
		<path fill="none" stroke="#FF0000" stroke-width="15" stroke-opacity="0" d="M358.1,94.5"/>
		<path fill="none" stroke="#FF0000" stroke-width="15" stroke-opacity="0" d="M358.1,94.5v-61"/>
		<path fill="none" stroke="#FF0000" stroke-width="15" stroke-opacity="0" d="M358.1,33.5h29"/>
	</g>
	<g id="Link13" transform="translate(0,0)">
		<path fill="none" stroke="#888888" d="M267,94.5h91.1v61h29"/>
		<g transform="translate(0.5, 0)">
			<polygon fill="#888888" points="382.1,160 388.1,155.5 382.1,151 			"/>
		</g>
		<path fill="none" stroke="#FF0000" stroke-width="15" stroke-opacity="0" d="M358.1,94.5v61"/>
		<path fill="none" stroke="#FF0000" stroke-width="15" stroke-opacity="0" d="M358.1,155.5h29"/>
	</g>
	<g id="Link14_1_" transform="translate(0,0)">
		<path fill="none" stroke="#888888" d="M532.1,94.5h30l0,0h29"/>
		<g transform="translate(0.5, 0)">
			<polygon fill="#888888" points="586.1,99 592.1,94.5 586.1,90 			"/>
		</g>
		<path fill="none" stroke="#FF0000" stroke-width="15" stroke-opacity="0" d="M532.6,94.5h29.5"/>
		<path fill="none" stroke="#FF0000" stroke-width="15" stroke-opacity="0" d="M562.1,94.5L562.1,94.5"/>
		<path fill="none" stroke="#FF0000" stroke-width="15" stroke-opacity="0" d="M562.1,94.5h29"/>
	</g>
	<g id="Link15_1_" transform="translate(0,0)">
		<path fill="none" stroke="#888888" d="M532.1,28.5h30v66h29"/>
		<g transform="translate(0.5, 0)">
			<polygon fill="#888888" points="586.1,99 592.1,94.5 586.1,90 			"/>
		</g>
		<path fill="none" stroke="#FF0000" stroke-width="15" stroke-opacity="0" d="M532.1,28.5h30"/>
		<path fill="none" stroke="#FF0000" stroke-width="15" stroke-opacity="0" d="M562.1,28.5v66"/>
		<path fill="none" stroke="#FF0000" stroke-width="15" stroke-opacity="0" d="M562.1,94.5h29"/>
	</g>
	<g id="Link16" transform="translate(0,0)">
		<path fill="none" stroke="#888888" d="M532.1,158.5h30v-64h29"/>
		<g transform="translate(0.5, 0)">
			<polygon fill="#888888" points="586.1,99 592.1,94.5 586.1,90 			"/>
		</g>
		<path fill="none" stroke="#FF0000" stroke-width="15" stroke-opacity="0" d="M532.8,158.5h29.3"/>
		<path fill="none" stroke="#FF0000" stroke-width="15" stroke-opacity="0" d="M562.1,158.5v-64"/>
		<path fill="none" stroke="#FF0000" stroke-width="15" stroke-opacity="0" d="M562.1,94.5h29"/>
	</g>
</g>
</svg>
