<?xml version="1.0" encoding="utf-8"?>
<!-- Generator: Adobe Illustrator 22.0.1, SVG Export Plug-In . SVG Version: 6.00 Build 0)  -->
<svg version="1.1" id="图层_1" xmlns="http://www.w3.org/2000/svg" xmlns:xlink="http://www.w3.org/1999/xlink" x="0px" y="0px"
	 width="48px" height="48px" viewBox="0 0 48 48" style="enable-background:new 0 0 48 48;" xml:space="preserve">
<style type="text/css">
	.st0{fill:#7C848E;}
</style>
<g>
	<path class="st0" d="M4,1v26.8C4,39.3,24,47,24,47s20-7.7,20-19.2V1H4z M42,27.8c0,7.9-12.4,14.7-18,17c-5.6-2.3-18-9.1-18-17.1V3
		h36V27.8z"/>
	<path class="st0" d="M32,18h-2v-2c0-3.3-2.7-6-6-6s-6,2.7-6,6v2h-2v13h16V18z M20,16c0-2.2,1.8-4,4-4s4,1.8,4,4v2h-8V16z M30,29H18
		v-9h12V29z"/>
	<polygon class="st0" points="23,27 25,27 25,24 26,24 26,22 22,22 22,24 23,24 	"/>
</g>
</svg>
