<?xml version="1.0" encoding="utf-8"?>
<!-- Generator: Adobe Illustrator 19.0.0, SVG Export Plug-In . SVG Version: 6.00 Build 0)  -->
<svg version="1.1" id="图层_1" xmlns="http://www.w3.org/2000/svg" xmlns:xlink="http://www.w3.org/1999/xlink" x="0px" y="0px"
	 viewBox="0 0 48 48" style="enable-background:new 0 0 48 48;" xml:space="preserve">
<style type="text/css">
	.st0{fill:#00A4FF;}
</style>
<g id="XMLID_2_">
	<g id="XMLID_77_">
		<path id="XMLID_78_" class="st0" d="M5,2c0,0,0,11.8,0,23.9C5,38,24,46,24,46s19-8,19-20c0-12,0-24,0-24H5z M41,26
			c0,9.2-13.6,16.2-17,17.8c-3.4-1.6-17-8.6-17-17.9V4h34V26z M32,19h-1v-2c0-4-3.1-7-7-7c-3.9,0-7,3-7,7v2h-1v12h16V19z M19,17
			c0-3,2.2-5,5-5c2.8,0,5,2,5,5v2H19V17z M30,29H18v-8h12V29z"/>
	</g>
</g>
</svg>
