<?xml version="1.0" encoding="utf-8"?>
<!-- Generator: Adobe Illustrator 19.0.0, SVG Export Plug-In . SVG Version: 6.00 Build 0)  -->
<svg version="1.1" id="图层_1" xmlns="http://www.w3.org/2000/svg" xmlns:xlink="http://www.w3.org/1999/xlink" x="0px" y="0px"
	 viewBox="0 0 48 48" style="enable-background:new 0 0 48 48;" xml:space="preserve">
<style type="text/css">
	.st0{fill:#7C848E;}
</style>
<g>
	<g>
		<path class="st0" d="M5,2c0,0,0,11.8,0,23.9C5,38,24,46,24,46s19-8,19-20c0-12,0-24,0-24H5z M41,26c0,9.2-13.6,16.2-17,17.8
			c-3.4-1.6-17-8.6-17-17.9V4h34V26z M24,26.1L24,26.1l8.5-8.5l-1.4-1.4l-8.5,8.5L16.9,19l-1.4,1.4l7.1,7.1L24,26.1z"/>
	</g>
</g>
</svg>
