<?xml version="1.0" encoding="utf-8"?>
<!-- Generator: Adobe Illustrator 18.0.0, SVG Export Plug-In . SVG Version: 6.00 Build 0)  -->
<!DOCTYPE svg PUBLIC "-//W3C//DTD SVG 1.1//EN" "http://www.w3.org/Graphics/SVG/1.1/DTD/svg11.dtd">
<svg version="1.1" id="svgwrapper_svg" xmlns="http://www.w3.org/2000/svg" xmlns:xlink="http://www.w3.org/1999/xlink" x="0px"
	 y="0px" width="830px" height="290px" viewBox="0 0 830 290" enable-background="new 0 0 830 290" xml:space="preserve">
<path display="none" fill="none" stroke="#999999" d="M131,21.3L131,21.3"/>
<g>
	<rect x="312.8" y="5.8" fill="#CEE3FF" width="147" height="217.3"/>
	<g transform="translate(10 10)">
		<g transform="translate(0 2)">
			<g>
				<path fill="#00A4FF" d="M320.3,2.8c-0.8,0-1.5,0.7-1.5,1.5c0,0.7,0.4,1.2,1,1.4v2.1h1V5.7c0.6-0.2,1-0.8,1-1.4
					C321.8,3.5,321.1,2.8,320.3,2.8z"/>
				<circle fill="#00A4FF" cx="320.3" cy="16.3" r="1.5"/>
				<path fill="#00A4FF" d="M316.1,6c-0.8-0.4-1.7-0.2-2.1,0.6c-0.4,0.7-0.2,1.6,0.6,2c0.1,0,0.2,0.1,0.2,0.1v2.1h1V8.7
					c0.1,0,0.3-0.1,0.4-0.2l1.7,1l0.5-0.9l-1.7-0.9C316.9,7,316.6,6.3,316.1,6z"/>
				<ellipse fill="#00A4FF" cx="325.3" cy="13.3" rx="1.5" ry="1.5"/>
				<ellipse fill="#00A4FF" cx="315.3" cy="13.3" rx="1.5" ry="1.5"/>
				<path fill="#00A4FF" d="M324.8,8.7v2.1h1V8.7c0.1,0,0.2-0.1,0.2-0.1c0.7-0.4,1-1.3,0.5-2c-0.4-0.7-1.3-1-2-0.5
					c-0.6,0.3-0.9,1-0.7,1.7l-1.6,0.8l0.5,0.9l1.7-1C324.5,8.6,324.7,8.7,324.8,8.7z"/>
				<path fill="#00A4FF" d="M320.3,8.8c-0.8,0-1.5,0.7-1.5,1.5c0,0.7,0.4,1.2,1,1.4v2.1h1v-2.1c0.6-0.2,1-0.8,1-1.4
					C321.8,9.5,321.1,8.8,320.3,8.8z"/>
			</g>
		</g>
		<g enable-background="new    ">
			<path fill="#00A4FF" d="M334.9,18.1l-0.2-1c0.4,0,0.8,0.1,1.1,0.1c0.4,0,0.7-0.2,0.7-0.7v-3.2c-0.6,0.2-1.2,0.4-1.8,0.6l-0.3-1
				c0.7-0.2,1.4-0.4,2.1-0.6V8.9h-1.8V8h1.8V5.4h1V8h1.7v1h-1.7v2.9c0.6-0.3,1.2-0.5,1.8-0.8v1c-0.7,0.3-1.3,0.6-1.8,0.8v3.9
				c0,0.9-0.4,1.3-1.3,1.3L334.9,18.1L334.9,18.1z M338.7,17.6c0.7-0.6,1.3-1.3,1.6-2.1c0.3-0.6,0.4-1.6,0.4-2.8V9.8h4.4v6.9
				c0,0.3,0.1,0.4,0.4,0.4h0.4c0.1,0,0.2,0,0.3-0.1c0.1,0,0.1-0.1,0.2-0.1c0.1-0.1,0.1-0.8,0.1-1.9l0.9,0.3c0,0.7,0,1.3-0.1,1.8
				c-0.1,0.4-0.2,0.6-0.4,0.8c-0.2,0.1-0.5,0.2-0.9,0.2h-0.5c-0.9,0-1.3-0.4-1.3-1.2v-6.1h-2.5v2c0,1.2-0.2,2.3-0.5,3.1
				c-0.3,0.8-0.9,1.7-1.7,2.5L338.7,17.6z M339.5,7.2h3.1c-0.3-0.7-0.5-1.3-0.8-1.8l1-0.2c0.3,0.5,0.5,1.2,0.8,1.9h3v1h-7.1V7.2
				L339.5,7.2z"/>
			<path fill="#00A4FF" d="M348.6,9.8h12.5v0.8h-12.5V9.8z M350,11.3h9.7v3.6h-4.4v0.8h4.7v0.7h-4.7v0.8h5.8V18h-12.5v-0.8h5.7v-0.8
				h-4.7v-0.7h4.7v-0.8H350V11.3z M350.3,5.6h9.1v3.5h-9.1V5.6z M350.9,12.8h3.4v-0.9h-3.4V12.8z M354.3,14.2v-0.9h-3.4v0.9H354.3z
				 M351.3,7.1h7.2V6.2h-7.2V7.1z M358.4,8.5V7.7h-7.2v0.8H358.4z M355.3,11.9v0.9h3.4v-0.9H355.3z M358.8,14.2v-0.9h-3.4v0.9H358.8
				z"/>
			<path fill="#00A4FF" d="M362.7,11.4h5.9v-2c1.2-0.7,2.3-1.5,3.4-2.5h-7.9V6h9.2v1c-1.1,1.1-2.4,2.1-3.8,3v1.5h5.3v1h-5.3v4.4
				c0,0.9-0.4,1.3-1.3,1.3h-2.4l-0.3-1c0.7,0,1.5,0,2.3,0c0.4,0,0.7-0.2,0.7-0.7v-4.1h-5.9L362.7,11.4L362.7,11.4z"/>
			<path fill="#00A4FF" d="M383.2,8.9c1.7,1.3,3.8,2.3,6,3l-0.5,0.9c-2.3-0.8-4.3-1.8-5.9-3.1c-1.5,1.2-3.4,2.2-5.9,3l-0.5-0.9
				c2.4-0.8,4.4-1.8,6-3L383.2,8.9L383.2,8.9z M378.6,7.5c-0.4,0.7-0.8,1.4-1.2,1.9l-0.9-0.5c0.9-1.1,1.5-2.2,1.9-3.5l1,0.2
				c-0.1,0.2-0.2,0.6-0.4,1h3.7v0.9h-2c0.3,0.6,0.4,1,0.6,1.4l-0.9,0.3c-0.2-0.6-0.4-1.2-0.6-1.7H378.6z M387.1,13.7
				c-0.4,1.2-0.8,2.2-1.3,3.1h3v0.9H377v-0.9h7.7c0.5-0.9,1-2.1,1.4-3.4L387.1,13.7z M379.4,13.6c0.4,0.7,0.8,1.6,1.1,2.6l-0.9,0.2
				c-0.3-0.9-0.6-1.8-1.1-2.6L379.4,13.6z M379.2,12h7.3v0.9h-7.3V12z M382.7,13.3c0.3,0.9,0.6,1.8,0.9,2.8l-0.9,0.2
				c-0.2-1-0.5-1.9-0.9-2.7L382.7,13.3z M384.5,7.5c-0.3,0.5-0.5,1-0.8,1.4l-0.9-0.5c0.7-0.9,1.1-1.9,1.4-3l1,0.2
				c-0.1,0.2-0.2,0.6-0.3,1h4.1v0.9h-2.2c0.3,0.5,0.6,1,0.7,1.5l-0.9,0.3c-0.3-0.7-0.5-1.3-0.8-1.8H384.5L384.5,7.5z"/>
			<path fill="#00A4FF" d="M394.8,17.4v0.8h-1v-4.9c-0.8,0.3-1.8,0.5-2.8,0.8l-0.5-1c2.5-0.5,4.5-1.2,6-2c-0.6-0.5-1.5-1.1-2.5-1.7
				l0.9-0.5c1.1,0.7,1.9,1.3,2.5,1.8c1.4-0.8,2.5-1.8,3.1-3h-5.2c-1,0.9-2.2,1.7-3.6,2.4l-0.7-1c2.4-1,4-2.3,4.8-3.8l1.1,0.1
				c-0.2,0.4-0.5,0.8-0.8,1.2h5.5v0.9c-1,1.9-2.8,3.5-5.4,4.7h5.8v5.9h-1v-0.8L394.8,17.4L394.8,17.4z M401.1,16.4v-3.2h-6.3v3.2
				H401.1z"/>
			<path fill="#00A4FF" d="M406.4,13.4c-0.1,2-0.4,3.6-1,4.8l-0.8-0.7c0.5-1.3,0.8-2.9,0.9-4.8V6h4.1v10.9c0,0.9-0.4,1.3-1.2,1.3
				h-1.1l-0.2-0.9c0.5,0,0.9,0.1,1.1,0.1c0.4,0,0.5-0.3,0.5-0.8v-3.1L406.4,13.4L406.4,13.4z M408.6,9.3V6.9h-2.3v2.4H408.6z
				 M406.4,10.2v2.3h2.3v-2.3H406.4z M411.7,12.1v6.2h-1V6h5.7c0,1.7-0.1,2.9-0.3,3.4c-0.2,0.6-0.7,0.9-1.6,0.9h-1.1l-0.3-0.9h0.9
				c0.3,0,0.6,0,0.7-0.1c0.2-0.1,0.3-0.2,0.4-0.4c0.1-0.3,0.2-1,0.2-2.1h-3.7V11h4.8v1c-0.3,1.4-0.7,2.7-1.4,3.7
				c0.6,0.6,1.4,1.2,2.2,1.7l-0.5,0.9c-0.9-0.5-1.6-1.1-2.3-1.7c-0.6,0.7-1.3,1.3-2.2,1.7l-0.5-0.8c0.8-0.4,1.5-1,2-1.7
				c-0.9-1.1-1.5-2.3-1.8-3.7H411.7L411.7,12.1z M412.9,12.1c0.3,1.1,0.8,2,1.5,2.9c0.5-0.8,0.9-1.8,1.1-2.9H412.9z"/>
			<path fill="#00A4FF" d="M423.7,5.5c-0.1,0.3-0.3,0.7-0.5,1.1h6.1v0.8c-0.9,1-2,1.9-3.3,2.6c1.6,0.7,3.4,1.1,5.3,1.3l-0.5,0.9
				c-2.2-0.3-4.2-0.8-5.9-1.7c-1.7,0.8-3.7,1.4-6,1.7l-0.5-1c2-0.3,3.8-0.7,5.3-1.3c-0.8-0.4-1.5-1-2.2-1.6
				c-0.6,0.5-1.1,0.9-1.8,1.3l-0.6-0.8c1.7-1,2.8-2.1,3.4-3.5L423.7,5.5z M425,11.6c0,0.5,0,1-0.1,1.6h4.9c0,2.4-0.2,3.8-0.6,4.2
				c-0.4,0.5-1.1,0.7-2.1,0.7c-0.2,0-0.8,0-1.6-0.1l-0.3-0.9l1.7,0.1c0.8,0,1.4-0.2,1.6-0.5s0.3-1.2,0.4-2.6h-4.1
				c-0.1,0.3-0.3,0.7-0.4,1.1c-0.7,1.3-2.4,2.3-4.9,3.1l-0.7-0.8c2.3-0.7,3.8-1.5,4.5-2.5c0.2-0.3,0.3-0.6,0.4-0.8h-4.2v-0.9h4.5
				c0.1-0.5,0.2-1,0.2-1.6L425,11.6L425,11.6z M427.8,7.5h-5.3l-0.2,0.2c0.8,0.7,1.6,1.3,2.6,1.8C426,9,427,8.3,427.8,7.5z"/>
		</g>
	</g>
	<rect x="105.8" y="5.8" fill="#EAEBEC" width="119" height="218"/>
	<rect x="577.3" y="5.8" fill="#EAEBEC" width="146.8" height="278.3"/>
	<g transform="translate(10 10)">
		<g enable-background="new    ">
			<path fill="#444444" d="M107.5,12.7l1.1-3.9l1,0.2l-0.8,2.8h2.4c0.3-1.1,0.5-2.2,0.7-3.4l1,0.1c-0.2,1.1-0.4,2.2-0.7,3.3h6.6v1
				H112c-0.2,0.7-0.4,1.2-0.5,1.6h5.7v0.9c-0.4,1.2-1.1,2.3-2.3,3.3c1.1,0.7,2.5,1.3,4.1,1.8l-0.5,0.9c-1.8-0.7-3.3-1.4-4.5-2.1
				c-1.1,0.8-2.6,1.5-4.3,2.2l-0.5-0.9c1.6-0.6,2.9-1.2,3.9-1.9c-1.1-0.8-1.9-1.7-2.3-2.7c-1,2.2-2.3,4-3.9,5.3l-0.5-0.9
				c2-1.8,3.5-4.2,4.5-7.4L107.5,12.7L107.5,12.7z M111.6,15.2c0.5,1,1.3,1.8,2.4,2.6c1-0.8,1.8-1.7,2.1-2.6
				C116.1,15.2,111.6,15.2,111.6,15.2z M115.3,8.4c1,0.7,1.8,1.5,2.5,2.3l-0.7,0.7c-0.6-0.7-1.4-1.5-2.5-2.4L115.3,8.4z"/>
			<path fill="#444444" d="M129.8,21c-0.5,0-1.3,0-2.5,0c-0.9,0-1.7-0.1-2.2-0.3c-0.6-0.2-1.1-0.5-1.5-1c-0.2-0.2-0.4-0.4-0.5-0.4
				c-0.3,0-0.9,0.6-1.7,1.9l-0.8-0.7c0.7-1.2,1.4-1.9,2-2.1v-4.3h-2v-0.9h2.9v5.2c0.1,0.1,0.2,0.2,0.4,0.3c0.3,0.4,0.7,0.7,1.1,0.9
				c0.4,0.2,1.1,0.3,1.9,0.3c1,0,1.9,0,2.8,0c0.4,0,1.1,0,2,0c0.8,0,1.3,0,1.6-0.1l-0.2,1L129.8,21L129.8,21z M121.6,8.6
				c1,0.7,1.8,1.5,2.4,2.2l-0.7,0.7c-0.6-0.7-1.4-1.4-2.4-2.2L121.6,8.6z M124.8,13.9h3.4c0.1-0.6,0.1-1.3,0.2-2.1h-3.1v-0.9h4.2
				c0.4-0.8,0.8-1.7,1.1-2.6l1,0.3c-0.3,0.8-0.7,1.6-1,2.3h1.8v0.9h-3c0,0.9-0.1,1.6-0.2,2.1h3.6v1H129c-0.4,1.7-1.6,3.1-3.7,4.2
				l-0.6-0.8c1.8-0.9,2.9-2,3.3-3.4h-3.2V13.9L124.8,13.9z M126.7,8.4c0.4,0.6,0.9,1.3,1.3,2l-0.9,0.4c-0.4-0.8-0.9-1.4-1.4-2
				L126.7,8.4z M129.7,15.7c1.2,0.8,2.2,1.7,3.1,2.6l-0.7,0.8c-1-1.1-2-2-3.1-2.7L129.7,15.7z"/>
			<path fill="#444444" d="M134.7,10.5h6c-0.3-0.7-0.6-1.3-1-1.8l1-0.4c0.4,0.6,0.7,1.3,1.1,2.1h5.2v1h-7.4l-0.1,2.5h5.8
				c0,2.8-0.1,4.5-0.3,5.3c-0.3,1.2-1,1.8-2.1,1.8c-0.3,0-0.8,0-1.6-0.1L141,20c0.7,0,1.3,0,1.8,0c0.7,0,1.1-0.5,1.3-1.5
				c0.1-0.5,0.1-1.8,0.2-3.8h-4.9c-0.2,1.1-0.5,2.1-1,3.1c-0.7,1.2-1.6,2.3-2.9,3.3l-0.7-0.7c1.5-1.3,2.5-2.4,3-3.5s0.7-2.3,0.8-3.6
				c0-0.9,0.1-1.6,0.1-2h-3.9L134.7,10.5L134.7,10.5z"/>
		</g>
	</g>
	<g transform="translate(10 10)">
		<g enable-background="new    ">
			<path fill="#444444" d="M581,17.9c-0.9,0.3-1.9,0.6-3.1,0.9l-0.1-1c1.3-0.2,2.4-0.5,3.2-0.8L581,17.9L581,17.9z M581.5,10h-3.4
				V9.1h4.4l-0.7,5.8h0.9c0,3.2-0.1,5-0.4,5.5c-0.3,0.5-0.9,0.7-1.7,0.7c-0.3,0-0.7,0-1,0l-0.3-0.9c0.5,0.1,0.8,0.1,1,0.1
				c0.7,0,1.1-0.2,1.2-0.6c0.1-0.5,0.2-1.8,0.2-3.9h-3.6l0.7-4.8l0.9,0.1l-0.6,3.9h1.7L581.5,10z M584.8,12.5
				c-0.5,0.6-1,1.1-1.6,1.5l-0.5-0.8c1.6-1.2,2.8-2.8,3.6-4.7h0.9c0.7,1.8,1.9,3.3,3.7,4.7l-0.5,0.8c-0.6-0.4-1.1-0.9-1.6-1.5v0.9
				h-3.9v-0.9H584.8z M583.1,19.8h4.5c0.5-1.5,1-3.3,1.4-5.5l1,0.2c-0.4,2-0.9,3.8-1.4,5.3h2.1v1h-7.6V19.8L583.1,19.8z M584.4,14.7
				c0.4,1.1,0.8,2.4,1.2,4l-0.9,0.2c-0.3-1.3-0.7-2.6-1.2-3.9L584.4,14.7z M588.7,12.5c-0.8-0.9-1.5-1.9-1.9-3
				c-0.6,1.2-1.2,2.2-1.9,3H588.7z M586.5,14.3c0.4,1.1,0.7,2.3,1,3.8l-0.9,0.2c-0.3-1.3-0.6-2.6-1-3.8L586.5,14.3z"/>
			<path fill="#444444" d="M591.9,12.7h3v6c0.4-0.4,0.9-0.8,1.4-1.3l0.3,1.1c-0.8,0.8-1.7,1.5-2.6,2.1l-0.4-0.9
				c0.2-0.2,0.3-0.4,0.3-0.6v-5.4h-2V12.7L591.9,12.7z M593.7,8.5c0.9,0.7,1.7,1.5,2.3,2.2l-0.7,0.7c-0.6-0.7-1.3-1.4-2.3-2.2
				L593.7,8.5z M600.6,10.1h-3.9v-1h7.9v1h-2.9V14h2.7v0.9h-2.7v4.8h3.2v1h-8.6v-1h1.4v-7.4h1v7.4h2L600.6,10.1L600.6,10.1z"/>
			<path fill="#444444" d="M606.2,10.5h6c-0.3-0.7-0.6-1.3-1-1.8l1-0.4c0.4,0.6,0.7,1.3,1.1,2.1h5.2v1h-7.4L611,14h5.8
				c0,2.8-0.1,4.5-0.3,5.3c-0.3,1.2-1,1.8-2.1,1.8c-0.3,0-0.8,0-1.6-0.1l-0.3-0.9c0.7,0,1.3,0,1.8,0c0.7,0,1.1-0.5,1.3-1.5
				c0.1-0.5,0.1-1.8,0.2-3.8h-4.9c-0.2,1.1-0.5,2.1-1,3.1c-0.7,1.2-1.6,2.3-2.9,3.3l-0.7-0.7c1.5-1.3,2.5-2.4,3-3.5s0.7-2.3,0.8-3.6
				c0-0.9,0.1-1.6,0.1-2h-3.9L606.2,10.5L606.2,10.5z"/>
		</g>
	</g>
	<g id="Link14" transform="translate(0,0)">
		<path fill="none" stroke="#888888" d="M323.8,57.3h-90.5"/>
		<g transform="translate(-0.5, 0)">
			<polygon fill="#888888" points="238.3,52.8 232.3,57.3 238.3,61.8 			"/>
		</g>
	</g>
	<g id="Link20" transform="translate(0,0)">
		<path fill="none" stroke="#888888" d="M323.8,137.3h-55.5v49h-33"/>
		<g transform="translate(-0.5, 0)">
			<polygon fill="#888888" points="238.3,181.8 232.3,186.3 238.3,190.8 			"/>
		</g>
		<path fill="none" stroke="#FF0000" stroke-width="15" stroke-opacity="0" d="M337.7,154"/>
	</g>
	<g id="Link22" transform="translate(0,0)">
		<path fill="none" stroke="#888888" d="M587.7,70.3h-65.4v122"/>
		<path fill="none" stroke="#FF0000" stroke-width="15" stroke-opacity="0" d="M588.6,91.8"/>
		<path fill="none" stroke="#FF0000" stroke-width="15" stroke-opacity="0" d="M522.3,192.3"/>
	</g>
	<g id="Link23" transform="translate(0,0)">
		<path fill="none" stroke="#888888" d="M587.7,128.3h-65.4v64H471"/>
		<g transform="translate(-0.5, 0)">
			<polygon fill="#888888" points="473.6,187.8 467.6,192.3 473.6,196.8 			"/>
		</g>
	</g>
	<g id="Link24" transform="translate(0,0)">
		<path fill="none" stroke="#888888" d="M472.1,192.3"/>
		<path fill="none" stroke="#888888" d="M587.7,192.3h-65.4l0,0"/>
		<path fill="none" stroke="#FF0000" stroke-width="15" stroke-opacity="0" d="M522.3,192.3L522.3,192.3"/>
	</g>
	<g id="Link25" transform="translate(0,0)">
		<path fill="none" stroke="#888888" d="M388.3,223.2v25.2h178.8"/>
		<g transform="translate(0.5, 0)">
			<polygon fill="#888888" points="563.6,252.8 569.6,248.3 563.6,243.8 			"/>
		</g>
	</g>
	<g>
		<g>
			<rect x="325.8" y="40.8" opacity="0.6" fill="#BBBBBB" enable-background="new    " width="124" height="50"/>
			<rect x="323.8" y="38.8" fill="#FFFFFF" stroke="#E5E5E5" width="124" height="50"/>
			<g transform="translate(20 9)">
				<g enable-background="new    ">
					<path fill="#444444" d="M327.2,52c-0.6,1.3-1.3,2.3-2.1,3.2l-0.6-0.8c1.3-1.4,2.2-3.2,2.7-5.6l1,0.2c-0.1,0.7-0.3,1.4-0.5,2h3
						v-2.5h1V51h4.6v1h-4.6v3.2h4.3v1h-4.3v3.6h5.5v1h-12.3v-1h5.8v-3.6h-4.1v-1h4.1V52H327.2z"/>
					<path fill="#444444" d="M348.2,48.4c0.7,0.5,1.2,1,1.7,1.5l-0.6,0.6h1.7v1h-4.3c0.1,1.7,0.3,3.1,0.5,4.1c0.1,0.3,0.2,0.6,0.3,1
						c0.7-1.1,1.3-2.4,1.7-3.9l0.9,0.4c-0.6,1.9-1.3,3.4-2.2,4.7c0.2,0.5,0.4,0.8,0.6,1.2c0.5,0.7,0.8,1,1.1,1
						c0.3,0,0.5-0.7,0.7-2.2l0.9,0.5c-0.3,1.9-0.8,2.8-1.4,2.8s-1.2-0.4-1.9-1.3c-0.3-0.3-0.5-0.7-0.7-1.2c-1,1.1-2.1,2-3.4,2.6
						l-0.6-0.8c1.4-0.6,2.6-1.6,3.6-2.8c-0.2-0.6-0.4-1.1-0.5-1.7c-0.3-1.1-0.5-2.6-0.6-4.4h-4.8v2.3h3.4c0,2.4-0.1,3.9-0.3,4.6
						c-0.2,0.6-0.6,0.9-1.3,0.9c-0.2,0-0.6,0-1.2-0.1l-0.3-0.9c0.5,0,1,0,1.4,0c0.3,0,0.5-0.2,0.6-0.6c0.1-0.4,0.1-1.4,0.2-3H341
						v0.4c-0.1,2.5-0.6,4.5-1.7,6l-0.8-0.7c0.9-1.3,1.4-3.1,1.4-5.3v-4.7h5.8c0-0.7,0-1.4,0-2.2h1c0,0.8,0,1.5,0,2.2h2.6
						c-0.4-0.5-1-1-1.7-1.6L348.2,48.4z"/>
					<path fill="#444444" d="M357.4,48.9c-1,2.9-2.4,5.2-4.1,6.7l-0.8-0.7c1.7-1.6,3.1-3.7,4-6.4L357.4,48.9z M361.2,56
						c1,1.5,1.9,3.1,2.6,4.8l-0.9,0.4c-0.2-0.4-0.4-0.9-0.7-1.5c-2.5,0.4-5.2,0.7-8.1,0.9l-0.2-1c1.1-0.6,2.5-2.7,4.2-6.5l1,0.3
						c-1.2,2.6-2.4,4.6-3.6,6.1c2.3-0.1,4.4-0.4,6.2-0.7c-0.5-1-1-1.9-1.5-2.6L361.2,56z M361,48.4c0.8,2.6,2.2,4.7,4.2,6.4
						l-0.7,0.8c-2.1-1.7-3.5-4-4.4-6.7L361,48.4z"/>
					<path fill="#444444" d="M366.8,52.2h2.5v-2.1c-0.6,0.1-1.3,0.2-2.2,0.3l-0.2-1c2-0.2,3.8-0.5,5.3-0.9l0.4,0.9
						c-0.6,0.2-1.4,0.4-2.2,0.5v2.2h2.3v1h-2.3v0.6c0.7,0.7,1.4,1.4,2.1,2.3l-0.6,0.9c-0.5-0.8-1-1.6-1.5-2.2v6.6h-1v-6.4
						c-0.6,1.3-1.3,2.5-2.3,3.6l-0.4-1.1c1.3-1.2,2.1-2.6,2.7-4.2H367L366.8,52.2L366.8,52.2z M377,54.1c0.7,2,1.4,4.3,2,6.9l-1,0.3
						c-0.1-0.6-0.2-1-0.3-1.5c-1.8,0.4-3.8,0.7-6,1l-0.2-1c0.3-0.1,0.5-0.2,0.5-0.4l3-10.7l1,0.1l-3,10.8c1.7-0.3,3.2-0.5,4.5-0.8
						c-0.4-1.5-0.8-3-1.3-4.5L377,54.1z"/>
					<path fill="#444444" d="M383.3,48.6c-0.1,0.4-0.3,0.9-0.4,1.4h3v0.9h-3.4c-0.4,1-0.9,1.8-1.4,2.6l-0.8-0.5
						c0.9-1.4,1.6-2.9,2-4.6L383.3,48.6z M381.9,52.8h3.9v0.9H384v1.7h2.2v0.9H384v3.3c0.6-0.2,1.2-0.5,1.8-0.9l0.2,0.9
						c-0.8,0.5-1.8,0.8-3,1.1l-0.4-0.9c0.3-0.1,0.4-0.2,0.4-0.4v-3.2h-2.2v-0.9h2.2v-1.7h-1.1V52.8z M388,56.8
						c-0.2,1.8-0.7,3.3-1.5,4.5l-0.8-0.7c0.9-1.4,1.4-3.2,1.4-5.4V49h5.6v11c0,0.7-0.4,1.1-1.1,1.1H390l-0.3-1
						c0.7,0,1.3,0.1,1.6,0.1c0.3,0,0.5-0.2,0.5-0.5v-2.9L388,56.8L388,56.8z M388.1,53.3v2.1v0.4h3.6v-2.5H388.1z M391.7,52.4V50
						h-3.6v2.4H391.7z"/>
					<path fill="#444444" d="M395.5,52c0.8,0.9,1.6,1.8,2.5,2.9c0.5-1.3,0.8-2.6,0.9-4.1H395v-1h4.7v0.7c-0.1,1.9-0.5,3.7-1.2,5.2
						c0.6,0.8,1.1,1.6,1.6,2.4l-0.7,0.7c-0.4-0.7-0.9-1.4-1.4-2.1c-0.8,1.3-1.8,2.5-3.1,3.6l-0.6-0.9c1.3-1,2.3-2.2,3.1-3.6
						c-0.8-1-1.6-2.1-2.7-3.2L395.5,52z M401.3,53.7c1,1.2,1.7,2.2,2.2,3.1l-0.8,0.6c-0.6-1-1.3-2-2.1-3.1L401.3,53.7z M400.5,51.1
						h4.1v-2.7h1v2.7h1.6v1h-1.6v7.7c0,0.9-0.5,1.4-1.4,1.4H402l-0.2-1c0.8,0,1.5,0.1,2.1,0.1c0.5,0,0.8-0.2,0.8-0.7v-7.4h-4.1
						L400.5,51.1L400.5,51.1z"/>
				</g>
			</g>
		</g>
		<g>
			<rect x="325.8" y="101.8" opacity="0.6" fill="#BBBBBB" enable-background="new    " width="124" height="50"/>
			<rect x="323.8" y="99.8" fill="#FFFFFF" stroke="#E5E5E5" width="124" height="50"/>
			<g transform="translate(20 9)">
				<g enable-background="new    ">
					<path fill="#444444" d="M338.5,113.7h3v6.2c0.7-0.6,1.2-1,1.7-1.5l0.3,1c-0.8,0.8-1.8,1.6-2.8,2.2l-0.4-0.9
						c0.2-0.2,0.3-0.4,0.3-0.6v-5.6h-2.1V113.7z M340.1,109.5c1,0.7,1.8,1.4,2.4,2.2l-0.7,0.7c-0.6-0.7-1.4-1.4-2.4-2.2L340.1,109.5
						z M342.8,113.6h3.8v-4.2h1v4.2h3.6v1h-3.6v7.7h-1v-7.7h-3.8V113.6z"/>
					<path fill="#444444" d="M354.3,112.6h9.2v5.5h-1.7v0.9h3.2v0.9h-3.2v2.4h-1v-2.4h-4c-0.1,0.4-0.3,0.8-0.6,1.1
						c-0.5,0.5-1.2,1-2.3,1.3l-0.5-0.8c1-0.3,1.7-0.6,2.1-1c0.1-0.2,0.2-0.3,0.3-0.5h-3.2v-1h3.4c0-0.2,0-0.3,0-0.4v-0.5h-1.8v-5.5
						H354.3z M354.7,111.2c-0.4,0.6-0.7,1.1-1.2,1.6l-0.8-0.5c0.9-0.9,1.5-1.9,1.8-2.9l1,0.2l-0.4,0.8h3.5v0.9h-1.8
						c0.3,0.3,0.4,0.6,0.6,0.9l-0.8,0.3c-0.2-0.4-0.5-0.8-0.8-1.2h-1.1V111.2z M355.3,114.2h7.3v-0.8h-7.3V114.2z M355.3,115.7h7.3
						v-0.8h-7.3V115.7z M362.5,117.3v-0.9h-7.3v0.9H362.5z M357.1,118.1v0.5c0,0.1,0,0.2,0,0.4h3.8v-0.9H357.1L357.1,118.1z
						 M360.5,111.2c-0.3,0.5-0.6,0.9-0.9,1.3l-0.8-0.5c0.7-0.8,1.2-1.6,1.5-2.6l1,0.2l-0.3,0.8h4v0.9h-2.3c0.2,0.3,0.4,0.6,0.6,0.9
						l-0.8,0.3c-0.2-0.4-0.5-0.8-0.8-1.2L360.5,111.2L360.5,111.2z"/>
					<path fill="#444444" d="M373.2,112.9c1.7,1.3,3.8,2.3,6,3l-0.5,0.9c-2.3-0.8-4.3-1.8-5.9-3.1c-1.5,1.2-3.4,2.2-5.9,3l-0.5-0.9
						c2.4-0.8,4.4-1.8,6-3L373.2,112.9L373.2,112.9z M368.6,111.5c-0.4,0.7-0.8,1.4-1.2,1.9l-0.9-0.5c0.9-1.1,1.5-2.2,1.9-3.5l1,0.2
						c-0.1,0.2-0.2,0.6-0.4,1h3.7v0.9h-2c0.3,0.6,0.4,1,0.6,1.4l-0.9,0.3c-0.2-0.6-0.4-1.2-0.6-1.7
						C369.8,111.5,368.6,111.5,368.6,111.5z M377.1,117.7c-0.4,1.2-0.8,2.2-1.3,3.1h3v0.9H367v-0.9h7.7c0.5-0.9,1-2.1,1.4-3.4
						L377.1,117.7z M369.4,117.6c0.4,0.7,0.8,1.6,1.1,2.6l-0.9,0.2c-0.3-0.9-0.6-1.8-1.1-2.6L369.4,117.6z M369.2,116h7.3v0.9h-7.3
						V116z M372.7,117.3c0.3,0.9,0.6,1.8,0.9,2.8l-0.9,0.2c-0.2-1-0.5-1.9-0.9-2.7L372.7,117.3z M374.5,111.5
						c-0.3,0.5-0.5,1-0.8,1.4l-0.9-0.5c0.7-0.9,1.1-1.9,1.4-3l1,0.2c-0.1,0.2-0.2,0.6-0.3,1h4.1v0.9h-2.2c0.3,0.5,0.6,1,0.7,1.5
						l-0.9,0.3c-0.3-0.7-0.5-1.3-0.8-1.8H374.5L374.5,111.5z"/>
					<path fill="#444444" d="M384.8,121.4v0.8h-1v-4.9c-0.8,0.3-1.8,0.5-2.8,0.8l-0.5-1c2.5-0.5,4.5-1.2,6-2
						c-0.6-0.5-1.5-1.1-2.5-1.7l0.9-0.5c1.1,0.7,1.9,1.3,2.5,1.8c1.4-0.8,2.5-1.8,3.1-3h-5.2c-1,0.9-2.2,1.7-3.6,2.4l-0.7-0.9
						c2.4-1,4-2.3,4.8-3.8l1.1,0.1c-0.2,0.4-0.5,0.8-0.8,1.2h5.5v0.9c-1,1.9-2.8,3.5-5.4,4.7h5.8v5.9h-1v-0.8H384.8L384.8,121.4z
						 M391.1,120.4v-3.2h-6.3v3.2H391.1z"/>
				</g>
			</g>
		</g>
		<g>
			<g>
				<rect x="325.8" y="162.8" opacity="0.6" fill="#BBBBBB" enable-background="new    " width="124" height="50"/>
				<rect x="323.8" y="160.8" fill="#FFFFFF" stroke="#E5E5E5" width="124" height="50"/>
			</g>
			<g transform="translate(20 9)">
				<g enable-background="new    ">
					<path fill="#444444" d="M338.7,173.3h1.9v-2.7h1v2.7h1.5v1h-1.5v1.1c0.5,0.6,1,1.2,1.4,1.8c0.8-0.9,1.6-2,2.2-3.3l0.8,0.4
						c-0.6,1.4-1.4,2.5-2.3,3.5l-0.6-0.4l0.3,0.5l-0.5,0.8c-0.5-1-1-1.8-1.3-2.4v7h-1v-7.1c-0.5,1.4-1.1,2.6-1.8,3.7l-0.4-1.1
						c1.1-1.4,1.8-2.9,2.2-4.6h-1.9L338.7,173.3L338.7,173.3z M349.3,176.7c-0.3,1.5-0.8,2.8-1.5,3.8c0.9,0.8,2.1,1.5,3.4,2
						l-0.5,0.9c-1.5-0.6-2.7-1.3-3.6-2.1c-1,1-2.2,1.8-3.8,2.2l-0.6-0.9c1.5-0.4,2.7-1.1,3.6-2c-0.9-1.1-1.5-2.3-1.7-3.7l0.9-0.3
						c0.2,1.2,0.7,2.2,1.5,3.2c0.6-0.9,1-2,1.3-3.3L349.3,176.7z M343.4,172.4h3.4c-0.3-0.7-0.6-1.3-0.8-1.8l1-0.2
						c0.3,0.6,0.6,1.2,0.8,1.9h3.1v1h-7.5V172.4z M348.8,173.9c1,1.3,1.8,2.4,2.4,3.3l-0.8,0.6c-0.5-1-1.3-2.1-2.3-3.4L348.8,173.9z
						"/>
					<path fill="#444444" d="M355.5,180c-0.9,0.3-1.9,0.6-3.1,0.9l-0.1-1c1.3-0.2,2.4-0.5,3.2-0.8V180L355.5,180z M356,172.1h-3.4
						v-0.9h4.4l-0.7,5.8h0.9c0,3.2-0.1,5-0.4,5.5s-0.9,0.7-1.7,0.7c-0.3,0-0.7,0-1,0l-0.3-0.9c0.5,0.1,0.8,0.1,1,0.1
						c0.7,0,1.1-0.2,1.2-0.6c0.1-0.5,0.2-1.8,0.2-3.9h-3.6l0.7-4.8l0.9,0.1l-0.6,3.9h1.7L356,172.1z M359.3,174.7
						c-0.5,0.6-1,1.1-1.6,1.5l-0.5-0.8c1.6-1.2,2.8-2.8,3.6-4.7h0.9c0.7,1.8,1.9,3.3,3.7,4.7l-0.5,0.8c-0.6-0.4-1.1-0.9-1.6-1.5v0.9
						h-3.9L359.3,174.7L359.3,174.7z M357.6,181.9h4.5c0.5-1.5,1-3.3,1.4-5.5l1,0.2c-0.4,2-0.9,3.8-1.4,5.3h2.1v1h-7.6V181.9z
						 M358.9,176.8c0.4,1.1,0.8,2.4,1.2,4l-0.9,0.2c-0.3-1.3-0.7-2.6-1.2-3.9L358.9,176.8z M363.2,174.6c-0.8-0.9-1.5-1.9-1.9-3
						c-0.6,1.2-1.2,2.2-1.9,3H363.2z M361,176.4c0.4,1.1,0.7,2.3,1,3.8l-0.9,0.2c-0.3-1.3-0.6-2.6-1-3.8L361,176.4z"/>
					<path fill="#444444" d="M373.2,174.1c1.7,1.3,3.8,2.3,6,3l-0.5,0.9c-2.3-0.8-4.3-1.8-5.9-3.1c-1.5,1.2-3.4,2.2-5.9,3l-0.5-0.9
						c2.4-0.8,4.4-1.8,6-3h0.8V174.1z M368.6,172.7c-0.4,0.7-0.8,1.4-1.2,1.9l-0.9-0.5c0.9-1.1,1.5-2.2,1.9-3.5l1,0.2
						c-0.1,0.2-0.2,0.6-0.4,1h3.7v0.9h-2c0.3,0.6,0.4,1,0.6,1.4l-0.9,0.3c-0.2-0.6-0.4-1.2-0.6-1.7L368.6,172.7L368.6,172.7z
						 M377.1,178.9c-0.4,1.2-0.8,2.2-1.3,3.1h3v0.9H367V182h7.7c0.5-0.9,1-2.1,1.4-3.4L377.1,178.9z M369.4,178.8
						c0.4,0.7,0.8,1.6,1.1,2.6l-0.9,0.2c-0.3-0.9-0.6-1.8-1.1-2.6L369.4,178.8z M369.2,177.1h7.3v0.9h-7.3V177.1z M372.7,178.5
						c0.3,0.9,0.6,1.8,0.9,2.8l-0.9,0.2c-0.2-1-0.5-1.9-0.9-2.7L372.7,178.5z M374.5,172.7c-0.3,0.5-0.5,1-0.8,1.4l-0.9-0.5
						c0.7-0.9,1.1-1.9,1.4-3l1,0.2c-0.1,0.2-0.2,0.6-0.3,1h4.1v0.9h-2.2c0.3,0.5,0.6,1,0.7,1.5l-0.9,0.3c-0.3-0.7-0.5-1.3-0.8-1.8
						L374.5,172.7L374.5,172.7z"/>
					<path fill="#444444" d="M384.8,182.5v0.8h-1v-4.9c-0.8,0.3-1.8,0.5-2.8,0.8l-0.5-1c2.5-0.5,4.5-1.2,6-2
						c-0.6-0.5-1.5-1.1-2.5-1.7l0.9-0.5c1.1,0.7,1.9,1.3,2.5,1.8c1.4-0.8,2.5-1.8,3.1-3h-5.2c-1,0.9-2.2,1.7-3.6,2.4l-0.7-0.9
						c2.4-1,4-2.3,4.8-3.8l1.1,0.1c-0.2,0.4-0.5,0.8-0.8,1.2h5.5v0.9c-1,1.9-2.8,3.5-5.4,4.7h5.8v5.9h-1v-0.8H384.8L384.8,182.5z
						 M391.1,181.6v-3.2h-6.3v3.2H391.1z"/>
				</g>
			</g>
		</g>
	</g>
	<g id="RectEndPoint6" transform="translate(48,238)">
		<rect x="69.8" y="-197.2" opacity="0.6" fill="#BBBBBB" enable-background="new    " width="97" height="50"/>
		<rect x="67.8" y="-199.2" fill="#FFFFFF" stroke="#E5E5E5" width="97" height="50"/>
		<g transform="translate(20 9)">
			<g enable-background="new    ">
				<path fill="#444444" d="M83.5-185.8H86v-2.1c-0.6,0.1-1.3,0.2-2.2,0.3l-0.2-1c2-0.2,3.8-0.5,5.3-0.9l0.4,0.9
					c-0.6,0.2-1.4,0.4-2.2,0.5v2.2h2.3v1H87v0.6c0.7,0.7,1.4,1.4,2.1,2.3l-0.6,0.9c-0.5-0.8-1-1.6-1.5-2.2v6.6h-1v-6.4
					c-0.6,1.3-1.3,2.5-2.3,3.6l-0.4-1.1c1.3-1.2,2.1-2.6,2.7-4.2h-2.4L83.5-185.8L83.5-185.8z M93.8-183.9c0.7,2,1.4,4.3,2,6.9
					l-1,0.3c-0.1-0.6-0.2-1-0.3-1.5c-1.8,0.4-3.8,0.7-6,1l-0.2-1c0.3-0.1,0.5-0.2,0.5-0.3l3-10.7l1,0.1l-3.1,10.7
					c1.7-0.3,3.2-0.5,4.5-0.8c-0.4-1.5-0.8-3-1.3-4.5L93.8-183.9z"/>
				<path fill="#444444" d="M100.1-189.4c-0.1,0.4-0.3,0.9-0.4,1.4h3v0.9h-3.4c-0.4,1-0.9,1.8-1.4,2.6l-0.8-0.5
					c0.9-1.4,1.6-2.9,2-4.6L100.1-189.4z M98.6-185.2h3.9v0.9h-1.8v1.7h2.2v0.9h-2.2v3.3c0.6-0.2,1.2-0.5,1.8-0.9l0.2,0.9
					c-0.8,0.5-1.8,0.8-3,1.1l-0.4-0.9c0.3-0.1,0.4-0.2,0.4-0.4v-3.2h-2.2v-0.9h2.2v-1.7h-1.1V-185.2z M104.7-181.2
					c-0.2,1.8-0.7,3.3-1.5,4.5l-0.8-0.7c0.9-1.4,1.4-3.2,1.4-5.4v-6.2h5.6v11c0,0.7-0.4,1.1-1.1,1.1h-1.6l-0.3-1
					c0.7,0,1.3,0.1,1.6,0.1c0.3,0,0.5-0.2,0.5-0.5v-2.9L104.7-181.2L104.7-181.2z M104.8-184.7v2.1v0.4h3.6v-2.5H104.8z
					 M108.4-185.6v-2.4h-3.6v2.4H108.4z"/>
			</g>
		</g>
	</g>
	<g id="RectEndPoint7" transform="translate(48,299)">
		<rect x="69.8" y="-197.2" opacity="0.6" fill="#BBBBBB" enable-background="new    " width="97" height="50"/>
		<rect x="67.8" y="-199.2" fill="#FFFFFF" stroke="#E5E5E5" width="97" height="50"/>
		<g transform="translate(20 9)">
			<g enable-background="new    ">
				<path fill="#444444" d="M69.2-186.1c1,0.7,1.8,1.4,2.5,2.1l-0.7,0.7c-0.6-0.7-1.4-1.4-2.5-2.1L69.2-186.1z M72-182
					c-0.7,1.8-1.5,3.6-2.3,5.1l-0.9-0.4c0.9-1.7,1.7-3.3,2.4-5L72-182z M69.6-189.4c1,0.7,1.9,1.4,2.6,2.1l-0.7,0.7
					c-0.7-0.7-1.5-1.4-2.6-2.2L69.6-189.4z M73.4-189c0.6,0.7,1.1,1.5,1.6,2.3l-0.9,0.4c-0.5-0.9-1-1.6-1.6-2.3L73.4-189z
					 M76.2-189.6h1v3.8h3.2v7.5c0,0.9-0.4,1.4-1.3,1.4h-1.8l-0.3-1h1.7c0.4,0,0.7-0.2,0.7-0.7v-1.4H74v3.1h-1v-8.9h3.2V-189.6
					L76.2-189.6z M79.4-183.2v-1.6H74v1.6H79.4z M74-182.3v1.5h5.4v-1.5H74z M80.7-188.8c-0.4,0.9-0.9,1.7-1.5,2.5l-0.9-0.4
					c0.6-0.9,1.1-1.7,1.5-2.4L80.7-188.8z"/>
				<path fill="#444444" d="M84.8-180.6c-0.3,1.3-0.8,2.4-1.4,3.3l-0.9-0.5c0.6-0.9,1-1.9,1.3-3L84.8-180.6z M84.5-188.6h3.1
					c0.2-0.4,0.3-0.7,0.4-1.1l1.1,0.1c-0.1,0.3-0.3,0.7-0.4,1h4.6v6.8h-8.8C84.5-181.8,84.5-188.6,84.5-188.6z M85.5-186.5h6.8v-1.1
					h-6.8V-186.5z M85.5-184.6h6.8v-1.1h-6.8V-184.6z M92.3-182.6v-1.2h-6.8v1.2H92.3z M87-177c-0.8,0-1.2-0.4-1.2-1.2v-2.7h1v2.5
					c0,0.3,0.2,0.5,0.5,0.5h3.1c0.3,0,0.5-0.1,0.7-0.2c0.2-0.2,0.3-0.8,0.4-1.7l1,0.3c-0.1,1.2-0.3,1.9-0.6,2.2
					c-0.3,0.2-0.7,0.3-1.2,0.3L87-177L87-177z M88.7-181.3c0.7,0.7,1.3,1.3,1.7,1.9l-0.8,0.5c-0.4-0.6-1-1.3-1.7-2L88.7-181.3z
					 M93.2-181c0.9,1.1,1.6,2.1,2.1,3l-0.8,0.6c-0.5-0.9-1.2-1.9-2-3L93.2-181z"/>
				<path fill="#444444" d="M102.7-187.9h-5.3v-1h11.1v1h-4.7v4.1h4v1h-4v4.5h5.3v1H96.6v-1h2.2v-6.7h1v6.7h2.9V-187.9L102.7-187.9z
					"/>
				<path fill="#444444" d="M110.7-187.2h5.8c-0.4-0.8-0.8-1.5-1.4-2.1l1-0.4c0.5,0.6,1,1.5,1.5,2.5h5.3v1h-2.2
					c-0.7,2.2-1.7,4.1-3.1,5.6c1.5,1.3,3.3,2.3,5.6,3.1l-0.5,0.8c-2.3-0.9-4.2-1.9-5.7-3.2c-1.6,1.5-3.6,2.5-6,3.2l-0.5-0.9
					c2.4-0.6,4.3-1.6,5.8-3c-1.6-1.6-2.7-3.5-3.4-5.6h-2.2L110.7-187.2L110.7-187.2z M113.9-186.2c0.6,1.9,1.6,3.5,3.1,4.9
					c1.2-1.4,2.2-3,2.7-4.9H113.9z"/>
			</g>
		</g>
	</g>
	<g id="RectEndPoint8" transform="translate(48,361)">
		<rect x="69.8" y="-197.2" opacity="0.6" fill="#BBBBBB" enable-background="new    " width="97" height="50"/>
		<rect x="67.8" y="-199.2" fill="#FFFFFF" stroke="#E5E5E5" width="97" height="50"/>
		<g transform="translate(20 9)">
			<g enable-background="new    ">
				<path fill="#444444" d="M69.2-186.1c1,0.7,1.8,1.4,2.5,2.1l-0.7,0.7c-0.6-0.7-1.4-1.4-2.5-2.1L69.2-186.1z M72-182
					c-0.7,1.8-1.5,3.6-2.3,5.1l-0.9-0.4c0.9-1.7,1.7-3.3,2.4-5L72-182z M69.6-189.4c1,0.7,1.9,1.4,2.6,2.1l-0.7,0.7
					c-0.7-0.7-1.5-1.4-2.6-2.2L69.6-189.4z M73.4-189c0.6,0.7,1.1,1.5,1.6,2.3l-0.9,0.4c-0.5-0.9-1-1.6-1.6-2.3L73.4-189z
					 M76.2-189.6h1v3.8h3.2v7.5c0,0.9-0.4,1.4-1.3,1.4h-1.8l-0.3-1h1.7c0.4,0,0.7-0.2,0.7-0.7v-1.4H74v3.1h-1v-8.9h3.2V-189.6
					L76.2-189.6z M79.4-183.2v-1.6H74v1.6H79.4z M74-182.3v1.5h5.4v-1.5H74z M80.7-188.8c-0.4,0.9-0.9,1.7-1.5,2.5l-0.9-0.4
					c0.6-0.9,1.1-1.7,1.5-2.4L80.7-188.8z"/>
				<path fill="#444444" d="M84.8-180.6c-0.3,1.3-0.8,2.4-1.4,3.3l-0.9-0.5c0.6-0.9,1-1.9,1.3-3L84.8-180.6z M84.5-188.6h3.1
					c0.2-0.4,0.3-0.7,0.4-1.1l1.1,0.1c-0.1,0.3-0.3,0.7-0.4,1h4.6v6.8h-8.8C84.5-181.8,84.5-188.6,84.5-188.6z M85.5-186.5h6.8v-1.1
					h-6.8V-186.5z M85.5-184.6h6.8v-1.1h-6.8V-184.6z M92.3-182.6v-1.2h-6.8v1.2H92.3z M87-177c-0.8,0-1.2-0.4-1.2-1.2v-2.7h1v2.5
					c0,0.3,0.2,0.5,0.5,0.5h3.1c0.3,0,0.5-0.1,0.7-0.2c0.2-0.2,0.3-0.8,0.4-1.7l1,0.3c-0.1,1.2-0.3,1.9-0.6,2.2
					c-0.3,0.2-0.7,0.3-1.2,0.3L87-177L87-177z M88.7-181.3c0.7,0.7,1.3,1.3,1.7,1.9l-0.8,0.5c-0.4-0.6-1-1.3-1.7-2L88.7-181.3z
					 M93.2-181c0.9,1.1,1.6,2.1,2.1,3l-0.8,0.6c-0.5-0.9-1.2-1.9-2-3L93.2-181z"/>
				<path fill="#444444" d="M103.2-186.1c1.7,1.3,3.8,2.3,6,3l-0.5,0.9c-2.3-0.8-4.3-1.8-5.9-3.1c-1.5,1.2-3.4,2.2-5.9,3l-0.5-0.9
					c2.4-0.8,4.4-1.8,6-3h0.8V-186.1z M98.6-187.5c-0.4,0.7-0.8,1.4-1.2,1.9l-0.9-0.5c0.9-1.1,1.5-2.2,1.9-3.5l1,0.2
					c-0.1,0.2-0.2,0.6-0.4,1h3.7v0.9h-2c0.3,0.6,0.4,1,0.6,1.4l-0.9,0.3c-0.2-0.6-0.4-1.2-0.6-1.7L98.6-187.5L98.6-187.5z
					 M107.1-181.3c-0.4,1.2-0.8,2.2-1.3,3.1h3v0.9H96.9v-0.9h7.7c0.5-0.9,1-2.1,1.4-3.4L107.1-181.3z M99.4-181.4
					c0.4,0.7,0.8,1.6,1.1,2.6l-0.9,0.2c-0.3-0.9-0.6-1.8-1.1-2.6L99.4-181.4z M99.2-183h7.3v0.9h-7.3V-183z M102.7-181.7
					c0.3,0.9,0.6,1.8,0.9,2.8l-0.9,0.2c-0.2-1-0.5-1.9-0.9-2.7L102.7-181.7z M104.5-187.5c-0.3,0.5-0.5,1-0.8,1.4l-0.9-0.5
					c0.7-0.9,1.1-1.9,1.4-3l1,0.2c-0.1,0.2-0.2,0.6-0.3,1h4.1v0.9h-2.2c0.3,0.5,0.6,1,0.7,1.5l-0.9,0.3c-0.3-0.7-0.5-1.3-0.8-1.8
					L104.5-187.5L104.5-187.5z"/>
				<path fill="#444444" d="M114.8-177.6v0.8h-1v-4.9c-0.8,0.3-1.8,0.5-2.8,0.8l-0.5-1c2.5-0.5,4.5-1.2,6-2
					c-0.6-0.5-1.5-1.1-2.5-1.7l0.9-0.5c1.1,0.7,1.9,1.3,2.5,1.8c1.4-0.8,2.5-1.8,3.1-3h-5.2c-1,0.9-2.2,1.7-3.6,2.4l-0.7-0.9
					c2.4-1,4-2.3,4.8-3.8l1.1,0.1c-0.2,0.4-0.5,0.8-0.8,1.2h5.5v0.9c-1,1.9-2.8,3.5-5.4,4.7h5.8v5.9h-1v-0.8H114.8L114.8-177.6z
					 M121.1-178.6v-3.2h-6.3v3.2H121.1z"/>
			</g>
		</g>
	</g>
	<rect x="589.3" y="40.8" opacity="0.6" fill="#BBBBBB" enable-background="new    " width="124" height="50"/>
	<rect x="587.3" y="38.8" fill="#FFFFFF" stroke="#E5E5E5" width="124" height="50"/>
	<g transform="translate(20 9)">
		<g enable-background="new    ">
			<path fill="#444444" d="M620.9,48.9c-1,2.9-2.4,5.2-4.1,6.7l-0.8-0.7c1.7-1.6,3.1-3.7,4-6.4L620.9,48.9z M624.7,56
				c1,1.5,1.9,3.1,2.6,4.8l-0.9,0.4c-0.2-0.4-0.4-0.9-0.7-1.5c-2.5,0.4-5.2,0.7-8.1,0.9l-0.2-1c1.1-0.6,2.5-2.7,4.2-6.5l1,0.3
				c-1.2,2.6-2.4,4.6-3.6,6.1c2.3-0.1,4.4-0.4,6.2-0.7c-0.5-1-1-1.9-1.5-2.6L624.7,56z M624.5,48.4c0.8,2.6,2.2,4.7,4.2,6.4
				l-0.7,0.8c-2.1-1.7-3.5-4-4.4-6.7L624.5,48.4z"/>
			<path fill="#444444" d="M632.8,48.6c-0.1,0.4-0.3,0.9-0.4,1.4h3v0.9H632c-0.4,1-0.8,1.8-1.4,2.6l-0.8-0.5c0.9-1.4,1.6-2.9,2-4.6
				L632.8,48.6z M631.4,52.8h3.9v0.9h-1.8v1.7h2.2v0.9h-2.2v3.3c0.6-0.2,1.2-0.5,1.8-0.9l0.2,0.9c-0.8,0.5-1.8,0.8-3,1.1l-0.4-0.9
				c0.3-0.1,0.4-0.2,0.4-0.4v-3.2h-2.2v-0.9h2.2v-1.7h-1.1L631.4,52.8L631.4,52.8z M637.5,56.8c-0.2,1.8-0.7,3.3-1.5,4.5l-0.8-0.7
				c0.9-1.4,1.4-3.2,1.4-5.4V49h5.6v11c0,0.7-0.4,1.1-1.1,1.1h-1.6l-0.3-1c0.7,0,1.3,0.1,1.6,0.1s0.5-0.2,0.5-0.5v-2.9L637.5,56.8
				L637.5,56.8z M637.6,53.3v2.1v0.4h3.6v-2.5H637.6z M641.2,52.4V50h-3.6v2.4H641.2z"/>
		</g>
	</g>
	<rect x="589.3" y="101.8" opacity="0.6" fill="#BBBBBB" enable-background="new    " width="124" height="50"/>
	<rect x="587.3" y="99.8" fill="#FFFFFF" stroke="#E5E5E5" width="124" height="50"/>
	<g transform="translate(20 9)">
		<g enable-background="new    ">
			<path fill="#444444" d="M602.7,112.9c1,0.7,1.8,1.4,2.5,2.1l-0.7,0.7c-0.6-0.7-1.4-1.4-2.5-2.1L602.7,112.9z M605.5,117
				c-0.7,1.8-1.5,3.6-2.3,5.1l-0.9-0.4c0.9-1.7,1.7-3.3,2.4-5L605.5,117z M603.1,109.6c1,0.7,1.9,1.4,2.6,2.1l-0.7,0.7
				c-0.7-0.7-1.5-1.4-2.6-2.2L603.1,109.6z M606.9,110c0.6,0.7,1.1,1.5,1.6,2.3l-0.9,0.4c-0.5-0.9-1-1.6-1.6-2.3L606.9,110z
				 M609.7,109.4h1v3.8h3.2v7.5c0,0.9-0.4,1.4-1.3,1.4h-1.8l-0.3-1h1.7c0.4,0,0.7-0.2,0.7-0.7V119h-5.4v3.1h-1v-8.9h3.2L609.7,109.4
				L609.7,109.4z M612.9,115.8v-1.6h-5.4v1.6H612.9z M607.5,116.7v1.5h5.4v-1.5H607.5z M614.2,110.2c-0.4,0.9-0.9,1.7-1.5,2.5
				l-0.9-0.4c0.6-0.9,1.1-1.7,1.5-2.5L614.2,110.2z"/>
			<path fill="#444444" d="M618.3,118.4c-0.3,1.3-0.8,2.4-1.4,3.3l-0.9-0.5c0.6-0.9,1-1.9,1.3-3L618.3,118.4z M618,110.4h3.1
				c0.2-0.4,0.3-0.7,0.4-1.1l1,0.1c-0.1,0.3-0.3,0.7-0.4,1h4.6v6.8H618V110.4z M619,112.5h6.8v-1.1H619V112.5z M619,114.4h6.8v-1.1
				H619V114.4z M625.8,116.4v-1.2H619v1.2H625.8z M620.5,122c-0.8,0-1.2-0.4-1.2-1.2v-2.7h1v2.5c0,0.3,0.2,0.5,0.5,0.5h3.1
				c0.3,0,0.5-0.1,0.7-0.2c0.2-0.2,0.3-0.8,0.3-1.7l1,0.3c-0.1,1.2-0.3,1.9-0.6,2.2c-0.3,0.2-0.7,0.3-1.2,0.3L620.5,122L620.5,122z
				 M622.2,117.7c0.7,0.7,1.3,1.3,1.7,1.9l-0.8,0.5c-0.4-0.6-1-1.3-1.7-2L622.2,117.7z M626.7,118c0.9,1.1,1.6,2.1,2.1,3l-0.8,0.6
				c-0.5-0.9-1.2-1.9-2-3L626.7,118z"/>
			<path fill="#444444" d="M636.2,111.1h-5.3v-1H642v1h-4.7v4.1h4v1h-4v4.5h5.3v1h-12.5v-1h2.2V114h1v6.7h2.9V111.1L636.2,111.1z"/>
			<path fill="#444444" d="M644.2,111.8h5.8c-0.4-0.8-0.8-1.5-1.4-2.1l1-0.4c0.5,0.6,1,1.5,1.5,2.5h5.3v1h-2.2
				c-0.7,2.2-1.7,4.1-3.1,5.6c1.5,1.3,3.3,2.3,5.6,3.1l-0.5,0.8c-2.3-0.9-4.2-2-5.7-3.2c-1.6,1.5-3.6,2.5-6,3.2l-0.5-0.9
				c2.4-0.6,4.3-1.6,5.8-3c-1.6-1.6-2.7-3.5-3.4-5.6h-2.2L644.2,111.8L644.2,111.8z M647.4,112.8c0.6,1.9,1.6,3.5,3.1,4.9
				c1.2-1.4,2.2-3,2.7-4.9H647.4z"/>
		</g>
	</g>
	<rect x="589.3" y="163.1" opacity="0.6" fill="#BBBBBB" enable-background="new    " width="124" height="50"/>
	<rect x="587.3" y="161.1" fill="#FFFFFF" stroke="#E5E5E5" width="124" height="50"/>
	<g transform="translate(20 9)">
		<g enable-background="new    ">
			<path fill="#444444" d="M602.7,174.2c1,0.7,1.8,1.4,2.5,2.1l-0.7,0.7c-0.6-0.7-1.4-1.4-2.5-2.1L602.7,174.2z M605.5,178.2
				c-0.7,1.8-1.5,3.6-2.3,5.1l-0.9-0.4c0.9-1.7,1.7-3.3,2.4-5L605.5,178.2z M603.1,170.8c1,0.7,1.9,1.4,2.6,2.1l-0.7,0.7
				c-0.7-0.7-1.5-1.4-2.6-2.2L603.1,170.8z M606.9,171.2c0.6,0.7,1.1,1.5,1.6,2.3l-0.9,0.4c-0.5-0.9-1-1.6-1.6-2.3L606.9,171.2z
				 M609.7,170.6h1v3.8h3.2v7.5c0,0.9-0.4,1.4-1.3,1.4h-1.8l-0.3-1h1.7c0.4,0,0.7-0.2,0.7-0.7v-1.4h-5.4v3.1h-1v-8.9h3.2
				L609.7,170.6L609.7,170.6z M612.9,177.1v-1.6h-5.4v1.6H612.9z M607.5,177.9v1.5h5.4v-1.5H607.5z M614.2,171.5
				c-0.4,0.9-0.9,1.7-1.5,2.5l-0.9-0.4c0.6-0.9,1.1-1.7,1.5-2.5L614.2,171.5z"/>
			<path fill="#444444" d="M618.3,179.7c-0.3,1.3-0.8,2.4-1.4,3.3l-0.9-0.5c0.6-0.9,1-1.9,1.3-3L618.3,179.7z M618,171.7h3.1
				c0.2-0.4,0.3-0.7,0.4-1.1l1,0.1c-0.1,0.3-0.3,0.7-0.4,1h4.6v6.8H618V171.7z M619,173.7h6.8v-1.1H619V173.7z M619,175.7h6.8v-1.1
				H619V175.7z M625.8,177.7v-1.2H619v1.2H625.8z M620.5,183.3c-0.8,0-1.2-0.4-1.2-1.2v-2.7h1v2.5c0,0.3,0.2,0.5,0.5,0.5h3.1
				c0.3,0,0.5-0.1,0.7-0.2c0.2-0.2,0.3-0.8,0.3-1.7l1,0.3c-0.1,1.2-0.3,1.9-0.6,2.2c-0.3,0.2-0.7,0.3-1.2,0.3L620.5,183.3
				L620.5,183.3z M622.2,178.9c0.7,0.7,1.3,1.3,1.7,1.9l-0.8,0.5c-0.4-0.6-1-1.3-1.7-2L622.2,178.9z M626.7,179.2
				c0.9,1.1,1.6,2.1,2.1,3l-0.8,0.6c-0.5-0.9-1.2-1.9-2-3L626.7,179.2z"/>
			<path fill="#444444" d="M636.7,174.1c1.7,1.3,3.8,2.3,6,3l-0.5,0.9c-2.3-0.8-4.3-1.8-5.9-3.1c-1.5,1.2-3.4,2.2-5.9,3l-0.5-0.9
				c2.4-0.8,4.4-1.8,6-3h0.8V174.1z M632.1,172.8c-0.4,0.7-0.8,1.4-1.2,1.9l-0.9-0.5c0.9-1.1,1.5-2.2,1.9-3.5l1,0.2
				c-0.1,0.2-0.2,0.6-0.4,1h3.7v0.9h-2c0.3,0.6,0.4,1,0.6,1.4l-0.9,0.3c-0.2-0.6-0.4-1.2-0.6-1.7L632.1,172.8L632.1,172.8z
				 M640.6,178.9c-0.4,1.2-0.8,2.2-1.3,3.1h3v0.9h-11.8V182h7.7c0.5-0.9,1-2.1,1.4-3.4L640.6,178.9z M632.9,178.8
				c0.4,0.7,0.8,1.6,1.1,2.6l-0.9,0.2c-0.3-0.9-0.6-1.8-1.1-2.6L632.9,178.8z M632.7,177.2h7.3v0.9h-7.3V177.2z M636.2,178.6
				c0.3,0.9,0.6,1.8,0.9,2.8l-0.9,0.2c-0.2-1-0.5-1.9-0.9-2.7L636.2,178.6z M638,172.8c-0.3,0.5-0.5,1-0.8,1.4l-0.9-0.5
				c0.7-0.9,1.1-1.9,1.4-3l1,0.2c-0.1,0.2-0.2,0.6-0.3,1h4.1v0.9h-2.2c0.3,0.5,0.6,1,0.7,1.5l-0.9,0.3c-0.3-0.7-0.5-1.3-0.8-1.8
				L638,172.8L638,172.8z"/>
			<path fill="#444444" d="M648.3,182.6v0.8h-1v-4.9c-0.8,0.3-1.8,0.5-2.8,0.8l-0.5-1c2.5-0.5,4.5-1.2,6-2c-0.6-0.5-1.5-1.1-2.5-1.7
				l0.9-0.5c1.1,0.7,1.9,1.3,2.5,1.8c1.4-0.8,2.5-1.8,3.1-3h-5.2c-1,0.9-2.2,1.7-3.6,2.4l-0.7-0.9c2.4-1,4-2.3,4.8-3.8l1.1,0.1
				c-0.2,0.4-0.5,0.8-0.8,1.2h5.5v0.9c-1,1.9-2.8,3.5-5.4,4.7h5.8v5.9h-1v-0.8H648.3L648.3,182.6z M654.6,181.6v-3.2h-6.3v3.2H654.6
				z"/>
		</g>
	</g>
	<g id="RectEndPoint13" transform="translate(518,431)">
		<rect x="71.3" y="-207.2" opacity="0.6" fill="#BBBBBB" enable-background="new    " width="124" height="50"/>
		<rect x="69.3" y="-209.2" fill="#FFFFFF" stroke="#E5E5E5" width="124" height="50"/>
		<g transform="translate(20 9)">
			<g enable-background="new    ">
				<path fill="#444444" d="M70.7-196.1c1,0.7,1.8,1.4,2.5,2.1l-0.7,0.7c-0.6-0.7-1.4-1.4-2.5-2.1L70.7-196.1z M73.5-192
					c-0.7,1.8-1.5,3.6-2.3,5.1l-0.9-0.4c0.9-1.7,1.7-3.3,2.4-5L73.5-192z M71.1-199.4c1,0.7,1.9,1.4,2.6,2.1l-0.7,0.7
					c-0.7-0.7-1.5-1.4-2.6-2.2L71.1-199.4z M74.9-199c0.6,0.7,1.1,1.5,1.6,2.3l-0.9,0.4c-0.5-0.9-1-1.6-1.6-2.3L74.9-199z
					 M77.7-199.6h1v3.8h3.2v7.5c0,0.9-0.4,1.4-1.3,1.4h-1.8l-0.3-1h1.7c0.4,0,0.7-0.2,0.7-0.7v-1.4h-5.4v3.1h-1v-8.9h3.2L77.7-199.6
					L77.7-199.6z M80.9-193.2v-1.6h-5.4v1.6H80.9z M75.5-192.3v1.5h5.4v-1.5H75.5z M82.2-198.8c-0.4,0.9-0.9,1.7-1.5,2.5l-0.9-0.4
					c0.6-0.8,1.1-1.7,1.5-2.4L82.2-198.8z"/>
				<path fill="#444444" d="M86.3-190.6c-0.3,1.3-0.8,2.4-1.4,3.3l-0.9-0.5c0.6-0.9,1-1.9,1.3-3L86.3-190.6z M86-198.6h3.1
					c0.2-0.4,0.3-0.7,0.4-1.1l1.1,0.1c-0.1,0.3-0.3,0.7-0.4,1h4.6v6.8H86V-198.6z M87-196.5h6.8v-1.1H87V-196.5z M87-194.6h6.8v-1.1
					H87V-194.6z M93.8-192.6v-1.2H87v1.2H93.8z M88.5-187c-0.8,0-1.2-0.4-1.2-1.2v-2.7h1v2.5c0,0.3,0.2,0.5,0.5,0.5h3.1
					c0.3,0,0.5-0.1,0.7-0.2c0.2-0.2,0.3-0.8,0.4-1.7l1,0.3c-0.1,1.2-0.3,1.9-0.6,2.2c-0.3,0.2-0.7,0.3-1.2,0.3
					C92.1-187,88.5-187,88.5-187z M90.2-191.3c0.7,0.7,1.3,1.3,1.7,1.9l-0.8,0.5c-0.4-0.6-1-1.3-1.7-2L90.2-191.3z M94.7-191
					c0.9,1.1,1.6,2.1,2.1,3l-0.8,0.6c-0.5-0.9-1.2-1.9-2-3L94.7-191z"/>
				<path fill="#444444" d="M104-192.3h-5.8v-0.9h12.4v0.9H105v1.6h4v0.9h-4v1.9c0.8,0.1,1.6,0.1,2.4,0.1c1.2,0,2.2,0,3.1,0l-0.3,1
					c-0.7,0-1.6,0-2.7,0c-2.3,0-3.9-0.2-4.7-0.5c-0.7-0.3-1.4-0.9-1.9-1.9c-0.5,1-1.2,1.9-2.1,2.6l-0.7-0.8c1.3-1,2.2-2.4,2.6-4.2
					l1,0.2c-0.1,0.6-0.3,1.1-0.5,1.5c0.6,1,1.2,1.6,2,1.9c0.3,0.1,0.5,0.1,0.8,0.2L104-192.3L104-192.3z M100.1-199.1h8.5v4.9h-8.5
					V-199.1z M101.1-197.1h6.5v-1.2h-6.5V-197.1z M107.7-195.1v-1.1h-6.5v1.1H107.7z"/>
				<path fill="#444444" d="M112.7-198.9H124v1h-4.5c-0.2,0.3-0.5,0.6-0.7,0.9v4.5h-1v-3.6c-1.3,1.1-3,2.1-5.2,2.9L112-194
					c3-1.1,5.1-2.4,6.4-3.9h-5.7L112.7-198.9L112.7-198.9z M123-191.9v5.1h-1v-0.7h-7.1v0.7h-1v-5.1
					C113.8-191.9,123-191.9,123-191.9z M114.8-188.5h7.1v-2.5h-7.1V-188.5z M120.4-196.7c1.7,1,3,1.9,4.2,2.9l-0.7,0.7
					c-1-0.9-2.4-1.9-4.1-3L120.4-196.7z"/>
				<path fill="#444444" d="M127.9-196.7h8.9v4.6h-5.3c-0.1,0.3-0.2,0.5-0.4,0.7h7.4v0.8h-3.1c0.7,0.6,1.8,1.1,3.3,1.5l-0.4,0.8
					c-1.8-0.6-3.2-1.4-4-2.3h-3.9c-0.9,1-2.3,1.8-4.2,2.4l-0.4-0.8c1.5-0.4,2.6-1,3.4-1.6h-3.1v-0.8h3.9c0.2-0.2,0.3-0.5,0.4-0.7
					h-2.6L127.9-196.7L127.9-196.7z M128.1-197.9c-0.4,0.5-0.8,1-1.3,1.4L126-197c1-0.8,1.6-1.7,2.1-2.7l1,0.2
					c-0.1,0.3-0.2,0.5-0.4,0.8h3.5v0.8h-1.6c0.2,0.4,0.4,0.7,0.5,0.9l-0.9,0.1c-0.1-0.3-0.3-0.7-0.5-1H128.1z M134-189.8
					c1.1,1,2,1.8,2.6,2.6l-0.8,0.5c-0.3-0.4-0.5-0.6-0.7-0.8c-2.1,0.3-4.3,0.4-6.6,0.5l-0.3-0.8c1.2-0.5,2.3-1.3,3.1-2.4l0.9,0.3
					c-0.6,0.8-1.4,1.5-2.2,2c1.5-0.1,2.9-0.2,4.3-0.4c-0.2-0.3-0.6-0.6-1.2-1.2L134-189.8z M128.9-195.3h7v-0.7h-7V-195.3z
					 M128.9-194.1h7v-0.6h-7V-194.1z M135.8-192.8v-0.7h-7v0.7H135.8z M133.9-197.9c-0.3,0.4-0.6,0.8-0.9,1.2l-0.8-0.5
					c0.7-0.7,1.2-1.5,1.5-2.5l1,0.2c-0.1,0.3-0.2,0.6-0.3,0.8h4.2v0.8h-2.1c0.2,0.3,0.3,0.6,0.5,0.9l-1,0.1c-0.2-0.4-0.3-0.7-0.5-1
					H133.9z"/>
				<path fill="#444444" d="M141.8-188.9c1.2-0.4,2.4-0.9,3.6-1.5l0.2,0.9c-1.5,0.7-3.2,1.4-4.9,1.9l-0.3-0.9
					c0.3-0.1,0.4-0.3,0.4-0.7v-5.2h3.1v-3.3h-3.8v-1h4.8v5.2h-3.1V-188.9L141.8-188.9z M151.3-196.6c-0.1,2.4-0.6,4.4-1.6,6.1
					c0.9,1.2,1.9,2.2,3.2,2.9l-0.6,0.8c-1.2-0.7-2.3-1.7-3.2-2.9c-0.9,1.2-2.1,2.1-3.7,2.9l-0.6-0.8c1.6-0.7,2.8-1.7,3.7-2.9
					c-0.7-1.1-1.3-2.5-1.8-3.9c-0.3,0.6-0.6,1-0.9,1.4l-0.6-0.8c1-1.4,1.7-3.4,2.1-5.8l1,0.2c-0.1,0.6-0.2,1.2-0.4,1.9h4.5v1
					L151.3-196.6L151.3-196.6z M147.7-196.6c-0.1,0.3-0.2,0.6-0.3,0.9c0.4,1.6,1,3,1.8,4.3c0.8-1.4,1.2-3.2,1.2-5.2H147.7z"/>
			</g>
		</g>
	</g>
	<g id="Link21" transform="translate(0,0)">
		<path fill="none" stroke="#888888" d="M213.3,70.3h56v54"/>
	</g>
	<g id="Link17" transform="translate(0,0)">
		<path fill="none" stroke="#888888" d="M213.3,124.3h32l0,0H302"/>
		<g transform="translate(0.5, 0)">
			<polygon fill="#888888" points="299.3,128.8 305.3,124.3 299.3,119.8 			"/>
		</g>
		<path fill="none" stroke="#FF0000" stroke-width="15" stroke-opacity="0" d="M269.3,124.3L269.3,124.3"/>
	</g>
	<g id="Link14_1_" transform="translate(0,0)">
		<g transform="translate(-0.5, 0)">
			<polygon fill="#888888" points="564.6,61.8 570.6,57.3 564.6,52.8 			"/>
		</g>
		<path fill="none" stroke="#888888" d="M568.6,57.3H448.4"/>
	</g>
</g>
<g id="textgroup" transform="translate(0,0)">
</g>
<g id="assistantgroup" transform="translate(0,0)">
</g>
</svg>
