<?xml version="1.0" encoding="utf-8"?>
<!-- Generator: Adobe Illustrator 18.0.0, SVG Export Plug-In . SVG Version: 6.00 Build 0)  -->
<!DOCTYPE svg PUBLIC "-//W3C//DTD SVG 1.1//EN" "http://www.w3.org/Graphics/SVG/1.1/DTD/svg11.dtd">
<svg version="1.1" id="svgwrapper_svg" xmlns="http://www.w3.org/2000/svg" xmlns:xlink="http://www.w3.org/1999/xlink" x="0px"
	 y="0px" width="830px" height="202px" viewBox="0 0 830 202" enable-background="new 0 0 830 202" xml:space="preserve">
<path display="none" fill="none" stroke="#999999" d="M544.2,177.3l87.8,66"/>
<g id="bottomgroup" transform="translate(0,0)">
</g>
<g id="assistantgroup" transform="translate(0,0)">
</g>
<g>
	<g id="ShadowBasicRect1" transform="translate(285,131)">
		<rect x="91" y="-54" opacity="0.6" fill="#BBBBBB" enable-background="new    " width="142.2" height="50"/>
		<rect x="89" y="-56" fill="#FFFFFF" stroke="#E5E5E5" width="142.2" height="50"/>
		<g transform="translate(20 9)">
			<g>
				<path fill="#00A4FF" d="M105-27c-7.2,0-13-5.8-13-13s5.8-13,13-13c6.4,0,11.9,4.7,12.9,11h2c-1.1-8.2-8.7-14-16.9-12.9
					S89-46.2,90.1-38s8.7,14,16.9,12.9c6.7-0.9,12-6.2,12.9-12.9h-2C116.8-31.7,111.4-27,105-27z M112-44l-7-4l-7,4v8l3.2,1.8
					c0.2-0.6,0.5-1.2,1-1.7l-2.2-1.3v-3.7l5,2.9l5-2.9v3.7l-4.1,2.4c-1-0.5-2.2-0.1-2.7,0.9s-0.1,2.2,0.9,2.7s2.2,0.1,2.7-0.9
					c0.1-0.3,0.2-0.6,0.2-0.9v-0.1l5-2.9V-44z M105-40.3l-4.7-2.7l4.7-2.7l4.7,2.7L105-40.3z"/>
			</g>
			<g enable-background="new    ">
				<path fill="#444444" d="M139.1-44.3c0.8,0.6,1.2,1.4,1.3,2.4h-1.1c-0.1-0.7-0.5-1.3-1.1-1.7c-0.5-0.4-1.2-0.6-2-0.6
					c-1.2,0-2.1,0.4-2.7,1.2c-0.6,0.8-0.9,1.8-0.9,3c0,1.3,0.3,2.2,0.9,3c0.6,0.8,1.5,1.2,2.7,1.2c0.8,0,1.5-0.2,2-0.6
					c0.6-0.5,1-1.1,1.2-2h1.1c-0.2,1.2-0.7,2.1-1.6,2.7c-0.8,0.6-1.7,0.9-2.8,0.9c-1.5,0-2.7-0.5-3.6-1.5c-0.7-0.9-1.1-2.1-1.1-3.6
					s0.4-2.7,1.1-3.7c0.8-1.1,2-1.6,3.6-1.6C137.4-45.2,138.4-44.9,139.1-44.3z"/>
				<path fill="#444444" d="M145.1-45h1.3l3.9,10h-1.2l-1.1-2.8h-4.6l-1.1,2.8h-1.2L145.1-45z M143.9-38.8h3.9l-1.9-5h-0.1
					L143.9-38.8z"/>
				<path fill="#444444" d="M152.9-38.4c-0.1,2-0.4,3.6-1,4.8l-0.8-0.7c0.6-1.3,0.8-2.9,0.9-4.8v-6.7h4.1v10.9
					c0,0.9-0.4,1.3-1.2,1.3h-1.1l-0.2-0.9c0.5,0,0.9,0.1,1.1,0.1c0.4,0,0.5-0.3,0.5-0.8v-3.2C155.2-38.4,152.9-38.4,152.9-38.4z
					 M155.2-42.6V-45h-2.3v2.4H155.2z M152.9-41.7v2.3h2.3v-2.3H152.9z M158.2-39.8v6.2h-1v-12.3h5.7c0,1.7-0.1,2.9-0.3,3.4
					c-0.2,0.6-0.7,0.9-1.6,0.9h-1l-0.3-0.9h0.9c0.3,0,0.6,0,0.7-0.1c0.2-0.1,0.3-0.2,0.4-0.4c0.1-0.3,0.2-1,0.2-2.1h-3.7v4.2h4.8
					v0.9c-0.3,1.4-0.7,2.7-1.4,3.7c0.6,0.6,1.4,1.2,2.2,1.7l-0.5,0.9c-0.9-0.5-1.6-1.1-2.3-1.7c-0.6,0.7-1.3,1.3-2.2,1.7l-0.5-0.8
					c0.8-0.4,1.5-1,2-1.7c-0.9-1.1-1.5-2.3-1.8-3.7L158.2-39.8L158.2-39.8z M159.4-39.8c0.3,1.1,0.8,2,1.5,2.9
					c0.5-0.8,0.9-1.8,1.1-2.9H159.4z"/>
				<path fill="#444444" d="M170.2-46.3c-0.1,0.3-0.3,0.7-0.5,1.1h6.1v0.8c-0.9,1-2,1.9-3.3,2.6c1.6,0.7,3.4,1.1,5.3,1.3l-0.5,0.9
					c-2.2-0.3-4.2-0.8-5.9-1.7c-1.7,0.8-3.7,1.4-6,1.7l-0.5-1c2-0.3,3.8-0.7,5.3-1.3c-0.8-0.4-1.5-1-2.2-1.6
					c-0.6,0.5-1.1,0.9-1.8,1.3l-0.6-0.8c1.7-1,2.8-2.2,3.4-3.5L170.2-46.3z M171.6-40.3c0,0.5,0,1-0.1,1.6h4.9
					c0,2.4-0.2,3.8-0.6,4.2c-0.4,0.5-1.1,0.7-2.1,0.7c-0.2,0-0.8,0-1.6-0.1l-0.3-0.9l1.7,0.1c0.8,0,1.4-0.2,1.6-0.5
					c0.2-0.3,0.3-1.2,0.4-2.6h-4.1c-0.1,0.3-0.3,0.7-0.4,1c-0.7,1.3-2.4,2.3-4.9,3.1l-0.7-0.8c2.3-0.7,3.8-1.5,4.5-2.5
					c0.2-0.3,0.3-0.6,0.4-0.8h-4.2v-0.9h4.5c0.1-0.5,0.2-1,0.2-1.6C170.6-40.3,171.6-40.3,171.6-40.3z M174.4-44.3H169l-0.2,0.2
					c0.8,0.7,1.6,1.3,2.6,1.8C172.5-42.9,173.5-43.5,174.4-44.3z"/>
				<path fill="#444444" d="M179.2-41.1h4.7c0.3-0.3,0.5-0.7,0.6-1.1l1,0.1c-0.1,0.3-0.3,0.6-0.5,1h3.6c-0.2-0.4-0.4-0.7-0.6-1
					l0.9-0.3c0.3,0.4,0.5,0.8,0.8,1.2h1.9v0.9h-3.8c0.9,0.9,2.3,1.5,4.1,2l-0.4,0.9c-0.2-0.1-0.5-0.2-1-0.3v4.1h-0.9v-0.6H187v0.6
					h-0.9V-38h3.7c-1.3-0.6-2.3-1.3-3-2.2h-2.4c-0.8,0.9-1.8,1.6-3.1,2.2h3.5v4.4h-0.9v-0.6h-2.4v0.6h-0.9v-4.1l-1.1,0.4l-0.5-0.8
					c1.8-0.5,3.2-1.2,4.1-2.1h-3.9L179.2-41.1L179.2-41.1z M180.4-45.9h4.3v3.4h-4.3V-45.9z M183.7-43.4V-45h-2.4v1.7h2.4V-43.4z
					 M181.4-35.1h2.4v-2.1h-2.4V-35.1z M186.2-45.9h4.4v3.4h-4.4V-45.9z M187-35.1h2.6v-2.1H187V-35.1z M189.6-43.4V-45h-2.5v1.7
					h2.5V-43.4z"/>
			</g>
		</g>
	</g>
	<g id="RectEndPoint2" transform="translate(509,195)">
		<rect x="91" y="-56" opacity="0.6" fill="#BBBBBB" enable-background="new    " width="138" height="50"/>
		<rect x="89" y="-58" fill="#FFFFFF" stroke="#E5E5E5" width="138" height="50"/>
		<g transform="translate(20 9)">
			<g>
				<g>
					<path fill="#878787" d="M101-52.9c2.2,0,4,1.8,4,4s-1.8,4-4,4s-4-1.8-4-4S98.8-52.9,101-52.9 M101-54.9c-3.3,0-6,2.7-6,6
						s2.7,6,6,6s6-2.7,6-6S104.3-54.9,101-54.9z"/>
					<path fill="#878787" d="M105-38.9c3.3,0,6,2.7,6,6v1H91v-1c0-3.3,2.7-6,6-6H105 M105-40.9h-8c-4.4,0-8,3.6-8,8v3h24v-3
						C113-37.3,109.4-40.9,105-40.9z"/>
					<path fill="#878787" d="M114-40.9h-3c0.8,0.6,1.4,1.2,2,2h1c2.2,0,4,1.8,4,4v1h-3c0,0.3,0,0.7,0,1v1h5v-3
						C120-38.2,117.3-40.9,114-40.9z"/>
					<path fill="#878787" d="M110-53.9c-0.8,0-1.6,0.2-2.3,0.6c0.4,0.6,0.7,1.2,0.9,1.8c1.4-0.8,3.3-0.3,4.1,1.1
						c0.8,1.4,0.3,3.3-1.1,4.1c-0.9,0.5-2,0.5-3,0c-0.2,0.6-0.5,1.2-0.9,1.8c0.7,0.4,1.5,0.6,2.3,0.6c2.8,0,5-2.2,5-5
						C115-51.6,112.8-53.9,110-53.9z"/>
				</g>
			</g>
			<g>
				<path fill="#444444" d="M131.6-44.3h3v6c0.4-0.4,0.9-0.8,1.4-1.3l0.3,1.1c-0.8,0.8-1.7,1.5-2.6,2.1l-0.4-0.9
					c0.2-0.2,0.3-0.4,0.3-0.6v-5.4h-2V-44.3z M133.3-48.4c0.9,0.7,1.7,1.5,2.3,2.2l-0.7,0.7c-0.6-0.7-1.3-1.4-2.3-2.2L133.3-48.4z
					 M140.3-46.9h-3.9v-1h7.9v1h-2.9v3.9h2.7v0.9h-2.7v4.8h3.2v1H136v-1h1.4v-7.4h1v7.4h2L140.3-46.9L140.3-46.9z"/>
				<path fill="#444444" d="M150.7-48.6h1v2.5h4.1v0.5l-0.3,3.3h2c0,2.7-0.2,4.3-0.7,4.7c-0.2,0.2-0.5,0.4-0.8,0.4
					c-0.4,0.1-0.7,0.1-0.9,0.1h-0.9l-0.3-1h1.4c0.4,0,0.7-0.1,0.9-0.4c0.2-0.2,0.3-1.2,0.3-3h-4.8v5.7h-1v-5.7h-5v-1h5v-2.8h-4.2v-1
					h4.2V-48.6z M151.7-42.4h2.8l0.3-2.8h-3.1V-42.4z M155.3-48.6c1,0.5,2,1.2,2.8,1.9l-0.5,0.8c-0.9-0.8-1.9-1.5-2.8-2L155.3-48.6z
					"/>
				<path fill="#444444" d="M161.9-40.3c-0.2,1.8-0.7,3.3-1.6,4.5l-0.8-0.7c0.9-1.3,1.4-2.8,1.4-4.7V-48h10.4v10.5
					c0,1-0.5,1.5-1.5,1.5h-1.6l-0.3-1c0.7,0,1.3,0.1,1.6,0.1c0.5,0,0.8-0.3,0.8-0.9v-2.4h-3.8v4.1h-1v-4.1L161.9-40.3L161.9-40.3z
					 M165.5-47H162v2.4h3.6V-47H165.5z M162-43.7v2.5h3.6v-2.5H162z M170.4-44.6V-47h-3.8v2.4H170.4z M170.4-41.2v-2.5h-3.8v2.5
					H170.4z"/>
				<path fill="#444444" d="M176.2-42.1c-0.1,2.5-0.7,4.7-2,6.5l-0.7-0.7c1.1-1.6,1.7-3.6,1.7-6.1v-4.4h4.6
					c-0.3-0.6-0.5-1.2-0.8-1.6l1.1-0.2c0.3,0.5,0.5,1.1,0.8,1.8h4.4v4.7H176.2z M184.2-45.8h-8v2.7h8V-45.8z"/>
			</g>
		</g>
	</g>
	<g id="RectEndPoint3" transform="translate(509,131)">
		<rect x="91" y="-54" opacity="0.6" fill="#BBBBBB" enable-background="new    " width="138" height="50"/>
		<rect x="89" y="-56" fill="#FFFFFF" stroke="#E5E5E5" width="138" height="50"/>
		<g transform="translate(20 9)">
			<g>
				<g>
					<path fill="#878787" d="M101-50.9c2.2,0,4,1.8,4,4s-1.8,4-4,4s-4-1.8-4-4S98.8-50.9,101-50.9 M101-52.9c-3.3,0-6,2.7-6,6
						s2.7,6,6,6s6-2.7,6-6S104.3-52.9,101-52.9z"/>
					<path fill="#878787" d="M105-36.9c3.3,0,6,2.7,6,6v1H91v-1c0-3.3,2.7-6,6-6H105 M105-38.9h-8c-4.4,0-8,3.6-8,8v3h24v-3
						C113-35.3,109.4-38.9,105-38.9z"/>
					<path fill="#878787" d="M114-38.9h-3c0.8,0.6,1.4,1.2,2,2h1c2.2,0,4,1.8,4,4v1h-3c0,0.3,0,0.7,0,1v1h5v-3
						C120-36.2,117.3-38.9,114-38.9z"/>
					<path fill="#878787" d="M110-51.9c-0.8,0-1.6,0.2-2.3,0.6c0.4,0.6,0.7,1.2,0.9,1.8c1.4-0.8,3.3-0.3,4.1,1.1
						c0.8,1.4,0.3,3.3-1.1,4.1c-0.9,0.5-2,0.5-3,0c-0.2,0.6-0.5,1.2-0.9,1.8c0.7,0.4,1.5,0.6,2.3,0.6c2.8,0,5-2.2,5-5
						S112.8-51.9,110-51.9z"/>
				</g>
			</g>
			<g>
				<path fill="#444444" d="M131.6-42.3h3v6c0.4-0.4,0.9-0.8,1.4-1.3l0.3,1.1c-0.8,0.8-1.7,1.5-2.6,2.1l-0.4-0.9
					c0.2-0.2,0.3-0.4,0.3-0.6v-5.4h-2V-42.3z M133.3-46.4c0.9,0.7,1.7,1.5,2.3,2.2l-0.7,0.7c-0.6-0.7-1.3-1.4-2.3-2.2L133.3-46.4z
					 M140.3-44.9h-3.9v-1h7.9v1h-2.9v3.9h2.7v0.9h-2.7v4.8h3.2v1H136v-1h1.4v-7.4h1v7.4h2L140.3-44.9L140.3-44.9z"/>
				<path fill="#444444" d="M150.7-46.6h1v2.5h4.1v0.5l-0.3,3.3h2c0,2.7-0.2,4.3-0.7,4.7c-0.2,0.2-0.5,0.4-0.8,0.4
					c-0.4,0.1-0.7,0.1-0.9,0.1h-0.9l-0.3-1h1.4c0.4,0,0.7-0.1,0.9-0.4c0.2-0.2,0.3-1.2,0.3-3h-4.8v5.7h-1v-5.7h-5v-1h5v-2.8h-4.2v-1
					h4.2V-46.6z M151.7-40.4h2.8l0.3-2.8h-3.1V-40.4z M155.3-46.6c1,0.5,2,1.2,2.8,1.9l-0.5,0.8c-0.9-0.8-1.9-1.5-2.8-2L155.3-46.6z
					"/>
				<path fill="#444444" d="M161.9-38.3c-0.2,1.8-0.7,3.3-1.6,4.5l-0.8-0.7c0.9-1.3,1.4-2.8,1.4-4.7V-46h10.4v10.5
					c0,1-0.5,1.5-1.5,1.5h-1.6l-0.3-1c0.7,0,1.3,0.1,1.6,0.1c0.5,0,0.8-0.3,0.8-0.9v-2.4h-3.8v4.1h-1v-4.1L161.9-38.3L161.9-38.3z
					 M165.5-45H162v2.4h3.6V-45H165.5z M162-41.7v2.5h3.6v-2.5H162z M170.4-42.6V-45h-3.8v2.4H170.4z M170.4-39.2v-2.5h-3.8v2.5
					H170.4z"/>
				<path fill="#444444" d="M176.2-40.1c-0.1,2.5-0.7,4.7-2,6.5l-0.7-0.7c1.1-1.6,1.7-3.6,1.7-6.1v-4.4h4.6
					c-0.3-0.6-0.5-1.2-0.8-1.6l1.1-0.2c0.3,0.5,0.5,1.1,0.8,1.8h4.4v4.7H176.2z M184.2-43.8h-8v2.7h8V-43.8z"/>
			</g>
		</g>
	</g>
	<g id="RectEndPoint4" transform="translate(509,65)">
		<rect x="91" y="-50" opacity="0.6" fill="#BBBBBB" enable-background="new    " width="138" height="50"/>
		<rect x="89" y="-52" fill="#FFFFFF" stroke="#E5E5E5" width="138" height="50"/>
		<g transform="translate(20 9)">
			<g>
				<g>
					<path fill="#878787" d="M101-46.9c2.2,0,4,1.8,4,4s-1.8,4-4,4s-4-1.8-4-4S98.8-46.9,101-46.9 M101-48.9c-3.3,0-6,2.7-6,6
						s2.7,6,6,6s6-2.7,6-6S104.3-48.9,101-48.9z"/>
					<path fill="#878787" d="M105-32.9c3.3,0,6,2.7,6,6v1H91v-1c0-3.3,2.7-6,6-6H105 M105-34.9h-8c-4.4,0-8,3.6-8,8v3h24v-3
						C113-31.3,109.4-34.9,105-34.9z"/>
					<path fill="#878787" d="M114-34.9h-3c0.8,0.6,1.4,1.2,2,2h1c2.2,0,4,1.8,4,4v1h-3c0,0.3,0,0.7,0,1v1h5v-3
						C120-32.2,117.3-34.9,114-34.9z"/>
					<path fill="#878787" d="M110-47.9c-0.8,0-1.6,0.2-2.3,0.6c0.4,0.6,0.7,1.2,0.9,1.8c1.4-0.8,3.3-0.3,4.1,1.1
						c0.8,1.4,0.3,3.3-1.1,4.1c-0.9,0.5-2,0.5-3,0c-0.2,0.6-0.5,1.2-0.9,1.8c0.7,0.4,1.5,0.6,2.3,0.6c2.8,0,5-2.2,5-5
						C115-45.6,112.8-47.9,110-47.9z"/>
				</g>
			</g>
			<g>
				<path fill="#444444" d="M131.6-38.3h3v6c0.4-0.4,0.9-0.8,1.4-1.3l0.3,1.1c-0.8,0.8-1.7,1.5-2.6,2.1l-0.4-0.9
					c0.2-0.2,0.3-0.4,0.3-0.6v-5.4h-2V-38.3z M133.3-42.4c0.9,0.7,1.7,1.5,2.3,2.2l-0.7,0.7c-0.6-0.7-1.3-1.4-2.3-2.2L133.3-42.4z
					 M140.3-40.9h-3.9v-1h7.9v1h-2.9v3.9h2.7v0.9h-2.7v4.8h3.2v1H136v-1h1.4v-7.4h1v7.4h2L140.3-40.9L140.3-40.9z"/>
				<path fill="#444444" d="M150.7-42.6h1v2.5h4.1v0.5l-0.3,3.3h2c0,2.7-0.2,4.3-0.7,4.7c-0.2,0.2-0.5,0.4-0.8,0.4
					c-0.4,0.1-0.7,0.1-0.9,0.1h-0.9l-0.3-1h1.4c0.4,0,0.7-0.1,0.9-0.4c0.2-0.2,0.3-1.2,0.3-3h-4.8v5.7h-1v-5.7h-5v-1h5v-2.8h-4.2v-1
					h4.2V-42.6z M151.7-36.4h2.8l0.3-2.8h-3.1V-36.4z M155.3-42.6c1,0.5,2,1.2,2.8,1.9l-0.5,0.8c-0.9-0.8-1.9-1.5-2.8-2L155.3-42.6z
					"/>
				<path fill="#444444" d="M161.9-34.3c-0.2,1.8-0.7,3.3-1.6,4.5l-0.8-0.7c0.9-1.3,1.4-2.8,1.4-4.7V-42h10.4v10.5
					c0,1-0.5,1.5-1.5,1.5h-1.6l-0.3-1c0.7,0,1.3,0.1,1.6,0.1c0.5,0,0.8-0.3,0.8-0.9v-2.4h-3.8v4.1h-1v-4.1L161.9-34.3L161.9-34.3z
					 M165.5-41H162v2.4h3.6V-41H165.5z M162-37.7v2.5h3.6v-2.5H162z M170.4-38.6V-41h-3.8v2.4H170.4z M170.4-35.2v-2.5h-3.8v2.5
					H170.4z"/>
				<path fill="#444444" d="M176.2-36.1c-0.1,2.5-0.7,4.7-2,6.5l-0.7-0.7c1.1-1.6,1.7-3.6,1.7-6.1v-4.4h4.6
					c-0.3-0.6-0.5-1.2-0.8-1.6l1.1-0.2c0.3,0.5,0.5,1.1,0.8,1.8h4.4v4.7H176.2z M184.2-39.8h-8v2.7h8V-39.8z"/>
			</g>
		</g>
	</g>
	<g id="Textbasic10" transform="translate(194.03607177734375,131)">
		<rect x="84" y="-56" fill="#CEE3FF" fill-opacity="0" width="80" height="20"/>
		<g transform="translate(0 0)">
			<g enable-background="new    ">
				<path fill="#878787" d="M85.2-52.9h4.1v0.8c-0.4,1.3-0.9,2.6-1.4,3.9c0.9,1.2,1.3,2.4,1.4,3.3c0,0.6-0.1,1-0.4,1.3
					c-0.4,0.3-1,0.5-2,0.5l-0.3-1c0.3,0,0.5,0.1,0.5,0.1c0.5,0,0.8-0.1,1-0.2c0.2-0.1,0.2-0.3,0.2-0.6c0-0.9-0.5-2-1.4-3.2
					c0.6-1.5,1.1-2.8,1.4-3.9h-2.2v11.3h-1v-12.3H85.2z M92.8-53.2c-0.2,0.3-0.3,0.6-0.5,0.9h4v0.8c-0.4,0.9-1.1,1.7-2.1,2.4
					c1,0.4,2.1,0.7,3.3,0.9l-0.4,0.9c-1.5-0.3-2.8-0.7-3.9-1.2c-1,0.5-2.3,1-3.7,1.3L89-48.1c1.3-0.3,2.4-0.6,3.3-1
					c-0.6-0.4-1.1-0.9-1.5-1.4c-0.4,0.3-0.7,0.6-1,0.9l-0.6-0.8c1.1-0.8,2-1.8,2.7-3.1L92.8-53.2z M89.6-42.9l0.6-2.3l1,0.1
					l-0.4,1.2H93v-2h-3.3v-0.9H93v-1h1v1h2.5v0.9H94v2h3v0.9h-3v2.3h-1V-43C93.1-42.9,89.6-42.9,89.6-42.9z M95.2-51.5h-3.6
					l-0.2,0.3c0.4,0.6,1,1.1,1.8,1.6C94.1-50.1,94.7-50.7,95.2-51.5z"/>
				<path fill="#878787" d="M102.6-53c-0.3,1-0.8,2.1-1.3,3v9.4h-1v-7.9c-0.5,0.6-1,1.3-1.5,1.8l-0.3-1.1c1.5-1.7,2.6-3.6,3.3-5.7
					L102.6-53z M104.1-47.3v5c0.3-0.1,0.8-0.3,1.3-0.6l0.2,0.9c-0.7,0.3-1.6,0.6-2.6,0.9l-0.3-0.9c0.3-0.1,0.4-0.3,0.4-0.5v-9.2
					c3-0.4,5.3-1,6.9-1.5l0.6,0.8c-0.7,0.2-1.5,0.5-2.5,0.7c0,1.2,0,2.4,0.1,3.4h3v1h-2.9c0,0.5,0.1,1,0.2,1.6
					c0.2,1.2,0.5,2.2,0.8,2.8s0.6,0.9,0.7,0.9c0.2,0,0.4-0.8,0.5-2.3l0.8,0.5c-0.3,2-0.7,3-1.2,3c-0.4,0-0.9-0.4-1.4-1.1
					c-0.5-0.8-0.9-1.9-1.2-3.4c-0.1-0.6-0.2-1.2-0.3-1.9C107.3-47.3,104.1-47.3,104.1-47.3z M104.1-50.9v2.6h3.2
					c-0.1-1-0.1-2-0.1-3.2C106.3-51.3,105.3-51.1,104.1-50.9z M106.4-43.7c0.8,1,1.4,1.8,1.8,2.5l-0.8,0.5c-0.5-0.8-1-1.7-1.8-2.6
					L106.4-43.7z"/>
				<path fill="#878787" d="M113.8-50.7c0,1.4-0.2,2.7-0.5,4l-0.8-0.2c0.3-1.2,0.5-2.5,0.5-3.8H113.8z M114.5-53.4h1v12.7h-1V-53.4z
					 M116.6-51c0.3,0.7,0.6,1.5,0.8,2.4c0.5-1.2,0.8-2.5,0.8-3.9l0.9,0.1c0,0.6-0.1,1.1-0.2,1.7h2v-2.6h1v2.6h3.1v1h-3v3.4h2.8v1
					H122v3.4h3.4v1h-8.5v-1h4v-3.4h-3.2v-1h3.2v-3.4h-2.2c-0.3,1-0.6,2-1.1,2.8l-0.8-0.7c0.2-0.3,0.3-0.6,0.4-0.9l-0.7,0.2
					c-0.2-0.9-0.5-1.7-0.8-2.5L116.6-51z"/>
				<path fill="#878787" d="M131.7-52.4c0.9,1.2,1.5,2.2,2,3l-0.8,0.6c-0.1-0.3-0.3-0.6-0.5-0.9c-1.4,0.2-3.2,0.4-5.4,0.5l-0.3-0.8
					c0.2,0,0.3-0.1,0.5-0.3c0.9-0.9,1.6-1.9,2.2-3l1,0.3c-0.7,1.3-1.4,2.2-2.1,2.9c1.2-0.1,2.5-0.2,3.7-0.4c-0.3-0.5-0.6-1-1-1.4
					L131.7-52.4z M128.5-43.2v2.7h-1v-7.9h5.2v6.6c0,0.8-0.4,1.2-1.2,1.2h-1.2l-0.3-1h1.1c0.4,0,0.5-0.2,0.5-0.5v-1.1H128.5
					L128.5-43.2z M131.8-46.2v-1.3h-3.3v1.3H131.8z M128.5-45.4v1.3h3.3v-1.3H128.5z M135.3-47.4c-0.9,0-1.3-0.5-1.3-1.4v-4.7h1v1.9
					c1.5-0.2,2.8-0.5,3.8-0.7l0.3,0.9c-1.2,0.3-2.6,0.6-4.1,0.8v1.7c0,0.5,0.2,0.7,0.6,0.7h1.8c0.3,0,0.5-0.1,0.6-0.2
					c0.1-0.2,0.2-0.7,0.3-1.6l0.9,0.3c-0.1,1.1-0.3,1.8-0.5,2.1c-0.2,0.2-0.6,0.3-1.1,0.3C137.6-47.4,135.3-47.4,135.3-47.4z
					 M135-42.2c0,0.3,0.2,0.5,0.5,0.5h1.8c0.3,0,0.5-0.1,0.6-0.2c0.1-0.2,0.2-0.7,0.3-1.6l0.9,0.3c-0.1,1.1-0.3,1.8-0.5,2.1
					c-0.2,0.2-0.6,0.3-1.1,0.3h-2.3c-0.8,0-1.3-0.4-1.3-1.2v-4.8h1v1.7c1.4-0.1,2.7-0.4,3.8-0.7l0.3,0.9c-1.2,0.4-2.6,0.6-4.1,0.7v2
					H135z"/>
				<path fill="#878787" d="M151.7-49.8v6.4h-1v-5.4h-6.9v5.5h-1v-6.1c-0.4,0.3-0.8,0.6-1.3,0.9l-0.6-0.8c1.7-1,3.1-2.4,4.2-4.1
					l1,0.2c-0.2,0.4-0.5,0.7-0.6,1h4.6v0.7c-0.5,0.7-1,1.2-1.5,1.7C148.7-49.8,151.7-49.8,151.7-49.8z M146.8-48.1h1v1.9
					c-0.1,1.5-0.5,2.7-1.5,3.6c-0.9,0.8-2.4,1.5-4.4,1.9l-0.5-0.9c2-0.4,3.4-1,4.2-1.8c0.7-0.7,1.1-1.7,1.2-2.9V-48.1L146.8-48.1z
					 M147.5-49.8c0.5-0.4,1-1,1.4-1.5h-4.1c-0.4,0.5-0.9,1-1.5,1.5H147.5z M148.1-43.8c1.9,0.7,3.6,1.5,5.1,2.4l-0.6,0.9
					c-1.6-1.1-3.3-1.9-5-2.5L148.1-43.8z"/>
				<path fill="#878787" d="M156.4-46.9c-0.5,0.6-1,1.2-1.5,1.7l-0.3-1c1.2-1.3,2.1-2.7,2.7-4.4l0.9,0.4c-0.2,0.6-0.4,1.1-0.7,1.7
					v7.9h-1L156.4-46.9L156.4-46.9z M155-52.3h3v-1.1h1v1.1h4.1v-1.1h1v1.1h3v0.9h-3v1.3h-1v-1.3H159v1.1h-1v-1.1h-3V-52.3z
					 M158.6-49.5h8.5v0.9h-1.2v6.5c0,0.9-0.4,1.4-1.3,1.4h-2.2l-0.2-0.9c0.8,0,1.5,0.1,2.1,0.1c0.4,0,0.7-0.3,0.7-0.8v-6.2h-6.3v-1
					H158.6z M159.1-47.1h4.3v3.8h-4.3V-47.1z M162.4-44.1v-2.1H160v2.1H162.4z"/>
			</g>
		</g>
	</g>
	<g>
		<rect x="94" y="77" opacity="0.6" fill="#BBBBBB" enable-background="new    " width="179" height="50"/>
		<rect x="92" y="75" fill="#FFFFFF" stroke="#E5E5E5" width="179" height="50"/>
		<g enable-background="new    ">
			<path fill="#444444" d="M155,106.2l-0.2-1c0.4,0,0.8,0.1,1.1,0.1c0.4,0,0.7-0.2,0.7-0.7v-3.2c-0.6,0.2-1.2,0.4-1.8,0.6l-0.3-1
				c0.7-0.2,1.4-0.4,2.1-0.6v-3.3h-1.8v-1h1.8v-2.6h1v2.6h1.7v1h-1.7v2.9c0.6-0.3,1.2-0.5,1.8-0.8v1c-0.7,0.3-1.3,0.6-1.8,0.8v3.9
				c0,0.9-0.4,1.3-1.3,1.3L155,106.2L155,106.2z M158.8,105.8c0.7-0.6,1.3-1.3,1.6-2.1c0.3-0.6,0.4-1.6,0.4-2.8V98h4.4v6.9
				c0,0.3,0.1,0.4,0.4,0.4h0.4c0.1,0,0.2,0,0.3-0.1c0.1,0,0.1-0.1,0.2-0.1c0.1-0.1,0.1-0.8,0.1-1.9l0.9,0.3c0,0.7,0,1.3-0.1,1.8
				c-0.1,0.4-0.2,0.6-0.4,0.8c-0.2,0.1-0.5,0.2-0.9,0.2h-0.5c-0.9,0-1.3-0.4-1.3-1.2V99h-2.5v2c0,1.2-0.2,2.3-0.5,3.1
				c-0.3,0.8-0.9,1.7-1.7,2.5L158.8,105.8z M159.7,95.4h3.1c-0.3-0.7-0.5-1.3-0.8-1.8l1-0.2c0.3,0.5,0.5,1.2,0.8,1.9h3v1h-7.1V95.4
				L159.7,95.4z"/>
			<path fill="#444444" d="M168.7,98h12.5v0.8h-12.5V98z M170.1,99.4h9.7v3.6h-4.4v0.8h4.7v0.7h-4.7v0.8h5.8v0.8h-12.5v-0.8h5.7
				v-0.8h-4.7v-0.7h4.7V103h-4.3V99.4z M170.5,93.8h9.1v3.5h-9.1V93.8z M171.1,100.9h3.4V100h-3.4V100.9z M174.5,102.4v-0.9h-3.4
				v0.9H174.5z M171.4,95.2h7.2v-0.8h-7.2V95.2z M178.6,96.6v-0.8h-7.2v0.8H178.6z M175.5,100.1v0.9h3.4v-0.9H175.5z M178.9,102.4
				v-0.9h-3.4v0.9H178.9z"/>
			<path fill="#444444" d="M182.9,99.6h5.9v-2c1.2-0.7,2.3-1.5,3.4-2.5h-7.9v-1h9.2v1c-1.1,1.1-2.4,2.1-3.8,3v1.5h5.3v1h-5.3v4.4
				c0,0.9-0.4,1.3-1.3,1.3H186l-0.3-1c0.7,0,1.5,0,2.3,0c0.4,0,0.7-0.2,0.7-0.7v-4.1h-5.9v-0.9H182.9z"/>
			<path fill="#444444" d="M203.3,97c1.7,1.3,3.8,2.3,6,3l-0.5,0.9c-2.3-0.8-4.3-1.8-5.9-3.1c-1.5,1.2-3.4,2.2-5.9,3l-0.5-0.9
				c2.4-0.8,4.4-1.8,6-3L203.3,97L203.3,97z M198.8,95.7c-0.4,0.7-0.8,1.4-1.2,1.9l-0.9-0.5c0.9-1.1,1.5-2.2,1.9-3.5l1,0.2
				c-0.1,0.2-0.2,0.6-0.4,1h3.7v0.9h-2c0.3,0.6,0.4,1,0.6,1.4l-0.9,0.3c-0.2-0.6-0.4-1.2-0.6-1.7C200,95.7,198.8,95.7,198.8,95.7z
				 M207.3,101.8c-0.4,1.2-0.8,2.2-1.3,3.1h3v0.9h-11.8V105h7.7c0.5-0.9,1-2.1,1.4-3.4L207.3,101.8z M199.6,101.8
				c0.4,0.7,0.8,1.6,1.1,2.6l-0.9,0.2c-0.3-0.9-0.6-1.8-1.1-2.6L199.6,101.8z M199.4,100.1h7.3v0.9h-7.3V100.1z M202.8,101.5
				c0.3,0.9,0.6,1.8,0.9,2.8l-0.9,0.2c-0.2-1-0.5-1.9-0.9-2.7L202.8,101.5z M204.7,95.7c-0.3,0.5-0.5,1-0.8,1.4l-0.9-0.5
				c0.7-0.9,1.1-1.9,1.4-3l1,0.2c-0.1,0.2-0.2,0.6-0.3,1h4.1v0.9H207c0.3,0.5,0.6,1,0.7,1.5l-0.9,0.3c-0.3-0.7-0.5-1.3-0.8-1.8
				H204.7L204.7,95.7z"/>
			<path fill="#444444" d="M215,105.5v0.8h-1v-4.9c-0.8,0.3-1.8,0.5-2.8,0.8l-0.5-1c2.5-0.5,4.5-1.2,6-2c-0.6-0.5-1.5-1.1-2.5-1.7
				l0.9-0.5c1.1,0.7,1.9,1.3,2.5,1.8c1.4-0.8,2.5-1.8,3.1-3h-5.2c-1,0.9-2.2,1.7-3.6,2.4l-0.7-0.9c2.4-1,4-2.3,4.8-3.8l1.1,0.1
				c-0.2,0.4-0.5,0.8-0.8,1.2h5.5v0.9c-1,1.9-2.8,3.5-5.4,4.7h5.8v5.9h-1v-0.8H215L215,105.5z M221.2,104.6v-3.2H215v3.2H221.2z"/>
			<path fill="#444444" d="M226.5,101.6c-0.1,2-0.4,3.6-1,4.8l-0.8-0.7c0.5-1.3,0.8-2.9,0.9-4.8v-6.7h4.1v10.9
				c0,0.9-0.4,1.3-1.2,1.3h-1.1l-0.2-0.9c0.5,0,0.9,0.1,1.1,0.1c0.4,0,0.5-0.3,0.5-0.8v-3.1L226.5,101.6L226.5,101.6z M228.8,97.4
				V95h-2.3v2.4H228.8z M226.5,98.3v2.3h2.3v-2.3H226.5z M231.9,100.2v6.2h-1V94.2h5.7c0,1.7-0.1,2.9-0.3,3.4
				c-0.2,0.6-0.7,0.9-1.6,0.9h-1.1l-0.3-0.9h0.9c0.3,0,0.6,0,0.7-0.1c0.2-0.1,0.3-0.2,0.4-0.4c0.1-0.3,0.2-1,0.2-2.1h-3.7v4.2h4.8
				v0.9c-0.3,1.4-0.7,2.7-1.4,3.7c0.6,0.6,1.4,1.2,2.2,1.7l-0.5,0.9c-0.9-0.5-1.6-1.1-2.3-1.7c-0.6,0.7-1.3,1.3-2.2,1.7l-0.5-0.8
				c0.8-0.4,1.5-1,2-1.7c-0.9-1.1-1.5-2.3-1.8-3.7H231.9L231.9,100.2z M233.1,100.2c0.3,1.1,0.8,2,1.5,2.9c0.5-0.8,0.9-1.8,1.1-2.9
				H233.1z"/>
			<path fill="#444444" d="M243.8,93.7c-0.1,0.3-0.3,0.7-0.5,1.1h6.1v0.8c-0.9,1-2,1.9-3.3,2.6c1.6,0.7,3.4,1.1,5.3,1.3l-0.5,0.9
				c-2.2-0.3-4.2-0.8-5.9-1.7c-1.7,0.8-3.7,1.4-6,1.7l-0.5-1c2-0.3,3.8-0.7,5.3-1.3c-0.8-0.4-1.5-1-2.2-1.6
				c-0.6,0.5-1.1,0.9-1.8,1.3l-0.6-0.8c1.7-1,2.8-2.1,3.4-3.5L243.8,93.7z M245.2,99.7c0,0.5,0,1-0.1,1.6h4.9c0,2.4-0.2,3.8-0.6,4.2
				c-0.4,0.5-1.1,0.7-2.1,0.7c-0.2,0-0.8,0-1.6-0.1l-0.3-0.9l1.7,0.1c0.8,0,1.4-0.2,1.6-0.5c0.2-0.3,0.3-1.2,0.4-2.6H245
				c-0.1,0.3-0.3,0.7-0.4,1.1c-0.7,1.3-2.4,2.3-4.9,3.1l-0.7-0.8c2.3-0.7,3.8-1.5,4.5-2.5c0.2-0.3,0.3-0.6,0.4-0.8h-4.2v-0.9h4.5
				c0.1-0.5,0.2-1,0.2-1.6L245.2,99.7L245.2,99.7z M248,95.7h-5.3l-0.2,0.2c0.8,0.7,1.6,1.3,2.6,1.8C246.1,97.1,247.1,96.5,248,95.7
				z"/>
		</g>
		<g>
			<g>
				<path fill="#00A4FF" d="M115.3,100.8l5.1-9.2c0.2,0.1,0.4,0.2,0.6,0.2c1.1,0,2-1.9,2-3s-0.9-2-2-2s-2,0.9-2,2
					c0,0.4,0.1,0.8,0.3,1.2l-6.3,10.8l8,14h13v-2h-12L115.3,100.8z M123,102.2c0,0,0,5.2,6,6.6c6-1.4,6-6.6,6-6.6v-2.4h-2v2.3
					c0,0,0,3.7-4,4.8c-4-1-4-4.8-4-4.8v-5.3h4v-2h-6V102.2z M145,100.8l-8-14h-13v2h12l6.7,12l-5.6,10H137c-1.1,0-2,0.9-2,2
					s0.9,2,2,2s2-0.9,2-2c0-0.4-0.1-0.8-0.3-1.1L145,100.8z M129.1,102.1l6.1-6.1l-1.4-1.4l-6.1,6.1L129.1,102.1z"/>
			</g>
		</g>
	</g>
	<g id="middlegroup" transform="translate(0,0)">
		<g id="Link7" transform="translate(0,0)">
			<path fill="none" stroke="#888888" d="M516.7,99.5h37.8l0,0h36"/>
			<g transform="translate(0.5, 0)">
				<polygon fill="#888888" points="585.5,104 591.5,99.5 585.5,95 				"/>
			</g>
			<path fill="none" stroke="#FF0000" stroke-width="15" stroke-opacity="0" d="M554.5,99.5L554.5,99.5"/>
			<path fill="none" stroke="#FF0000" stroke-width="15" stroke-opacity="0" d="M554.5,99.5h36"/>
		</g>
		<g id="Link8" transform="translate(0,0)">
			<path fill="none" stroke="#888888" d="M516.7,99.5h37.8v-60h36"/>
			<g transform="translate(0.5, 0)">
				<polygon fill="#888888" points="585.5,44 591.5,39.5 585.5,35 				"/>
			</g>
			<path fill="none" stroke="#FF0000" stroke-width="15" stroke-opacity="0" d="M526.7,99.5h27.8"/>
			<path fill="none" stroke="#FF0000" stroke-width="15" stroke-opacity="0" d="M554.5,99.5v-60"/>
			<path fill="none" stroke="#FF0000" stroke-width="15" stroke-opacity="0" d="M554.5,39.5h36"/>
		</g>
		<g id="Link9" transform="translate(0,0)">
			<path fill="none" stroke="#888888" d="M521.7,99.5h32.8v64h36"/>
			<g transform="translate(0.5, 0)">
				<polygon fill="#888888" points="585.5,168 591.5,163.5 585.5,159 				"/>
			</g>
			<path fill="none" stroke="#FF0000" stroke-width="15" stroke-opacity="0" d="M554.5,99.5v64"/>
			<path fill="none" stroke="#FF0000" stroke-width="15" stroke-opacity="0" d="M554.5,163.5h36"/>
		</g>
		<g id="Link6" transform="translate(0,0)">
			<path fill="none" stroke="#888888" d="M271.5,99.5h48l0,0h48"/>
			<g transform="translate(0.5, 0)">
				<polygon fill="#888888" points="362.5,104 368.5,99.5 362.5,95 				"/>
			</g>
			<path fill="none" stroke="#FF0000" stroke-width="15" stroke-opacity="0" d="M271.5,99.5h48"/>
			<path fill="none" stroke="#FF0000" stroke-width="15" stroke-opacity="0" d="M319.5,99.5L319.5,99.5"/>
			<path fill="none" stroke="#FF0000" stroke-width="15" stroke-opacity="0" d="M319.5,99.5h48"/>
		</g>
	</g>
</g>
</svg>
