<?xml version="1.0" encoding="utf-8"?>
<!-- Generator: Adobe Illustrator 19.0.0, SVG Export Plug-In . SVG Version: 6.00 Build 0)  -->
<svg version="1.1" id="图层_1" xmlns="http://www.w3.org/2000/svg" xmlns:xlink="http://www.w3.org/1999/xlink" x="0px" y="0px"
	 viewBox="0 0 48 48" style="enable-background:new 0 0 48 48;" xml:space="preserve">
<style type="text/css">
	.st0{fill:#00A4FF;}
</style>
<g>
	<g>
		<path class="st0" d="M44,18.5V35L24,46L4,35V13L24,2l20,11l1.7-1.2L24,0L2,12v24l22,12l22-12V17.5L44,18.5z M13,18v12l11,6l11-6
			V18l-11-6L13,18z M23,33.4L15,29v-8l8,4.4V33.4z M33,29l-8,4.4v-8l8-4.4V29z M24,24l-9-5l9-5l9,5L24,24z"/>
	</g>
</g>
</svg>
