<svg xmlns="http://www.w3.org/2000/svg" width="48" height="48" viewBox="0 0 48 48">
  <metadata><?xpacket begin="﻿" id="W5M0MpCehiHzreSzNTczkc9d"?>
<x:xmpmeta xmlns:x="adobe:ns:meta/" x:xmptk="Adobe XMP Core 5.6-c142 79.160924, 2017/07/13-01:06:39        ">
   <rdf:RDF xmlns:rdf="http://www.w3.org/1999/02/22-rdf-syntax-ns#">
      <rdf:Description rdf:about=""/>
   </rdf:RDF>
</x:xmpmeta>
                                                                                                    
                                                                                                    
                                                                                                    
                                                                                                    
                                                                                                    
                                                                                                    
                                                                                                    
                                                                                                    
                                                                                                    
                                                                                                    
                                                                                                    
                                                                                                    
                                                                                                    
                                                                                                    
                                                                                                    
                                                                                                    
                                                                                                    
                                                                                                    
                                                                                                    
                                                                                                    
                           
<?xpacket end="w"?></metadata>
<defs>
    <style>
      .cls-1 {
        fill: #7c848e;
        fill-rule: evenodd;
      }
    </style>
  </defs>
  <path id="熵源真随机" class="cls-1" d="M539,1271A24,24,0,1,1,563,1247,24,24,0,0,1,539,1271Zm0-45.99A22,22,0,1,0,561,1247,21.992,21.992,0,0,0,539,1225.01Zm3,32.99v-2h4.558l-5.3-5.31,1.429-1.43,5.311,5.32V1250h2v8h-8Zm6-18.32-17.72,17.72-1.414-1.41L546.851,1238H542v-2h8v8h-2v-4.32Zm0-1.68h-0.35l0.35,0.35V1238Zm-18.993.42,1.427-1.43,6.6,6.61-1.428,1.43Z" transform="translate(-515 -1223)"/>
</svg>
