<?xml version="1.0" encoding="utf-8"?>
<!-- Generator: Adobe Illustrator 19.0.0, SVG Export Plug-In . SVG Version: 6.00 Build 0)  -->
<svg version="1.1" id="图层_1" xmlns="http://www.w3.org/2000/svg" xmlns:xlink="http://www.w3.org/1999/xlink" x="0px" y="0px"
	 viewBox="0 0 48 48" style="enable-background:new 0 0 48 48;" xml:space="preserve">
<style type="text/css">
	.st0{fill-rule:evenodd;clip-rule:evenodd;fill:#7C848E;}
</style>
<g id="XMLID_2_">
	<g id="XMLID_53_">
		<path id="XMLID_54_" class="st0" d="M3,24C3,16.2,7.2,9.5,13.5,5.8l-1-1.7C5.6,8.1,1,15.5,1,24C1,32.5,5.6,40,12.5,43.9l1-1.7
			C7.2,38.6,3,31.8,3,24z M29.6,12.3l-1,1.7c0,0,0,0,0,0l-4.7,8c-1,0.1-1.9,0.9-1.9,2c0,1.1,0.9,2,2,2s2-0.9,2-2
			c0-0.4-0.1-0.8-0.3-1.1l4.7-7.9c2.8,2,4.7,5.3,4.7,9c0,6.1-4.9,11-11,11s-11-4.9-11-11c0-4.1,2.2-7.6,5.5-9.5l-1-1.7
			C13.6,15,11,19.2,11,24c0,7.2,5.8,13,13,13s13-5.8,13-13C37,18.8,34,14.4,29.6,12.3z M35.5,4.1l-1,1.7C40.8,9.5,45,16.2,45,24
			c0,7.8-4.2,14.5-10.5,18.2l1,1.7C42.4,39.9,47,32.5,47,24C47,15.5,42.4,8.1,35.5,4.1z"/>
	</g>
</g>
</svg>
