<?xml version="1.0" encoding="utf-8"?>
<!-- Generator: Adobe Illustrator 22.0.1, SVG Export Plug-In . SVG Version: 6.00 Build 0)  -->
<svg version="1.1" id="图层_1" xmlns="http://www.w3.org/2000/svg" xmlns:xlink="http://www.w3.org/1999/xlink" x="0px" y="0px"
	 width="96px" height="96px" viewBox="0 0 96 96" style="enable-background:new 0 0 96 96;" xml:space="preserve">
<style type="text/css">
	.st0{opacity:0.1;}
	.st1{fill:#7C848E;}
</style>
<g class="st0">
	<g>
		<path class="st1" d="M88.6,73.5h-17l5.5,22h17.1L88.6,73.5z M43.6,71.5h-15v24h41l4-9h-30V71.5z M51.8,83.5h17.7l-4-13h-18
			L51.8,83.5z M41.6,20.5h-33l0,31h33v6h-36v10h69l1,3h16l-7-19h5l0-31h-33v-6h35v-8h-35v-6h-15v6H5.5v8h36.1V20.5z M41.6,43.5h-18
			v-4h18V43.5z M41.6,31.5h-18v-4h18V31.5z M54.6,2.5v6h35v4h-35v10h33v27h-33v10h20l-3-8h10.2l6.8,17l-11,0.1l-1.3-3.1H43.6
			L43.6,2.5H54.6z M71.4,57.5H56.6v-6h12.6L71.4,57.5z M3.6,95.5h17.2l4.7-22h-17L3.6,95.5z M56.6,43.5h18v-4h-18V43.5z M74.5,27.5
			h-18v4h18V27.5z"/>
	</g>
</g>
</svg>
