<?xml version="1.0" encoding="utf-8"?>
<!-- Generator: Adobe Illustrator 17.0.0, SVG Export Plug-In . SVG Version: 6.00 Build 0)  -->
<!DOCTYPE svg PUBLIC "-//W3C//DTD SVG 1.1//EN" "http://www.w3.org/Graphics/SVG/1.1/DTD/svg11.dtd">
<svg version="1.1" id="图层_1" xmlns="http://www.w3.org/2000/svg" xmlns:xlink="http://www.w3.org/1999/xlink" x="0px" y="0px"
	 width="48px" height="48px" viewBox="267 -10 48 48" style="enable-background:new 267 -10 48 48;" xml:space="preserve">
<style type="text/css">
	.st0{opacity:0.2;fill:#FFFFFF;}
	.st1{enable-background:new    ;}
	.st2{fill:#0085F6;}
	.st3{fill:url(#SVGID_1_);}
	.st4{fill:url(#SVGID_2_);}
	.st5{fill:url(#SVGID_3_);}
	.st6{fill:#00a4ff;}
	.st7{fill:#7C848E;}
	.st8{fill-rule:evenodd;clip-rule:evenodd;fill:#00a4ff;}
	.st9{fill:#2274E5;}
	.st10{fill:url(#SVGID_4_);}
	.st11{fill:#00A4FF;}
</style>
<g>
	<polygon class="st7" points="313,-8 275,-8 269,-2 269,30 275,36 307,36 313,30 313,0 311,0 311,29 306,34 276,34 271,29 271,-1 
		276,-6 313,-6 	"/>
	<path class="st7" d="M302,12V5h0V3h-22v0h0v9h0h2h4l-2,2v2h8h2h6v5h-2v2h4v0h0v-7v-2h-2h-4l2-2h0v-2h-8h-2h-6V5h18v7H302z M296,12
		l-2,2h-8l2-2H296z"/>
	<polygon class="st7" points="293.6,23 296,26 298,26 294,21 292,21 292,21 282,21 282,14 280,14 280,23 280,23 280,23 	"/>
</g>
</svg>
