<?xml version="1.0" encoding="utf-8"?>
<!-- Generator: Adobe Illustrator 17.0.0, SVG Export Plug-In . SVG Version: 6.00 Build 0)  -->
<!DOCTYPE svg PUBLIC "-//W3C//DTD SVG 1.1//EN" "http://www.w3.org/Graphics/SVG/1.1/DTD/svg11.dtd">
<svg version="1.1" id="图层_1" xmlns="http://www.w3.org/2000/svg" xmlns:xlink="http://www.w3.org/1999/xlink" x="0px" y="0px"
	 width="48px" height="48px" viewBox="325 -10 48 48" style="enable-background:new 325 -10 48 48;" xml:space="preserve">
<style type="text/css">
	.st0{opacity:0.2;fill:#FFFFFF;}
	.st1{enable-background:new    ;}
	.st2{fill:#0085F6;}
	.st3{fill:url(#SVGID_1_);}
	.st4{fill:url(#SVGID_2_);}
	.st5{fill:url(#SVGID_3_);}
	.st6{fill:#00a4ff;}
	.st7{fill:#757A80;}
	.st8{fill-rule:evenodd;clip-rule:evenodd;fill:#00a4ff;}
	.st9{fill:#2274E5;}
	.st10{fill:url(#SVGID_4_);}
	.st11{fill:#00A4FF;}
</style>
<g>
	<polygon class="st11" points="371,-8 333,-8 327,-2 327,30 333,36 365,36 371,30 371,0 369,0 369,29 364,34 334,34 329,29 329,-1 
		334,-6 371,-6 	"/>
	<path class="st11" d="M360,12V5h0V3h-22v0h0v9h0h2h4l-2,2v2h8h2h6v5h-2v2h4v0h0v-7v-2h-2h-4l2-2h0v-2h-8h-2h-6V5h18v7H360z M354,12
		l-2,2h-8l2-2H354z"/>
	<polygon class="st11" points="351.6,23 354,26 356,26 352,21 350,21 350,21 340,21 340,14 338,14 338,23 338,23 338,23 	"/>
</g>
</svg>
