<?xml version="1.0" encoding="UTF-8"?>
<svg width="48px" height="48px" viewBox="0 0 48 48" version="1.1" xmlns="http://www.w3.org/2000/svg" xmlns:xlink="http://www.w3.org/1999/xlink">
    <!-- Generator: Sketch 47.1 (45422) - http://www.bohemiancoding.com/sketch -->
    <title>Page 1</title>
    <desc>Created with Sketch.</desc>
    <defs></defs>
    <g id="Page-2" stroke="none" stroke-width="1" fill="none" fill-rule="evenodd">
        <g id="Artboard-2" transform="translate(-400.000000, -4834.000000)" fill="#7C848E">
            <g id="Page-1" transform="translate(400.000000, 4834.000000)">
                <polygon id="Fill-1" points="15 13 24 13 24 11 15 11"></polygon>
                <polygon id="Fill-2" points="15 21 24 21 24 19 15 19"></polygon>
                <polygon id="Fill-3" points="15 29 41 29 41 27 15 27"></polygon>
                <polygon id="Fill-4" points="32.5503 21 33.9643 19.586 41.0003 12.55 39.5863 11.136 32.5503 18.171 29.1893 14.811 27.7753 16.225 31.1363 19.586"></polygon>
                <polygon id="Fill-5" points="15 37 41 37 41 35 15 35"></polygon>
                <path d="M46,43 C46,44.654 44.654,46 43,46 L13,46 L11.315,46 L8.978,46 C9.61,45.162 10,44.131 10,43 L10,21 L10,19 L10,17 L10,15 L10,2 L46,2 L46,43 Z M8,0 L8,15 L8,17 L8,19 L8,21 L8,22 L8,43 C8,44.654 6.654,46 5,46 C3.346,46 2,44.654 2,43 L2,21 L5,21 L5,19 L0,19 L0,43 C0,45.761 2.239,48 5,48 L9.89,48 L13,48 L43,48 C45.761,48 48,45.761 48,43 L48,0 L8,0 Z" id="Fill-6"></path>
            </g>
        </g>
    </g>
</svg>