<?xml version="1.0" encoding="utf-8"?>
<!-- Generator: Adobe Illustrator 19.0.0, SVG Export Plug-In . SVG Version: 6.00 Build 0)  -->
<svg version="1.1" id="图层_1" xmlns="http://www.w3.org/2000/svg" xmlns:xlink="http://www.w3.org/1999/xlink" x="0px" y="0px"
	 viewBox="0 0 48 48" style="enable-background:new 0 0 48 48;" xml:space="preserve">
<style type="text/css">
	.st0{fill:#7C848E;}
</style>
<g>
	<g>
		<path class="st0" d="M1,4v40h46V4H1z M45,42H3V14h42V42z M45,12H3V6h42V12z M43,8h-4v2h4V8z M37,8h-4v2h4V8z M16.4,33.7L10.8,28
			l5.7-5.7L15,20.9L7.9,28l7.1,7.1L16.4,33.7z M33.3,35l5.3-5.6l0,0L40,28l-1.3-1.4L33.3,21L32,22.4l5.3,5.6L32,33.6L33.3,35z
			 M29.9,19.8l-1.7-1l-10,17.3l1.7,1L29.9,19.8z"/>
	</g>
</g>
</svg>
