<?xml version="1.0" encoding="utf-8"?>
<!-- Generator: Adobe Illustrator 19.0.0, SVG Export Plug-In . SVG Version: 6.00 Build 0)  -->
<svg version="1.1" id="图层_1" xmlns="http://www.w3.org/2000/svg" xmlns:xlink="http://www.w3.org/1999/xlink" x="0px" y="0px"
	 viewBox="0 0 48 48" style="enable-background:new 0 0 48 48;" xml:space="preserve">
<style type="text/css">
	.st0{fill:#00A4FF;}
</style>
<g>
	<g>
		<path class="st0" d="M37,32V16L24,9v1.6L35,17v13.9L37,32z M44,18.5V35L24,46L4,35V13L24,2l20,11l1.7-1.2L24,0L2,12v24l22,12
			l22-12V17.5L44,18.5z M31,36V20l-13-7v1.6L29,21v13.8L31,36z M12,31l13,8V23l-13-7V31z M14,19l9,5v12l-9-6V19z"/>
	</g>
</g>
</svg>
