<?xml version="1.0" encoding="utf-8"?>
<!-- Generator: Adobe Illustrator 19.0.0, SVG Export Plug-In . SVG Version: 6.00 Build 0)  -->
<svg version="1.1" id="图层_1" xmlns="http://www.w3.org/2000/svg" xmlns:xlink="http://www.w3.org/1999/xlink" x="0px" y="0px"
	 viewBox="0 0 48 48" style="enable-background:new 0 0 48 48;" xml:space="preserve">
<style type="text/css">
	.st0{fill:#7C848E;}
</style>
<g>
	<g>
		<path class="st0" d="M37,24l-11,6v12l11,6l11-6V30L37,24z M36,45.4L28,41v-8l8,4.4V45.4z M46,41l-8,4.4v-8l8-4.4V41z M37,36
			l-8.8-5.1L37,26l9,5L37,36z M18.7,21.9l3.2,2.3l1.9-1.1l-3.2-2.3L18.7,21.9z M22,37l-3.1-2.2l-0.8-0.6l0,0L5,25v2l11.8,8.3L15,37
			l9.1,1.5L22,37L22,37z M38.9,20l5.9,4l-3.4-6.4l-1.4,1.3L26,9v2L38.9,20L38.9,20z M22,18V6L11,0L0,6v12l11,6L22,18z M20,17l-8,4.4
			v-8L20,9V17z M11,2l9,5l-9,5L2.2,6.9L11,2z M10,21.4L2,17V9l8,4.4V21.4z M26.8,27.9l1.9-1.3l-3.2-2.3l-1.9,1.3L26.8,27.9z"/>
	</g>
</g>
</svg>
