<?xml version="1.0" encoding="utf-8"?>
<!-- Generator: Adobe Illustrator 19.0.0, SVG Export Plug-In . SVG Version: 6.00 Build 0)  -->
<svg version="1.1" id="图层_1" xmlns="http://www.w3.org/2000/svg" xmlns:xlink="http://www.w3.org/1999/xlink" x="0px" y="0px"
	 width="48px" height="48px" viewBox="0 0 48 48" style="enable-background:new 0 0 48 48;" xml:space="preserve">
<style type="text/css">
	.st0{fill:#7C848E;}
</style>
<g>
	<g>
		<polygon id="XMLID_12_" class="st0" points="2,6 2,8 44,8 44,36 46,36 46,6 		"/>
	</g>
	<g>
		<polygon id="XMLID_11_" class="st0" points="4,12 2,12 2,42 46,42 46,40 4,40 		"/>
	</g>
</g>
<g id="XMLID_10_">
	<g id="XMLID_50_">
		<g id="XMLID_9_">
			<rect id="XMLID_30_" x="17" y="21" class="st0" width="14" height="2"/>
		</g>
	</g>
	<g id="XMLID_6_">
		<g id="XMLID_7_">
			<rect id="XMLID_19_" x="17" y="26" class="st0" width="14" height="2"/>
		</g>
	</g>
	<g id="XMLID_44_">
		<g id="XMLID_4_">
			<rect id="XMLID_31_" x="23" y="22" class="st0" width="2" height="11"/>
		</g>
	</g>
	<g id="XMLID_8_">
		<g id="XMLID_2_">
			
				<rect id="XMLID_18_" x="16.323" y="18.022" transform="matrix(0.7071 0.7071 -0.7071 0.7071 19.5317 -9.3561)" class="st0" width="9.473" height="1.753"/>
		</g>
		<g id="XMLID_5_">
			
				<rect id="XMLID_17_" x="26.32" y="14.162" transform="matrix(0.7071 0.7071 -0.7071 0.7071 21.329 -13.6953)" class="st0" width="1.753" height="9.473"/>
		</g>
	</g>
</g>
</svg>
