<?xml version="1.0" encoding="utf-8"?>
<!-- Generator: Adobe Illustrator 19.0.0, SVG Export Plug-In . SVG Version: 6.00 Build 0)  -->
<svg version="1.1" id="图层_1" xmlns="http://www.w3.org/2000/svg" xmlns:xlink="http://www.w3.org/1999/xlink" x="0px" y="0px"
	 viewBox="0 0 48 48" style="enable-background:new 0 0 48 48;" xml:space="preserve">
<style type="text/css">
	.st0{fill:#00A4FF;}
</style>
<g id="XMLID_2_">
	<g id="XMLID_55_">
		<path id="XMLID_56_" class="st0" d="M24,45C12.4,45,3,35.6,3,24C3,12.4,12.4,3,24,3c10.6,0,19.3,7.8,20.8,18h2
			C45.3,9.7,35.7,1,24,1C11.3,1,1,11.3,1,24c0,12.7,10.3,23,23,23c11.7,0,21.3-8.7,22.8-20h-2C43.3,37.2,34.6,45,24,45z M35,18
			l-11-6l-11,6v12l4.1,2.2c0.1-0.7,0.4-1.2,0.9-1.7l-3-1.6V21l9,5l9-5v7.9l-8,4.4c-0.3-0.2-0.6-0.3-1-0.3c-1.1,0-2,0.9-2,2
			c0,1.1,0.9,2,2,2s2-0.9,2-2c0,0,0-0.1,0-0.1l9-4.9V18z M24,23.7l-8.7-4.8l8.7-4.7l8.7,4.7L24,23.7z"/>
	</g>
</g>
</svg>
