<?xml version="1.0" encoding="utf-8"?>
<!-- Generator: Adobe Illustrator 22.0.1, SVG Export Plug-In . SVG Version: 6.00 Build 0)  -->
<svg version="1.1" id="图层_1" xmlns="http://www.w3.org/2000/svg" xmlns:xlink="http://www.w3.org/1999/xlink" x="0px" y="0px"
	 width="96px" height="96px" viewBox="0 0 96 96" style="enable-background:new 0 0 96 96;" xml:space="preserve">
<style type="text/css">
	.st0{opacity:0.1;}
	.st1{fill:#7C848E;}
</style>
<g class="st0">
	<g>
		<path class="st1" d="M25.3,1.5L10,1.5l-9.8,41h11l0,4.1l-8-0.1v15h8l0,15.4l-5,2.6v16l32-16v-16l-12,6v-8h12v-15h-12v-4h10l0-15
			H19.6l1-4h17.6v-15h-14L25.3,1.5z M95.2,18.5v-15h-54v90h54v-15h-41v-11h40v-40h-40v-9H95.2z M54.2,5.5h39v11h-39V5.5z M93.2,80.5
			v11h-39v-11H93.2z M92.2,29.5v36h-38v-36H92.2z M80.2,42.5h-24v10h24V42.5z M78.2,50.5h-20v-6h20V50.5z"/>
	</g>
</g>
</svg>
