<svg id="图层_1" data-name="图层 1" xmlns="http://www.w3.org/2000/svg" width="48" height="44" viewBox="0 0 48 44">
  <title>quanta</title>
  <path d="M16.9,13.9h0c3.1,0,7.5,2.3,11.1,6a22.939,22.939,0,0,1,5.5,8.4c.7,2.3.6,4.1-.3,5a3.174,3.174,0,0,1-2.3.7c-3.1,0-7.5-2.3-11.1-6a22.939,22.939,0,0,1-5.5-8.4c-.7-2.3-.6-4.1.3-5a3.928,3.928,0,0,1,2.3-.7m0-2a5.076,5.076,0,0,0-3.7,1.3c-3,3-.7,10.3,5.2,16.2,4.2,4.2,9,6.6,12.6,6.6a5.076,5.076,0,0,0,3.7-1.3c3-3,.7-10.3-5.2-16.2-4.2-4.2-9-6.6-12.6-6.6Z" transform="translate(0 -2)" style="fill: #7c848e"/>
  <path d="M31.1,13.9h0a3.7,3.7,0,0,1,2.3.7c.9.9,1,2.7.3,5A22.939,22.939,0,0,1,28.2,28c-3.6,3.6-8,6-11.1,6a3.7,3.7,0,0,1-2.3-.7c-.9-.9-1-2.7-.3-5A22.939,22.939,0,0,1,20,19.9c3.5-3.6,7.9-6,11.1-6m0-2c-3.6,0-8.4,2.4-12.6,6.6-5.9,5.9-8.3,13.2-5.2,16.2A5.076,5.076,0,0,0,17,36c3.6,0,8.4-2.4,12.6-6.6,5.9-5.9,8.3-13.2,5.2-16.2a5.734,5.734,0,0,0-3.7-1.3Z" transform="translate(0 -2)" style="fill: #7c848e"/>
  <circle cx="12.5" cy="2.5" r="2.5" style="fill: #7c848e"/>
  <circle cx="35.5" cy="41.5" r="2.5" style="fill: #7c848e"/>
  <path d="M36,3.2V3H17V5H35L45.7,24,35,43c.6.2.6,1.6,1,2L48,24Z" transform="translate(0 -2)" style="fill: #7c848e"/>
  <path d="M31,43H13L2.3,24,13,5c-.6-.2-1.6.4-2,0L0,24,12,45H31Z" transform="translate(0 -2)" style="fill: #7c848e"/>
  <circle cx="24" cy="22" r="2" style="fill: #7c848e"/>
</svg>
