<?xml version="1.0" encoding="utf-8"?>
<!-- Generator: Adobe Illustrator 21.0.0, SVG Export Plug-In . SVG Version: 6.00 Build 0)  -->
<svg version="1.1" id="图层_1" xmlns="http://www.w3.org/2000/svg" xmlns:xlink="http://www.w3.org/1999/xlink" x="0px" y="0px"
	 width="48px" height="48px" viewBox="0 0 48 48" style="enable-background:new 0 0 48 48;" xml:space="preserve">
<style type="text/css">
	.st0{fill-rule:evenodd;clip-rule:evenodd;fill:#717983;}
</style>
<g>
	<path class="st0" d="M45,19c0,2.4-1.7,4.4-4,4.9V38h-2V23.9c-1.2-0.2-2.3-0.9-3-1.9c-0.9,1.2-2.4,2-4,2c-1.6,0-3.1-0.8-4-2
		c-0.9,1.2-2.4,2-4,2s-3.1-0.8-4-2c-0.9,1.2-2.4,2-4,2s-3.1-0.8-4-2c-0.7,1-1.8,1.7-3,1.9V42h7V28h16v14h9v2H7V23.9
		c-2.3-0.5-4-2.5-4-4.9l0,0h0l5-9V5h32v5L45,19L45,19C45,19,45,19,45,19z M18,42h12V30H18V42z M38,7H10v3h28V7z M38.8,12H9.2L5,19.5
		C5.3,20.9,6.5,22,8,22c0.9,0,1.8-0.4,2.4-1.2l1.6-2.1l1.6,2.1c0.6,0.8,1.4,1.2,2.4,1.2c0.9,0,1.8-0.4,2.4-1.2l1.6-2.1l1.6,2.1
		c0.6,0.8,1.4,1.2,2.4,1.2c0.9,0,1.8-0.4,2.4-1.2l1.6-2.1l1.6,2.1c0.6,0.8,1.4,1.2,2.4,1.2c0.9,0,1.8-0.4,2.4-1.2l1.6-2.1l1.6,2.1
		c0.6,0.8,1.4,1.2,2.4,1.2c1.5,0,2.7-1.1,3-2.5L38.8,12z"/>
</g>
</svg>
