<?xml version="1.0" encoding="utf-8"?>
<!-- Generator: Adobe Illustrator 22.0.1, SVG Export Plug-In . SVG Version: 6.00 Build 0)  -->
<svg version="1.1" id="图层_1" xmlns="http://www.w3.org/2000/svg" xmlns:xlink="http://www.w3.org/1999/xlink" x="0px" y="0px"
	 width="96px" height="96px" viewBox="0 0 96 96" style="enable-background:new 0 0 96 96;" xml:space="preserve">
<style type="text/css">
	.st0{fill:#FFFFFF;}
	.st1{opacity:0.1;}
	.st2{fill-rule:evenodd;clip-rule:evenodd;fill:#7C848E;}
</style>
<g>
	<path class="st0" d="M18.9,60.4H16V43h-3.2v-2.4h6.1C18.9,40.6,18.9,60.4,18.9,60.4z"/>
	<path class="st0" d="M37.4,60.4h-2.9V43h-3.2v-2.4h6.1V60.4z"/>
	<path class="st0" d="M50.1,59.9h-3.6v-3.5h3.6V59.9z"/>
	<path class="st0" d="M64.7,60.4h-2.9V43h-3.2v-2.4h6.1V60.4z"/>
	<path class="st0" d="M83.2,60.4h-2.9V43h-3.2v-2.4h6.1V60.4z"/>
</g>
<g class="st1">
	<g>
		<path class="st2" d="M91.9,20.3v-15H27.3l1.4-4H13.5l-9.6,26h15.6l2.6-7l23.8,0v10h-33v32h-11v15h44v18h15v-18h31v-15h-31v-17h26
			v-15h-26v-10H91.9z M45.9,62.2h-18v-17h18V62.2z M84.9,32.2v11h-26v21h31v11h-31v18h-11v-75h-24l4-11h62v11h-31v14H84.9z"/>
	</g>
</g>
</svg>
