<?xml version="1.0" encoding="utf-8"?>
<!-- Generator: Adobe Illustrator 21.1.0, SVG Export Plug-In . SVG Version: 6.00 Build 0)  -->
<svg version="1.1" id="图层_1" xmlns="http://www.w3.org/2000/svg" xmlns:xlink="http://www.w3.org/1999/xlink" x="0px" y="0px"
	 width="48px" height="48px" viewBox="0 0 48 48" style="enable-background:new 0 0 48 48;" xml:space="preserve">
<style type="text/css">
	.st0{fill:#7C848E;}
</style>
<g id="akXMLID_2_">
	<g id="akXMLID_55_">
		<path id="akXMLID_56_" class="st0" d="M24.1,45c-11.6,0-21-9.4-21-21s9.4-21,21-21c10.6,0,19.3,7.8,20.8,18h2
			C45.4,9.7,35.8,1,24.1,1c-12.7,0-23,10.3-23,23s10.3,23,23,23c11.7,0,21.3-8.7,22.8-20h-2C43.4,37.2,34.7,45,24.1,45z"/>
	</g>
</g>
<g>
	<polygon class="st0" points="28.9,35.3 17.6,24 19,22.6 28.9,32.5 37.4,24 28.9,15.5 25,19.4 23.6,18 28.9,12.7 40.2,24 	"/>
</g>
<g>
	<polygon class="st0" points="19.1,12.7 30.4,24 29,25.4 19.1,15.5 10.6,24 19.1,32.5 23,28.6 24.4,30 19.1,35.3 7.8,24 	"/>
</g>
</svg>
