<?xml version="1.0" encoding="utf-8"?>
<!-- Generator: Adobe Illustrator 19.0.0, SVG Export Plug-In . SVG Version: 6.00 Build 0)  -->
<svg version="1.1" id="图层_1" xmlns="http://www.w3.org/2000/svg" xmlns:xlink="http://www.w3.org/1999/xlink" x="0px" y="0px"
	 viewBox="0 0 48 48" style="enable-background:new 0 0 48 48;" xml:space="preserve">
<style type="text/css">
	.st0{fill:#00A4FF;}
</style>
<g id="XMLID_3_">
	<g id="XMLID_70_">
		<path id="XMLID_71_" class="st0" d="M7.8,8H42v24h2V6H7.8C7.4,4.8,6.3,4,5,4C3.3,4,2,5.3,2,7c0,1.7,1.3,3,3,3
			C6.3,10,7.4,9.2,7.8,8z M43,38c-1.3,0-2.4,0.8-2.8,2H6V16H4v26h36.2c0.4,1.2,1.5,2,2.8,2c1.7,0,3-1.3,3-3C46,39.3,44.7,38,43,38z
			 M30,20c0-3.3-2.7-6-6-6s-6,2.7-6,6c0,3.3,2.7,6,6,6S30,23.3,30,20z M20,20c0-2.2,1.8-4,4-4s4,1.8,4,4c0,2.2-1.8,4-4,4
			S20,22.2,20,20z M12,36h2c0-3,2.7-6,6-6h8c3,0,6,3,6,6h2c0-4-4-8-8-8h-8C15.6,28,12,32,12,36z"/>
	</g>
</g>
</svg>
