<?xml version="1.0" encoding="utf-8"?>
<!-- Generator: Adobe Illustrator 19.0.0, SVG Export Plug-In . SVG Version: 6.00 Build 0)  -->
<svg version="1.1" id="图层_1" xmlns="http://www.w3.org/2000/svg" xmlns:xlink="http://www.w3.org/1999/xlink" x="0px" y="0px"
	 viewBox="0 0 48 48" style="enable-background:new 0 0 48 48;" xml:space="preserve">
<style type="text/css">
	.st0{fill:#7C848E;}
</style>
<g>
	<g>
		<path class="st0" d="M29,17H19c-1.1,0-2,0.9-2,2v10c0,1.1,0.9,2,2,2h10c1.1,0,2-0.9,2-2V19C31,17.9,30.1,17,29,17z M27,29h-6
			c-2,0-2-0.9-2-2v-6c0-1.1-0.1-2,2-2h6c1.1,0,2-0.1,2,2v6C29,28.1,29.1,29,27,29z M48,17v-2h-7V9c0-1.1-0.9-2-2-2h-6V0h-2v7h-6V0
			h-2v7h-6V0h-2v7H9C7.9,7,7,7.9,7,9v6H0v2h7v6H0v2h7v6H0v2h7v6c0,1.1,0.9,2,2,2h6v7h2v-7h6v7h2v-7h6v7h2v-7h6c1.1,0,2-0.9,2-2v-6h7
			v-2h-7v-6h7v-2h-7v-6H48z M39,37c0,1.1-0.9,2-2,2H11c-1.1,0-2-0.9-2-2V11c0-1.1,0.9-2,2-2h26c1.1,0,2,0.9,2,2V37z"/>
	</g>
</g>
</svg>
