<?xml version="1.0" encoding="utf-8"?>
<!-- Generator: Adobe Illustrator 19.0.0, SVG Export Plug-In . SVG Version: 6.00 Build 0)  -->
<svg version="1.1" id="图层_1" xmlns="http://www.w3.org/2000/svg" xmlns:xlink="http://www.w3.org/1999/xlink" x="0px" y="0px"
	 viewBox="0 0 48 48" style="enable-background:new 0 0 48 48;" xml:space="preserve">
<style type="text/css">
	.st0{fill:#00A4FF;}
</style>
<g id="XMLID_2_">
	<g id="XMLID_61_">
		<path id="XMLID_62_" class="st0" d="M39,20.2c0-0.1,0-0.1,0-0.2c0-8.3-6.7-15-15-15c-8.3,0-15,6.7-15,15c0,0.1,0,0.1,0,0.2
			c-5.1,0.9-9,5.4-9,10.8c0,6.1,4.9,11,11,11h26c6.1,0,11-4.9,11-11C48,25.7,44.1,21.2,39,20.2z M37,40.1c-0.3,0-1,0-1,0H12
			c0,0-0.7,0-1,0c-5,0-9-4-9-9c0-5,4-9,9-9c0.1,0,0.1,0,0.2,0c-0.1-0.7-0.2-1.3-0.2-2c0-7.2,5.8-13,13-13s13,5.8,13,13
			c0,0.7-0.1,1.4-0.2,2c0.1,0,0.1,0,0.2,0c5,0,9,4,9,9C46,36,42,40.1,37,40.1z M30.6,25.2l-11-6.3c-0.2-0.1-0.3-0.1-0.5-0.1
			c-0.5,0-1,0.4-1,1v12.6c0,0.6,0.5,1,1,1c0.2,0,0.4,0,0.5-0.1l11-6.3C31.2,26.5,31.2,25.6,30.6,25.2z M20,30.6v-9.1l8,4.6L20,30.6z
			"/>
	</g>
</g>
</svg>
