<?xml version="1.0" encoding="utf-8"?>
<!-- Generator: Adobe Illustrator 16.0.0, SVG Export Plug-In . SVG Version: 6.00 Build 0)  -->
<!DOCTYPE svg PUBLIC "-//W3C//DTD SVG 1.1//EN" "http://www.w3.org/Graphics/SVG/1.1/DTD/svg11.dtd">
<svg version="1.1" id="图层_1" xmlns="http://www.w3.org/2000/svg" xmlns:xlink="http://www.w3.org/1999/xlink" x="0px" y="0px"
	 width="48px" height="48px" viewBox="0 0 48 48" enable-background="new 0 0 48 48" xml:space="preserve">
<g>
	<g>
		<path fill="#7C848E" d="M6.037,40.016V15.923H3.959v26.093h40.082v-2H6.037z M41.93,31.995h2.078V5.984H3.959v2.01H41.93V31.995z
			 M31.946,16.358v2.612H17.36c-2.089,0-3.45,1.324-3.45,3.413c0,2.09,1.361,3.606,3.45,3.606h4.575v-2.019H17.36
			c-0.783,0-1.432-0.805-1.432-1.588s0.648-1.395,1.432-1.395h19.593L31.946,16.358z M30.423,28.978H10.83l5.13,4.632v-2.614h14.463
			c2.089,0,3.544-1.296,3.544-3.388c0-2.088-1.455-3.636-3.544-3.636h-4.481v2.019h4.481c0.781,0,1.555,0.835,1.555,1.617
			C31.978,28.392,31.204,28.978,30.423,28.978z"/>
	</g>
</g>
</svg>
