<?xml version="1.0" encoding="utf-8"?>
<!-- Generator: Adobe Illustrator 19.0.0, SVG Export Plug-In . SVG Version: 6.00 Build 0)  -->
<svg version="1.1" id="图层_1" xmlns="http://www.w3.org/2000/svg" xmlns:xlink="http://www.w3.org/1999/xlink" x="0px" y="0px"
	 viewBox="0 0 48 48" style="enable-background:new 0 0 48 48;" xml:space="preserve">
<style type="text/css">
	.st0{fill:#7C848E;}
</style>
<g>
	<g>
		<path class="st0" d="M19.6,31.9c0.7-0.7,1.5-1.3,2.4-1.9c-10.4,0-17-4-17-6V14c3.1,2.6,9.5,5,17,5c7.4,0,13.9-2.4,17-5l0,8.1
			c0.7,0.4,1.4,0.8,2,1.3V11.1c0-0.1,0,0,0-0.1c0-4.4-8.5-8-19-8C12.3,3,4.4,5.9,3.2,9.8L3,11v26c0,3.6,7,6.4,16.1,6.9
			c-0.5-0.7-1-1.4-1.3-2.1C9.9,40.9,5,37.7,5,36v-9C7.8,29.3,13.1,31.5,19.6,31.9z M22,5c10.4,0,17,3.6,17,6c-0.4,2.4-6.9,6-17,6
			c-10.4,0-17-3.6-17-6C5,8.6,11.6,5,22,5z M41,32.7c0-0.1,0-0.1,0-0.2c0-4.1-3.4-7.4-7.5-7.4c-4.1,0-7.5,3.3-7.5,7.4
			c0,0.1,0,0.1,0,0.2c-2.6,0.6-5,2.5-5,5.3c0,3.3,3.7,6,7,6h12c3,0,6-2.7,6-6C46,35.2,43.6,33.4,41,32.7z M40,42H28
			c-2.2,0-5-1.8-5-4c0-2.2,2.3-3.5,4.5-3.5c0.3,0,0.6,0.1,0.9,0.1C28.2,34,28,33.3,28,32.6c0-3,2.5-5.4,5.5-5.4s5.5,2.4,5.5,5.4
			c0,0.7-0.1,1.4-0.4,2.1c0.3-0.1,0.6-0.1,0.9-0.1c2.2,0,4.5,1.3,4.5,3.5C44,40.2,42.2,42,40,42z"/>
	</g>
</g>
</svg>
