<?xml version="1.0" encoding="utf-8"?>
<!-- Generator: Adobe Illustrator 19.0.0, SVG Export Plug-In . SVG Version: 6.00 Build 0)  -->
<svg version="1.1" id="图层_1" xmlns="http://www.w3.org/2000/svg" xmlns:xlink="http://www.w3.org/1999/xlink" x="0px" y="0px"
	 viewBox="0 0 48 48" style="enable-background:new 0 0 48 48;" xml:space="preserve">
<style type="text/css">
	.st0{fill-rule:evenodd;clip-rule:evenodd;fill:#00A4FF;}
</style>
<g id="XMLID_2_">
	<g id="XMLID_71_">
		<path id="XMLID_72_" class="st0" d="M30.9,21.2C31,22.1,31,23.1,31,24c0,0.9,0,1.9-0.1,2.8c0.7-0.1,1.4-0.1,2-0.2
			c0-0.9,0.1-1.7,0.1-2.6c0-0.9,0-1.7-0.1-2.6C32.3,21.3,31.6,21.3,30.9,21.2z M24,1C11.3,1,1,11.3,1,24c0,12.7,10.3,23,23,23
			c12.7,0,23-10.3,23-23C47,11.3,36.7,1,24,1z M44.5,19.9c-2.5-2-6.9-3.5-12.1-4.3c-0.8-5.3-2.3-9.6-4.3-12.1
			C36,5.2,42.8,12,44.5,19.9z M3.5,28.1c2,1.6,5.1,2.9,8.8,3.8c-0.2-1.3-0.2-1-0.3-1.9c-4.8-1.1-9-4-9-6c0-2,3.7-4.4,9-6
			c0.1-0.9,0.2-1,0.3-1.9c-3.8,0.9-6.8,2.2-8.8,3.8C5.3,11.9,12,5.2,19.9,3.5C17,7.2,15,15,15,24c0,9,2,16.8,4.9,20.5
			C12,42.8,5.3,36.1,3.5,28.1z M28.1,44.5c2-2.5,3.5-6.8,4.3-12c5.3-0.7,9.6-2.2,12.1-4.2C42.6,36.1,36,42.8,28.1,44.5z M44.9,24.5
			c0,0.1-0.1,0.2-0.1,0.2c-0.9,2.2-5.8,4.4-12.2,5.5c0-0.2,0-0.5,0.1-0.7c-0.7,0.1-1.4,0.2-2.1,0.2c0,0.3-0.1,0.5-0.1,0.8
			C28.5,30.8,26.3,31,24,31c-0.9,0-2.1,0-3,0c0.2,0.5,0.7,1.4,1,2c0.8,0,2.2,0,3,0c1.8,0,3.6-0.1,5.2-0.2C29,39.8,26.4,45,24,45
			c-3.4,0-7-10-7-21c0-11,3.6-21,7-21c2.5,0,5,5.3,6.3,12.3c-2-0.2-4.1-0.3-6.3-0.3c-0.8,0-1.2,0-2,0c-0.3,0.4-0.6,1.2-1,2
			c0.9,0,2.1,0,3,0c2.3,0,4.5,0.2,6.6,0.4c0,0.3,0.1,0.5,0.1,0.8c0.7,0.1,1.4,0.2,2.1,0.2c0-0.2,0-0.5-0.1-0.7
			c6.3,1.1,11.2,3.3,12.2,5.5c0,0.1,0.1,0.1,0.1,0.2c0,0,0,0.1,0,0.1c0,0.1,0.1,0.3,0.1,0.4c0,0.1,0,0.3-0.1,0.4
			C44.9,24.4,44.9,24.5,44.9,24.5z"/>
	</g>
</g>
</svg>
