<?xml version="1.0" encoding="utf-8"?>
<!-- Generator: Adobe Illustrator 19.0.0, SVG Export Plug-In . SVG Version: 6.00 Build 0)  -->
<svg version="1.1" id="图层_1" xmlns="http://www.w3.org/2000/svg" xmlns:xlink="http://www.w3.org/1999/xlink" x="0px" y="0px"
	 viewBox="0 0 48 48" style="enable-background:new 0 0 48 48;" xml:space="preserve">
<style type="text/css">
	.st0{fill:#7C848E;}
</style>
<g>
	<g>
		<path class="st0" d="M48,17v-2h-7V9c0-1.1-0.9-2-2-2h-6V0h-2v7h-6V0h-2v7h-6V0h-2v7H9C7.9,7,7,7.9,7,9v6H0v2h7v6H0v2h7v6H0v2h7v6
			c0,1.1,0.9,2,2,2h6v7h2v-7h6v7h2v-7h6v7h2v-7h6c1.1,0,2-0.9,2-2v-6h7v-2h-7v-6h7v-2h-7v-6H48z M39,37c0,2-0.1,2-2,2H11
			c-2,0-2-0.3-2-2V11c0-1.8,0-2,2-2h26c1.8,0,2,0.3,2,2V37z M29,13c-3.3,0-6,2.7-6,6v10c0,2.2-1.8,4-4,4c-2.2,0-4-1.8-4-4
			c0-1.9,1.3-3.5,3-3.9c1.2-0.2,1.3-2.1-0.1-2c-2.8,0.5-5,3-5,6c0,3.3,2.7,6,6,6c3,0,5.4-2.2,5.9-5H25V19c0-2.2,1.8-4,4-4s4,1.8,4,4
			c0,1.9-1.3,3.5-3,3.9c-1.2,0.2-1.3,2.1,0.1,2c2.8-0.5,5-2.9,5-5.9C35,15.7,32.3,13,29,13z"/>
	</g>
</g>
</svg>
