<?xml version="1.0" encoding="utf-8"?>
<!-- Generator: Adobe Illustrator 19.0.0, SVG Export Plug-In . SVG Version: 6.00 Build 0)  -->
<svg version="1.1" id="图层_1" xmlns="http://www.w3.org/2000/svg" xmlns:xlink="http://www.w3.org/1999/xlink" x="0px" y="0px"
	 viewBox="12 -12 48 48" style="enable-background:new 12 -12 48 48;" xml:space="preserve">
<style type="text/css">
	.st0{fill:#7C848E;}
</style>
<g>
	<g>
		<path class="st0" d="M33,26h6v-2h-6V26z M52,28v-38H20v44h32v-2H22V-8h28v36H52z M35.8,0c-2.3,0-4.2,1.4-4.9,3.4
			c0,0,0.9,0.9,1.8,1.6c0-1.7,1.4-3,3.1-3C37.6,2,39,3.3,39,5c1-0.5,2-0.9,2-0.9C40.5,1.8,38.4,0,35.8,0z M43.4,1.7L45,0.2
			C43.2-2.9,39.8-5,35.8-5c-3.7,0-7,1.9-8.8,4.7l1.5,1.5C29.9-1.3,32.7-3,35.8-3C39.2-3,42.1-1.1,43.4,1.7z M35,6v2h2V6H35z"/>
	</g>
</g>
</svg>
