<?xml version="1.0" encoding="utf-8"?>
<!-- Generator: Adobe Illustrator 19.0.0, SVG Export Plug-In . SVG Version: 6.00 Build 0)  -->
<svg version="1.1" id="图层_1" xmlns="http://www.w3.org/2000/svg" xmlns:xlink="http://www.w3.org/1999/xlink" x="0px" y="0px"
	 viewBox="0 0 48 48" style="enable-background:new 0 0 48 48;" xml:space="preserve">
<style type="text/css">
	.st0{fill:#7C848E;}
</style>
<g id="XMLID_2_">
	<g id="XMLID_118_">
		<path id="XMLID_119_" class="st0" d="M46,34V6H2v36h44v-2H4V16h40v18H46z M4,14V8h40v6H4z M39,32v-6h0c0-1.1-0.9-2-2-2h-6v0
			c-1.1,0-2,0.9-2,2h0v6h2v-6h2v6h2v-6h2v6H39z M27,26c0-1.1-0.9-2-2-2h-2v0c-1.1,0-2,0.9-2,2h0v4h0c0,1.1,0.9,2,2,2v0h2
			c1.1,0,2-0.9,2-2h0L27,26L27,26z M25,30h-2v-4h2V30z M19,26v-2h-4v0c-1.1,0-2,0.9-2,2h0v4h0c0,1.1,0.9,2,2,2v0h4v-2h-4v-4H19z
			 M11,32v-2H9v2H11z"/>
	</g>
</g>
</svg>
