<?xml version="1.0" encoding="utf-8"?>
<!-- Generator: Adobe Illustrator 19.0.0, SVG Export Plug-In . SVG Version: 6.00 Build 0)  -->
<svg version="1.1" id="图层_1" xmlns="http://www.w3.org/2000/svg" xmlns:xlink="http://www.w3.org/1999/xlink" x="0px" y="0px"
	 viewBox="0 0 48 48" style="enable-background:new 0 0 48 48;" xml:space="preserve">
<style type="text/css">
	.st0{fill:#7C848E;}
</style>
<g>
	<g>
		<path class="st0" d="M46.4,43.6l-4.2-4.2c-0.5-0.5-1.2-0.7-1.9-0.5L37.4,36c3.4-3.7,5.4-8.6,5.4-14c0-11.6-9.4-21-21-21
			c-11.6,0-21,9.4-21,21c0,11.6,9.4,21,21,21c5.5,0,10.5-2.1,14.2-5.6l2.8,2.8c-0.2,0.7-0.1,1.5,0.5,2.1l4.2,4.2
			c0.8,0.8,2,0.8,2.8,0C47.2,45.7,47.2,44.4,46.4,43.6z M21.8,40.9c-10.5,0-19-8.5-19-19s8.5-19,19-19c10.5,0,19,8.5,19,19
			S32.3,40.9,21.8,40.9z M28.9,17.1l-8.5,8.5l-5.7-5.7l-1.4,1.4l7.1,7.1l1.4-1.4l0,0l8.5-8.5L28.9,17.1z"/>
	</g>
</g>
</svg>
